<svg width="22" height="24" viewBox="0 0 22 24" fill="none" xmlns="http://www.w3.org/2000/svg">
<path d="M15.3154 9.12337L10.9528 6.61722L6.59024 9.12337L10.9528 11.6759L15.3154 9.12337Z" fill="white"/>
<path d="M11.649 12.8826V16.9667L16.0115 14.4605V10.3764L11.649 12.8826Z" fill="white"/>
<path d="M10.2567 12.8826L5.8941 10.3764V14.4605L10.2567 16.9667V12.8826Z" fill="white"/>
<path d="M11.4633 19.7049H11.3241V18.359C11.3241 18.1733 11.1848 17.9877 10.9528 17.9877C10.7207 17.9877 10.5815 18.1269 10.5815 18.359V19.7049H10.4423C9.74612 19.7049 9.09637 20.2618 9.09637 21.0508V22.0718C9.09637 22.7679 9.6533 23.4177 10.4423 23.4177H11.4633C12.1594 23.4177 12.8092 22.8608 12.8092 22.0718V21.0508C12.8092 20.3082 12.2059 19.7049 11.4633 19.7049Z" fill="white"/>
<path d="M20.5597 17.1988H20.4205V15.4352C20.4205 15.2495 20.2813 15.0639 20.0492 15.0639H18.7497C18.6105 14.507 18.1 14.1357 17.4502 14.1357C16.7541 14.1357 16.1043 14.6926 16.1043 15.4816C16.1043 16.1777 16.6613 16.8275 17.4502 16.8275C18.0536 16.8275 18.5177 16.4098 18.7497 15.8993H19.6779V17.2916H19.5387C18.8425 17.2916 18.1928 17.8485 18.1928 18.6375V19.6585C18.1928 20.3546 18.7497 21.0044 19.5387 21.0044H20.5597C21.2559 21.0044 21.9056 20.4475 21.9056 19.6585V18.6375C21.9056 17.7557 21.3023 17.1988 20.5597 17.1988Z" fill="white"/>
<path d="M10.4423 4.29671H10.5815V5.64261C10.5815 5.82825 10.7207 6.01389 10.9528 6.01389C11.1848 6.01389 11.3241 5.87466 11.3241 5.64261V4.29671H11.4633C12.1594 4.29671 12.8092 3.73979 12.8092 2.95082V1.9762C12.8092 1.28005 12.2523 0.63031 11.4633 0.63031H10.4423C9.74612 0.63031 9.09637 1.18723 9.09637 1.9762V2.99723C9.09637 3.69338 9.69971 4.29671 10.4423 4.29671Z" fill="white"/>
<path d="M20.5597 3.13644H19.5387C18.8425 3.13644 18.1928 3.69337 18.1928 4.48234V5.50336C18.1928 6.19951 18.7497 6.84926 19.5387 6.84926H19.7243V8.24156H18.7961C18.6569 7.68464 18.1464 7.31336 17.4967 7.31336C16.8005 7.31336 16.1508 7.87028 16.1508 8.65925C16.1508 9.3554 16.7077 10.0051 17.4967 10.0051C18.1 10.0051 18.5641 9.58746 18.7961 9.07694H20.0956C20.2813 9.07694 20.4669 8.93771 20.4669 8.70566V6.94208H20.6061C21.3023 6.94208 21.952 6.38515 21.952 5.59618V4.48234C21.9056 3.69337 21.3023 3.13644 20.5597 3.13644Z" fill="white"/>
<path d="M4.40897 14.1357C3.80563 14.1357 3.34153 14.5534 3.10948 15.0639H1.85641C1.67077 15.0639 1.48513 15.2031 1.48513 15.4352V17.1988H1.34589C0.649742 17.1988 0 17.7557 0 18.5446V19.5657C0 20.2618 0.556922 20.9116 1.34589 20.9116H2.36692C3.06307 20.9116 3.71281 20.3546 3.71281 19.5657V18.5446C3.71281 17.8485 3.15589 17.1988 2.36692 17.1988H2.18128V15.8064H3.10948C3.24871 16.3634 3.75922 16.7347 4.40897 16.7347C5.10512 16.7347 5.75486 16.1777 5.75486 15.3888C5.75486 14.739 5.10512 14.1357 4.40897 14.1357Z" fill="white"/>
<path d="M4.40897 7.22054C3.80563 7.22054 3.34153 7.63823 3.10948 8.14874H2.18128V6.75644H2.32051C3.01666 6.75644 3.6664 6.19951 3.6664 5.41054V4.48234C3.6664 3.78619 3.10948 3.13644 2.32051 3.13644H1.34589C0.603332 3.13644 0 3.69337 0 4.48234V5.50336C0 6.19951 0.556922 6.84926 1.34589 6.84926H1.48513V8.61284C1.48513 8.79848 1.62436 8.98412 1.85641 8.98412H3.15589C3.29512 9.54105 3.80563 9.91233 4.45538 9.91233C5.15153 9.91233 5.80127 9.35541 5.80127 8.56643C5.75486 7.82387 5.10512 7.22054 4.40897 7.22054Z" fill="white"/>
</svg>
