<svg width="23" height="24" viewBox="0 0 23 24" fill="none" xmlns="http://www.w3.org/2000/svg">
<path d="M22.7885 5.25701L12.675 0.170623C12.2238 -0.056273 11.6919 -0.0569026 11.2402 0.168913L1.06325 5.2568C0.91491 5.33099 0.91491 5.54273 1.06325 5.61693L11.2402 10.7048C11.6919 10.9306 12.2238 10.93 12.675 10.7031L22.7885 5.61666C22.9363 5.54237 22.9363 5.33136 22.7885 5.25701Z" fill="white"/>
<path d="M22.782 11.723L20.0611 10.3626L12.6827 14.0598C12.2185 14.2998 11.6904 14.2998 11.2422 14.0598L3.81584 10.3626L1.06299 11.723C0.918905 11.803 0.918905 12.0111 1.06299 12.0912L11.2422 17.1808C11.6904 17.4048 12.2185 17.4048 12.6827 17.1808L22.782 12.0912C22.942 12.0111 22.942 11.803 22.782 11.723Z" fill="white"/>
<path d="M22.782 18.1935L20.0611 16.8331L12.6827 20.5303C12.2185 20.7703 11.6904 20.7703 11.2422 20.5303L3.81584 16.8331L1.06299 18.1935C0.918905 18.2735 0.918905 18.4816 1.06299 18.5617L11.2422 23.6513C11.6904 23.8753 12.2185 23.8753 12.6827 23.6513L22.782 18.5617C22.942 18.4816 22.942 18.2735 22.782 18.1935Z" fill="white"/>
</svg>
