<svg width="10" height="10" viewBox="0 0 10 10" fill="none" xmlns="http://www.w3.org/2000/svg">
<g clip-path="url(#clip0_158_497)">
<path d="M4.5 2C4.5 1.5 4.9 1.5 4.9 1.5C4.9 1.5 5.25 1.5 5.25 2V5L7 6.5C7.21148 6.67726 7.42748 6.93857 7.25 7.15C7.07252 7.36191 6.71157 7.17726 6.5 7L4.67861 5.416C4.56535 5.32078 4.5 5.18065 4.5 5.03322V2Z" fill="#E77812"/>
<path fill-rule="evenodd" clip-rule="evenodd" d="M10 5C10 7.76122 7.76143 10 5 10C2.23859 10 0 7.76122 0 5C0 2.23877 2.23859 0 5 0C7.76143 0 10 2.23877 10 5ZM9.25 5C9.25 7.34717 7.34722 9.25 5 9.25C2.65277 9.25 0.75 7.34717 0.75 5C0.75 2.65283 2.65277 0.75 5 0.75C7.34722 0.75 9.25 2.65283 9.25 5Z" fill="#E77812"/>
</g>
<defs>
<clipPath id="clip0_158_497">
<rect width="10" height="10" fill="white"/>
</clipPath>
</defs>
</svg>
