<svg width="1000" height="1000" viewBox="0 0 1000 1000" fill="none" xmlns="http://www.w3.org/2000/svg">
<rect width="1000" height="1000" fill="#111111"/>
<path d="M300.256 582.182H318.46L337.688 629.091H338.506L357.733 582.182H375.938V652H361.619V606.557H361.04L342.972 651.659H333.222L315.153 606.386H314.574V652H300.256V582.182ZM421.406 629.705V599.636H435.929V652H421.986V642.489H421.44C420.259 645.557 418.293 648.023 415.543 649.886C412.815 651.75 409.486 652.682 405.554 652.682C402.054 652.682 398.974 651.886 396.315 650.295C393.656 648.705 391.577 646.443 390.077 643.511C388.599 640.58 387.849 637.068 387.827 632.977V599.636H402.349V630.386C402.372 633.477 403.202 635.92 404.838 637.716C406.474 639.511 408.668 640.409 411.418 640.409C413.168 640.409 414.804 640.011 416.327 639.216C417.849 638.398 419.077 637.193 420.009 635.602C420.963 634.011 421.429 632.045 421.406 629.705ZM462.068 582.182V652H447.545V582.182H462.068ZM501.554 599.636V610.545H470.02V599.636H501.554ZM477.179 587.091H491.702V635.909C491.702 637.25 491.906 638.295 492.315 639.045C492.724 639.773 493.293 640.284 494.02 640.58C494.77 640.875 495.634 641.023 496.611 641.023C497.293 641.023 497.974 640.966 498.656 640.852C499.338 640.716 499.861 640.614 500.224 640.545L502.509 651.352C501.781 651.58 500.759 651.841 499.44 652.136C498.122 652.455 496.52 652.648 494.634 652.716C491.134 652.852 488.065 652.386 485.429 651.318C482.815 650.25 480.781 648.591 479.327 646.341C477.872 644.091 477.156 641.25 477.179 637.818V587.091ZM511.014 652V599.636H525.537V652H511.014ZM518.31 592.886C516.151 592.886 514.298 592.17 512.753 590.739C511.23 589.284 510.469 587.545 510.469 585.523C510.469 583.523 511.23 581.807 512.753 580.375C514.298 578.92 516.151 578.193 518.31 578.193C520.469 578.193 522.31 578.92 523.832 580.375C525.378 581.807 526.151 583.523 526.151 585.523C526.151 587.545 525.378 589.284 523.832 590.739C522.31 592.17 520.469 592.886 518.31 592.886ZM534.784 594.352V582.182H592.125V594.352H570.75V652H556.159V594.352H534.784ZM609.102 652.989C605.761 652.989 602.784 652.409 600.17 651.25C597.557 650.068 595.489 648.33 593.966 646.034C592.466 643.716 591.716 640.83 591.716 637.375C591.716 634.466 592.25 632.023 593.318 630.045C594.386 628.068 595.841 626.477 597.682 625.273C599.523 624.068 601.614 623.159 603.955 622.545C606.318 621.932 608.795 621.5 611.386 621.25C614.432 620.932 616.886 620.636 618.75 620.364C620.614 620.068 621.966 619.636 622.807 619.068C623.648 618.5 624.068 617.659 624.068 616.545V616.341C624.068 614.182 623.386 612.511 622.023 611.33C620.682 610.148 618.773 609.557 616.295 609.557C613.682 609.557 611.602 610.136 610.057 611.295C608.511 612.432 607.489 613.864 606.989 615.591L593.557 614.5C594.239 611.318 595.58 608.568 597.58 606.25C599.58 603.909 602.159 602.114 605.318 600.864C608.5 599.591 612.182 598.955 616.364 598.955C619.273 598.955 622.057 599.295 624.716 599.977C627.398 600.659 629.773 601.716 631.841 603.148C633.932 604.58 635.58 606.42 636.784 608.67C637.989 610.898 638.591 613.568 638.591 616.682V652H624.818V644.739H624.409C623.568 646.375 622.443 647.818 621.034 649.068C619.625 650.295 617.932 651.261 615.955 651.966C613.977 652.648 611.693 652.989 609.102 652.989ZM613.261 642.966C615.398 642.966 617.284 642.545 618.92 641.705C620.557 640.841 621.841 639.682 622.773 638.227C623.705 636.773 624.17 635.125 624.17 633.284V627.727C623.716 628.023 623.091 628.295 622.295 628.545C621.523 628.773 620.648 628.989 619.67 629.193C618.693 629.375 617.716 629.545 616.739 629.705C615.761 629.841 614.875 629.966 614.08 630.08C612.375 630.33 610.886 630.727 609.614 631.273C608.341 631.818 607.352 632.557 606.648 633.489C605.943 634.398 605.591 635.534 605.591 636.898C605.591 638.875 606.307 640.386 607.739 641.432C609.193 642.455 611.034 642.966 613.261 642.966ZM649.858 671.636V599.636H664.176V608.432H664.824C665.46 607.023 666.381 605.591 667.585 604.136C668.813 602.659 670.403 601.432 672.358 600.455C674.335 599.455 676.79 598.955 679.722 598.955C683.54 598.955 687.063 599.955 690.29 601.955C693.517 603.932 696.097 606.92 698.028 610.92C699.96 614.898 700.926 619.886 700.926 625.886C700.926 631.727 699.983 636.659 698.097 640.682C696.233 644.682 693.688 647.716 690.46 649.784C687.256 651.83 683.665 652.852 679.688 652.852C676.869 652.852 674.472 652.386 672.494 651.455C670.54 650.523 668.938 649.352 667.688 647.943C666.438 646.511 665.483 645.068 664.824 643.614H664.381V671.636H649.858ZM664.074 625.818C664.074 628.932 664.506 631.648 665.369 633.966C666.233 636.284 667.483 638.091 669.119 639.386C670.756 640.659 672.744 641.295 675.085 641.295C677.449 641.295 679.449 640.648 681.085 639.352C682.722 638.034 683.96 636.216 684.801 633.898C685.665 631.557 686.097 628.864 686.097 625.818C686.097 622.795 685.676 620.136 684.835 617.841C683.994 615.545 682.756 613.75 681.119 612.455C679.483 611.159 677.472 610.511 675.085 610.511C672.722 610.511 670.722 611.136 669.085 612.386C667.472 613.636 666.233 615.409 665.369 617.705C664.506 620 664.074 622.705 664.074 625.818Z" fill="white"/>
<path d="M665.667 415.661C659.943 437.027 646.286 454.863 627.213 465.882L588.35 488.309C575.215 495.896 561.109 499.689 547.008 499.689C532.904 499.69 518.804 495.896 505.665 488.308L417.301 437.288C408.956 432.476 406.082 421.765 410.898 413.412C416.138 404.341 424.365 397.793 434.065 394.972C443.956 392.096 454.405 393.403 463.49 398.653L486.948 412.193L417.618 292.11C410.408 279.6 414.705 263.567 427.196 256.368C433.231 252.89 440.279 251.969 447.043 253.78C453.813 255.591 459.458 259.912 462.936 265.947L491.151 314.83C493.272 309.139 497.253 304.413 502.555 301.358C508.578 297.88 515.622 296.959 522.384 298.77C525.593 299.628 528.548 301.051 531.139 302.952C531.175 302.81 531.212 302.667 531.25 302.525C533.067 295.758 537.391 290.115 543.426 286.637C549.449 283.158 556.493 282.238 563.256 284.049C567.65 285.226 571.57 287.459 574.73 290.532C576.67 284.998 580.469 280.399 585.578 277.454C591.223 274.187 597.827 273.321 604.164 275.018C610.503 276.716 615.79 280.765 619.051 286.422L657.458 352.949C668.476 372.019 671.391 394.291 665.666 415.66L665.667 415.661ZM406.987 317.335C402.762 313.662 399.191 309.324 396.369 304.435C389.592 292.703 387.792 279.034 391.302 265.943C394.811 252.853 403.208 241.915 414.947 235.141C426.681 228.362 440.348 226.56 453.432 230.064C466.515 233.569 477.449 241.962 484.219 253.695C487.064 258.624 489.038 263.884 490.087 269.33C491.159 274.89 496.532 278.53 502.094 277.458C507.654 276.387 511.292 271.011 510.221 265.451C508.739 257.76 505.967 250.357 501.979 243.447C492.47 226.968 477.113 215.181 458.738 210.259C440.361 205.335 421.167 207.867 404.695 217.384C388.215 226.892 376.425 242.252 371.497 260.632C366.567 279.016 369.095 298.215 378.611 314.688C382.569 321.546 387.591 327.644 393.536 332.811C395.477 334.498 397.872 335.325 400.256 335.325C403.122 335.325 405.972 334.13 407.999 331.797C411.713 327.524 411.259 321.049 406.986 317.334L406.987 317.335ZM381.501 347.605C373.747 340.943 367.228 333.072 362.12 324.203C350.06 303.318 346.856 278.99 353.097 255.698C359.338 232.407 374.276 212.944 395.161 200.891C438.27 175.998 493.596 190.82 518.486 233.921C523.62 242.838 527.178 252.423 529.06 262.411C530.108 267.976 535.468 271.637 541.034 270.588C546.597 269.541 550.259 264.18 549.21 258.615C546.901 246.358 542.542 234.607 536.248 223.678C505.699 170.776 437.807 152.587 384.91 183.134C359.282 197.922 340.95 221.809 333.291 250.392C325.632 278.974 329.564 308.829 344.357 334.446C350.621 345.321 358.621 354.982 368.14 363.159C370.074 364.821 372.451 365.635 374.816 365.635C377.701 365.635 380.569 364.423 382.596 362.064C386.286 357.769 385.796 351.296 381.501 347.606V347.605Z" fill="white"/>
<rect x="381" y="725" width="236" height="116" rx="58" fill="#50845B"/>
<path d="M456.31 799.636V766H466.491V799.636H456.31ZM444.582 787.909V777.727H478.219V787.909H444.582ZM509.503 759.455V806H496.866V771.091H496.594L486.412 777.182V766.455L497.866 759.455H509.503ZM538.514 806.636C535.802 806.636 533.226 806.212 530.787 805.364C528.363 804.5 526.211 803.144 524.332 801.295C522.454 799.447 520.976 797.038 519.901 794.068C518.84 791.098 518.317 787.5 518.332 783.273C518.348 779.5 518.832 776.106 519.787 773.091C520.757 770.076 522.128 767.508 523.901 765.386C525.688 763.265 527.825 761.644 530.31 760.523C532.795 759.386 535.56 758.818 538.605 758.818C542.029 758.818 545.045 759.477 547.651 760.795C550.257 762.114 552.332 763.879 553.878 766.091C555.438 768.288 556.348 770.712 556.605 773.364H544.151C543.863 772.045 543.196 771.083 542.151 770.477C541.12 769.856 539.938 769.545 538.605 769.545C535.954 769.545 534.007 770.697 532.764 773C531.537 775.303 530.908 778.333 530.878 782.091H531.151C531.741 780.667 532.635 779.447 533.832 778.432C535.029 777.417 536.423 776.636 538.014 776.091C539.605 775.545 541.287 775.273 543.06 775.273C545.878 775.273 548.34 775.909 550.446 777.182C552.567 778.455 554.219 780.197 555.401 782.409C556.582 784.621 557.166 787.152 557.151 790C557.166 793.333 556.378 796.25 554.787 798.75C553.211 801.25 551.022 803.189 548.219 804.568C545.416 805.947 542.181 806.636 538.514 806.636ZM538.423 797.091C539.681 797.091 540.795 796.803 541.764 796.227C542.749 795.652 543.514 794.864 544.06 793.864C544.62 792.864 544.893 791.727 544.878 790.455C544.893 789.167 544.62 788.03 544.06 787.045C543.514 786.045 542.749 785.258 541.764 784.682C540.795 784.106 539.681 783.818 538.423 783.818C537.499 783.818 536.643 783.985 535.855 784.318C535.082 784.636 534.408 785.098 533.832 785.705C533.257 786.295 532.802 787 532.469 787.818C532.151 788.621 531.984 789.5 531.969 790.455C531.984 791.727 532.272 792.864 532.832 793.864C533.393 794.864 534.158 795.652 535.128 796.227C536.098 796.803 537.196 797.091 538.423 797.091Z" fill="white"/>
</svg>
