<svg width="21" height="21" viewBox="0 0 21 21" fill="none" xmlns="http://www.w3.org/2000/svg">
<g clip-path="url(#clip0_161_234)">
<path d="M12.8131 8.18528C12.5644 7.93505 12.2886 7.71324 11.9908 7.5239C11.2021 7.01889 10.2853 6.75053 9.34876 6.75053C8.04893 6.74811 6.80191 7.26457 5.88439 8.18528L1.43319 12.64C0.517226 13.5577 0.00240809 14.8011 0.00158793 16.0977C-0.000134418 18.8034 2.19184 20.9982 4.89756 21C6.19539 21.0045 7.44127 20.4905 8.35846 19.5722L12.0328 15.8979C12.0996 15.8317 12.1368 15.7414 12.1363 15.6474C12.1352 15.4541 11.9776 15.2984 11.7843 15.2995H11.6444C10.8767 15.3022 10.1159 15.1548 9.40478 14.8656C9.27376 14.8116 9.12318 14.8421 9.02336 14.9425L6.38132 17.5881C5.56091 18.4085 4.23077 18.4085 3.41036 17.5881C2.58995 16.7677 2.58995 15.4375 3.41036 14.6171L7.87907 10.1519C8.69882 9.33319 10.0268 9.33319 10.8465 10.1519C11.399 10.6719 12.2608 10.6719 12.8132 10.1519C13.0509 9.91403 13.195 9.59851 13.2191 9.26306C13.2447 8.86221 13.0968 8.46963 12.8131 8.18528Z" fill="white"/>
<path d="M19.5634 1.43499C17.6501 -0.478331 14.548 -0.478331 12.6347 1.43499L8.96382 5.10232C8.86302 5.20361 8.83395 5.35596 8.89033 5.48726C8.94606 5.61894 9.07631 5.70346 9.21926 5.70071H9.34872C10.1155 5.69932 10.8751 5.84789 11.5848 6.13815C11.7158 6.19207 11.8664 6.16164 11.9662 6.06117L14.6013 3.42963C15.4217 2.60922 16.7518 2.60922 17.5722 3.42963C18.3926 4.25004 18.3926 5.58019 17.5722 6.4006L14.2898 9.6795L14.2618 9.71099L13.114 10.8518C12.2943 11.6705 10.9663 11.6705 10.1465 10.8518C9.59408 10.3319 8.73233 10.3319 8.17991 10.8518C7.9407 11.0915 7.79648 11.4098 7.77397 11.7476C7.74838 12.1485 7.89621 12.5411 8.17991 12.8254C8.58494 13.2322 9.05884 13.5639 9.57964 13.8053C9.65313 13.8402 9.72661 13.8682 9.8001 13.8997C9.87359 13.9312 9.95056 13.9557 10.024 13.9837C10.0975 14.0117 10.1745 14.0362 10.248 14.0572L10.4545 14.1132C10.5944 14.1482 10.7344 14.1762 10.8779 14.2007C11.0507 14.2263 11.2247 14.2427 11.3993 14.2497H11.6442H11.6652L11.8752 14.2252C11.9522 14.2217 12.0327 14.2042 12.1237 14.2042H12.2426L12.4841 14.1692L12.5961 14.1482L12.799 14.1062H12.8375C13.6971 13.8903 14.482 13.4452 15.1086 12.8184L19.5633 8.36375C21.4768 6.45042 21.4768 3.34831 19.5634 1.43499Z" fill="white"/>
</g>
<defs>
<clipPath id="clip0_161_234">
<rect width="21" height="21" fill="white"/>
</clipPath>
</defs>
</svg>
