<svg width="290" height="290" viewBox="0 0 290 290" fill="none" xmlns="http://www.w3.org/2000/svg">
<circle cx="145" cy="145" r="144" stroke="#D71921" stroke-width="2"/>
<g clip-path="url(#clip0_153_453)">
<path d="M109.247 118.312H78.2704C89.0265 91.7424 115.075 73 145.5 73C185.539 73 218 105.461 218 145.5C218 185.539 185.539 218 145.5 218C115.075 218 89.0265 199.258 78.2704 172.688C74.872 164.293 73 155.115 73 145.5H145.5V172.688H109.247C117.514 183.693 130.674 190.812 145.5 190.812C170.527 190.812 190.812 170.527 190.812 145.5C190.812 120.473 170.527 100.188 145.5 100.188C130.674 100.188 117.514 107.307 109.247 118.312Z" fill="white"/>
</g>
<defs>
<clipPath id="clip0_153_453">
<rect width="145" height="145" fill="white" transform="translate(73 73)"/>
</clipPath>
</defs>
</svg>
