<svg width="21" height="21" viewBox="0 0 21 21" fill="none" xmlns="http://www.w3.org/2000/svg">
<g clip-path="url(#clip0_240_598)">
<path d="M13.6592 4.71984V6.59966L10.1434 10.1155C9.93507 10.3167 9.92931 10.6485 10.1304 10.8568C10.3316 11.0649 10.6634 11.0707 10.8717 10.8696C10.876 10.8654 10.8804 10.8611 10.8845 10.8568L14.4005 7.34083H16.2802C16.4192 7.34083 16.5525 7.28571 16.6507 7.18734L19.796 4.04212C20.0007 3.83736 20.0007 3.50539 19.796 3.30063C19.6976 3.20242 19.5643 3.14731 19.4254 3.14715H17.8528V1.57461C17.8527 1.2851 17.618 1.05054 17.3285 1.05054C17.1895 1.05054 17.0562 1.10582 16.9579 1.20403L13.8126 4.34925C13.7144 4.44747 13.6592 4.58093 13.6592 4.71984Z" fill="white"/>
<path d="M12.1506 6.62562C10.0176 5.72071 7.55505 6.71646 6.65014 8.84943C5.74524 10.9824 6.74099 13.4451 8.87396 14.3498C11.0069 15.2548 13.4696 14.2592 14.3744 12.126C14.8187 11.079 14.8187 9.89645 14.3744 8.84943L11.6258 11.598C11.0205 12.2209 10.025 12.2353 9.40203 11.6302C8.77911 11.0249 8.76469 10.0293 9.36983 9.40635C9.3804 9.39545 9.39114 9.38488 9.40203 9.3743L12.1506 6.62562Z" fill="white"/>
<path d="M19.7625 5.55829L18.194 7.12665C20.0576 11.3766 18.1233 16.3326 13.8734 18.1962C9.62367 20.0599 4.66767 18.1254 2.80387 13.8756C0.940224 9.62572 2.87468 4.66972 7.1246 2.80608C9.27536 1.86288 11.7227 1.86288 13.8734 2.80608L15.4416 1.23739C10.3262 -1.49158 3.96704 0.442878 1.23807 5.55829C-1.49107 10.6735 0.443391 17.0329 5.5588 19.762C10.6742 22.491 17.0334 20.5565 19.7625 15.4411C21.41 12.3528 21.41 8.64663 19.7625 5.55829Z" fill="white"/>
<path d="M12.6107 4.71984C12.6101 4.30552 12.7738 3.90786 13.0662 3.61434C9.25463 2.18841 5.00888 4.12223 3.58279 7.93379C2.15686 11.7454 4.09068 15.9911 7.90224 17.4172C11.7138 18.8431 15.9596 16.9093 17.3856 13.0977C18.0086 11.4328 18.0086 9.59877 17.3856 7.93379C17.0921 8.22619 16.6945 8.39009 16.2802 8.38929H15.3116C16.4804 11.0499 15.2713 14.1541 12.6107 15.3228C9.9503 16.4918 6.84593 15.2825 5.67715 12.6221C4.5082 9.9615 5.71752 6.85729 8.37793 5.68835C9.72679 5.09587 11.262 5.09587 12.6107 5.68835V4.71984Z" fill="white"/>
</g>
<defs>
<clipPath id="clip0_240_598">
<rect width="21" height="21" fill="white"/>
</clipPath>
</defs>
</svg>
