<svg width="14" height="17" viewBox="0 0 14 17" fill="none" xmlns="http://www.w3.org/2000/svg">
<path d="M9.02558 5.42C8.42558 5.25666 7.55891 5.16333 6.64891 5.16333C4.99225 5.16333 3.98225 5.44666 3.72891 5.62666C3.78225 7.03333 5.01225 8.56666 6.64891 8.56666C8.28558 8.56666 9.51225 7.03666 9.56891 5.63333C9.49225 5.58333 9.33225 5.50333 9.02558 5.42Z" fill="white"/>
<path d="M11.7722 14.7L11.9022 14.63C12.9689 14.05 13.5122 12.82 13.2189 11.64L12.6156 9.19333C12.4256 8.42667 11.8756 7.79667 11.1489 7.5L10.4022 7.2C10.5789 6.9 10.7522 6.46 10.9256 5.88C11.2189 4.88333 10.4489 3.23667 9.55891 2.04333C9.09891 1.43 7.89558 0 6.64891 0C5.40224 0 4.19891 1.43 3.73891 2.04333C2.84891 3.23667 2.07891 4.88333 2.37224 5.88C2.54558 6.46 2.71891 6.9 2.89558 7.2L2.14891 7.5C1.42224 7.79667 0.872242 8.42667 0.682242 9.19333L0.0789084 11.64C-0.214425 12.82 0.328908 14.05 1.39558 14.63L1.52558 14.7V15.6933C1.52558 15.8 1.54891 15.9033 1.57891 16H1.15891C0.972242 16 0.825575 16.1467 0.825575 16.3333C0.825575 16.5167 0.972242 16.6667 1.15891 16.6667H12.1389C12.3256 16.6667 12.4722 16.5167 12.4722 16.3333C12.4722 16.1467 12.3256 16 12.1389 16H11.7189C11.7489 15.9033 11.7722 15.8 11.7722 15.6933V14.7ZM2.49891 9.09667C1.96224 9.09667 1.52558 9.53333 1.52558 10.07V13.9233C0.848909 13.4533 0.522242 12.6133 0.725575 11.8L1.33224 9.35333C1.46891 8.79333 1.86891 8.33333 2.39891 8.12L3.57891 7.64333C3.71891 7.58667 3.80224 7.44333 3.78558 7.29333C3.77224 7.17667 3.69558 7.07667 3.58891 7.03C3.54224 6.98333 3.32558 6.73333 3.03224 5.75C3.08224 5.04667 4.65224 4.49667 6.64891 4.49667C7.63224 4.49667 8.58224 4.63667 9.25558 4.88333C9.62558 5.01667 10.2356 5.31 10.2656 5.75333C9.96891 6.73333 9.75558 6.98333 9.70891 7.03C9.60224 7.07667 9.52558 7.17667 9.51224 7.29333C9.49558 7.44333 9.57891 7.58667 9.71891 7.64333L10.8989 8.12C11.4289 8.33333 11.8289 8.79333 11.9656 9.35333L12.5722 11.8C12.7756 12.6133 12.4489 13.4533 11.7722 13.9233V10.07C11.7722 9.53333 11.3356 9.09667 10.7989 9.09667H2.49891Z" fill="white"/>
</svg>
