<svg width="4000" height="4000" viewBox="0 0 4000 4000" fill="none" xmlns="http://www.w3.org/2000/svg">
<rect width="4000" height="4000" fill="#111111"/>
<path d="M1095.6 2659H1032.32L1128.73 2379.73H1204.82L1301.1 2659H1237.82L1167.87 2443.55H1165.69L1095.6 2659ZM1091.64 2549.23H1241.1V2595.32H1091.64V2549.23ZM1467.94 2569.82V2449.55H1526.03V2659H1470.26V2620.95H1468.07C1463.35 2633.23 1455.48 2643.09 1444.48 2650.55C1433.57 2658 1420.26 2661.73 1404.53 2661.73C1390.53 2661.73 1378.21 2658.55 1367.57 2652.18C1356.94 2645.82 1348.62 2636.77 1342.62 2625.05C1336.71 2613.32 1333.71 2599.27 1333.62 2582.91V2449.55H1391.71V2572.55C1391.8 2584.91 1395.12 2594.68 1401.66 2601.86C1408.21 2609.05 1416.98 2612.64 1427.98 2612.64C1434.98 2612.64 1441.53 2611.05 1447.62 2607.86C1453.71 2604.59 1458.62 2599.77 1462.35 2593.41C1466.16 2587.05 1468.03 2579.18 1467.94 2569.82ZM1683.9 2449.55V2493.18H1557.77V2449.55H1683.9ZM1586.4 2399.36H1644.49V2594.64C1644.49 2600 1645.31 2604.18 1646.95 2607.18C1648.59 2610.09 1650.86 2612.14 1653.77 2613.32C1656.77 2614.5 1660.22 2615.09 1664.13 2615.09C1666.86 2615.09 1669.59 2614.86 1672.31 2614.41C1675.04 2613.86 1677.13 2613.45 1678.59 2613.18L1687.72 2656.41C1684.81 2657.32 1680.72 2658.36 1675.45 2659.55C1670.18 2660.82 1663.77 2661.59 1656.22 2661.86C1642.22 2662.41 1629.95 2660.55 1619.4 2656.27C1608.95 2652 1600.81 2645.36 1594.99 2636.36C1589.18 2627.36 1586.31 2616 1586.4 2602.27V2399.36ZM1814.13 2663.09C1792.95 2663.09 1774.63 2658.59 1759.18 2649.59C1743.81 2640.5 1731.95 2627.86 1723.59 2611.68C1715.22 2595.41 1711.04 2576.55 1711.04 2555.09C1711.04 2533.45 1715.22 2514.55 1723.59 2498.36C1731.95 2482.09 1743.81 2469.45 1759.18 2460.45C1774.63 2451.36 1792.95 2446.82 1814.13 2446.82C1835.31 2446.82 1853.59 2451.36 1868.95 2460.45C1884.4 2469.45 1896.31 2482.09 1904.68 2498.36C1913.04 2514.55 1917.22 2533.45 1917.22 2555.09C1917.22 2576.55 1913.04 2595.41 1904.68 2611.68C1896.31 2627.86 1884.4 2640.5 1868.95 2649.59C1853.59 2658.59 1835.31 2663.09 1814.13 2663.09ZM1814.4 2618.09C1824.04 2618.09 1832.09 2615.36 1838.54 2609.91C1844.99 2604.36 1849.86 2596.82 1853.13 2587.27C1856.49 2577.73 1858.18 2566.86 1858.18 2554.68C1858.18 2542.5 1856.49 2531.64 1853.13 2522.09C1849.86 2512.55 1844.99 2505 1838.54 2499.45C1832.09 2493.91 1824.04 2491.14 1814.4 2491.14C1804.68 2491.14 1796.49 2493.91 1789.86 2499.45C1783.31 2505 1778.36 2512.55 1774.99 2522.09C1771.72 2531.64 1770.09 2542.5 1770.09 2554.68C1770.09 2566.86 1771.72 2577.73 1774.99 2587.27C1778.36 2596.82 1783.31 2604.36 1789.86 2609.91C1796.49 2615.36 1804.68 2618.09 1814.4 2618.09ZM2044.96 2659V2379.73H2229.87V2428.41H2104.01V2494.95H2217.6V2543.64H2104.01V2659H2044.96ZM2325.6 2662.95C2312.23 2662.95 2300.32 2660.64 2289.87 2656C2279.41 2651.27 2271.14 2644.32 2265.05 2635.14C2259.05 2625.86 2256.05 2614.32 2256.05 2600.5C2256.05 2588.86 2258.19 2579.09 2262.46 2571.18C2266.73 2563.27 2272.55 2556.91 2279.91 2552.09C2287.28 2547.27 2295.64 2543.64 2305.01 2541.18C2314.46 2538.73 2324.37 2537 2334.73 2536C2346.91 2534.73 2356.73 2533.55 2364.19 2532.45C2371.64 2531.27 2377.05 2529.55 2380.41 2527.27C2383.78 2525 2385.46 2521.64 2385.46 2517.18V2516.36C2385.46 2507.73 2382.73 2501.05 2377.28 2496.32C2371.91 2491.59 2364.28 2489.23 2354.37 2489.23C2343.91 2489.23 2335.6 2491.55 2329.41 2496.18C2323.23 2500.73 2319.14 2506.45 2317.14 2513.36L2263.41 2509C2266.14 2496.27 2271.51 2485.27 2279.51 2476C2287.51 2466.64 2297.82 2459.45 2310.46 2454.45C2323.19 2449.36 2337.91 2446.82 2354.64 2446.82C2366.28 2446.82 2377.41 2448.18 2388.05 2450.91C2398.78 2453.64 2408.28 2457.86 2416.55 2463.59C2424.91 2469.32 2431.51 2476.68 2436.32 2485.68C2441.14 2494.59 2443.55 2505.27 2443.55 2517.73V2659H2388.46V2629.95H2386.82C2383.46 2636.5 2378.96 2642.27 2373.32 2647.27C2367.69 2652.18 2360.91 2656.05 2353.01 2658.86C2345.1 2661.59 2335.96 2662.95 2325.6 2662.95ZM2342.23 2622.86C2350.78 2622.86 2358.32 2621.18 2364.87 2617.82C2371.41 2614.36 2376.55 2609.73 2380.28 2603.91C2384.01 2598.09 2385.87 2591.5 2385.87 2584.14V2561.91C2384.05 2563.09 2381.55 2564.18 2378.37 2565.18C2375.28 2566.09 2371.78 2566.95 2367.87 2567.77C2363.96 2568.5 2360.05 2569.18 2356.14 2569.82C2352.23 2570.36 2348.69 2570.86 2345.51 2571.32C2338.69 2572.32 2332.73 2573.91 2327.64 2576.09C2322.55 2578.27 2318.6 2581.23 2315.78 2584.95C2312.96 2588.59 2311.55 2593.14 2311.55 2598.59C2311.55 2606.5 2314.41 2612.55 2320.14 2616.73C2325.96 2620.82 2333.32 2622.86 2342.23 2622.86ZM2488.62 2659V2449.55H2544.94V2486.09H2547.12C2550.94 2473.09 2557.35 2463.27 2566.35 2456.64C2575.35 2449.91 2585.71 2446.55 2597.44 2446.55C2600.35 2446.55 2603.48 2446.73 2606.85 2447.09C2610.21 2447.45 2613.16 2447.95 2615.71 2448.59V2500.14C2612.98 2499.32 2609.21 2498.59 2604.39 2497.95C2599.57 2497.32 2595.16 2497 2591.16 2497C2582.62 2497 2574.98 2498.86 2568.26 2502.59C2561.62 2506.23 2556.35 2511.32 2552.44 2517.86C2548.62 2524.41 2546.71 2531.95 2546.71 2540.5V2659H2488.62ZM2645.74 2659V2449.55H2701.11V2486.5H2703.56C2707.93 2474.23 2715.2 2464.55 2725.38 2457.45C2735.56 2450.36 2747.74 2446.82 2761.93 2446.82C2776.29 2446.82 2788.52 2450.41 2798.61 2457.59C2808.7 2464.68 2815.43 2474.32 2818.79 2486.5H2820.97C2825.24 2474.5 2832.97 2464.91 2844.15 2457.73C2855.43 2450.45 2868.74 2446.82 2884.11 2446.82C2903.65 2446.82 2919.52 2453.05 2931.7 2465.5C2943.97 2477.86 2950.11 2495.41 2950.11 2518.14V2659H2892.15V2529.59C2892.15 2517.95 2889.06 2509.23 2882.88 2503.41C2876.7 2497.59 2868.97 2494.68 2859.7 2494.68C2849.15 2494.68 2840.93 2498.05 2835.02 2504.77C2829.11 2511.41 2826.15 2520.18 2826.15 2531.09V2659H2769.84V2528.36C2769.84 2518.09 2766.88 2509.91 2760.97 2503.82C2755.15 2497.73 2747.47 2494.68 2737.93 2494.68C2731.47 2494.68 2725.65 2496.32 2720.47 2499.59C2715.38 2502.77 2711.34 2507.27 2708.34 2513.09C2705.34 2518.82 2703.84 2525.55 2703.84 2533.27V2659H2645.74Z" fill="white"/>
<rect x="800" y="2952" width="2400" height="500" rx="250" fill="url(#paint0_linear_268_29)"/>
<path d="M1065.01 3108.82V3295H1014.47V3155.36H1013.38L972.648 3179.73V3136.82L1018.47 3108.82H1065.01ZM1181.06 3297.55C1170.21 3297.55 1159.91 3295.85 1150.15 3292.45C1140.45 3289 1131.84 3283.58 1124.33 3276.18C1116.81 3268.79 1110.91 3259.15 1106.6 3247.27C1102.36 3235.39 1100.27 3221 1100.33 3204.09C1100.39 3189 1102.33 3175.42 1106.15 3163.36C1110.03 3151.3 1115.51 3141.03 1122.6 3132.55C1129.75 3124.06 1138.3 3117.58 1148.24 3113.09C1158.18 3108.55 1169.24 3106.27 1181.42 3106.27C1195.12 3106.27 1207.18 3108.91 1217.6 3114.18C1228.03 3119.45 1236.33 3126.52 1242.51 3135.36C1248.75 3144.15 1252.39 3153.85 1253.42 3164.45H1203.6C1202.45 3159.18 1199.78 3155.33 1195.6 3152.91C1191.48 3150.42 1186.75 3149.18 1181.42 3149.18C1170.81 3149.18 1163.03 3153.79 1158.06 3163C1153.15 3172.21 1150.63 3184.33 1150.51 3199.36H1151.6C1153.97 3193.67 1157.54 3188.79 1162.33 3184.73C1167.12 3180.67 1172.69 3177.55 1179.06 3175.36C1185.42 3173.18 1192.15 3172.09 1199.24 3172.09C1210.51 3172.09 1220.36 3174.64 1228.78 3179.73C1237.27 3184.82 1243.88 3191.79 1248.6 3200.64C1253.33 3209.48 1255.66 3219.61 1255.6 3231C1255.66 3244.33 1252.51 3256 1246.15 3266C1239.84 3276 1231.09 3283.76 1219.88 3289.27C1208.66 3294.79 1195.72 3297.55 1181.06 3297.55ZM1180.69 3259.36C1185.72 3259.36 1190.18 3258.21 1194.06 3255.91C1198 3253.61 1201.06 3250.45 1203.24 3246.45C1205.48 3242.45 1206.57 3237.91 1206.51 3232.82C1206.57 3227.67 1205.48 3223.12 1203.24 3219.18C1201.06 3215.18 1198 3212.03 1194.06 3209.73C1190.18 3207.42 1185.72 3206.27 1180.69 3206.27C1177 3206.27 1173.57 3206.94 1170.42 3208.27C1167.33 3209.55 1164.63 3211.39 1162.33 3213.82C1160.03 3216.18 1158.21 3219 1156.88 3222.27C1155.6 3225.48 1154.94 3229 1154.88 3232.82C1154.94 3237.91 1156.09 3242.45 1158.33 3246.45C1160.57 3250.45 1163.63 3253.61 1167.51 3255.91C1171.39 3258.21 1175.78 3259.36 1180.69 3259.36ZM1320.58 3269.55L1319.85 3279.73C1319.25 3288.45 1317.79 3296.82 1315.49 3304.82C1313.25 3312.82 1310.85 3319.91 1308.31 3326.09C1305.82 3332.27 1303.85 3337.06 1302.4 3340.45H1271.49C1272.46 3337.06 1273.82 3332.15 1275.58 3325.73C1277.4 3319.36 1279.03 3312.15 1280.49 3304.09C1282 3296.09 1282.76 3287.97 1282.76 3279.73V3269.55H1320.58ZM1420.47 3297.55C1405.8 3297.55 1392.77 3295.03 1381.38 3290C1370.04 3284.91 1361.13 3277.91 1354.65 3269C1348.16 3260.09 1344.89 3249.85 1344.83 3238.27H1395.74C1395.8 3241.85 1396.89 3245.06 1399.01 3247.91C1401.19 3250.7 1404.16 3252.88 1407.92 3254.45C1411.68 3256.03 1415.98 3256.82 1420.83 3256.82C1425.5 3256.82 1429.62 3256 1433.19 3254.36C1436.77 3252.67 1439.56 3250.33 1441.56 3247.36C1443.56 3244.39 1444.53 3241 1444.47 3237.18C1444.53 3233.42 1443.38 3230.09 1441.01 3227.18C1438.71 3224.27 1435.47 3222 1431.28 3220.36C1427.1 3218.73 1422.28 3217.91 1416.83 3217.91H1397.92V3183H1416.83C1421.86 3183 1426.28 3182.18 1430.1 3180.55C1433.98 3178.91 1436.98 3176.64 1439.1 3173.73C1441.28 3170.82 1442.34 3167.48 1442.28 3163.73C1442.34 3160.09 1441.47 3156.88 1439.65 3154.09C1437.83 3151.3 1435.28 3149.12 1432.01 3147.55C1428.8 3145.97 1425.07 3145.18 1420.83 3145.18C1416.22 3145.18 1412.1 3146 1408.47 3147.64C1404.89 3149.27 1402.07 3151.55 1400.01 3154.45C1397.95 3157.36 1396.89 3160.7 1396.83 3164.45H1348.47C1348.53 3153.06 1351.65 3143 1357.83 3134.27C1364.07 3125.55 1372.62 3118.7 1383.47 3113.73C1394.31 3108.76 1406.77 3106.27 1420.83 3106.27C1434.59 3106.27 1446.74 3108.61 1457.28 3113.27C1467.89 3117.94 1476.16 3124.36 1482.1 3132.55C1488.1 3140.67 1491.07 3149.97 1491.01 3160.45C1491.13 3170.88 1487.56 3179.42 1480.28 3186.09C1473.07 3192.76 1463.92 3196.7 1452.83 3197.91V3199.36C1467.86 3201 1479.16 3205.61 1486.74 3213.18C1494.31 3220.7 1498.04 3230.15 1497.92 3241.55C1497.98 3252.45 1494.71 3262.12 1488.1 3270.55C1481.56 3278.97 1472.44 3285.58 1460.74 3290.36C1449.1 3295.15 1435.68 3297.55 1420.47 3297.55ZM1596.49 3297.55C1581.46 3297.55 1568.03 3295.21 1556.22 3290.55C1544.46 3285.88 1535.19 3279.55 1528.4 3271.55C1521.67 3263.55 1518.31 3254.52 1518.31 3244.45C1518.31 3236.76 1520.22 3229.73 1524.03 3223.36C1527.91 3217 1533.13 3211.73 1539.67 3207.55C1546.22 3203.3 1553.52 3200.58 1561.58 3199.36V3197.91C1550.97 3196.09 1542.25 3191.39 1535.4 3183.82C1528.61 3176.18 1525.22 3167.18 1525.22 3156.82C1525.22 3147.06 1528.31 3138.39 1534.49 3130.82C1540.67 3123.18 1549.13 3117.18 1559.85 3112.82C1570.58 3108.45 1582.79 3106.27 1596.49 3106.27C1610.19 3106.27 1622.4 3108.48 1633.12 3112.91C1643.85 3117.27 1652.31 3123.27 1658.49 3130.91C1664.67 3138.48 1667.76 3147.12 1667.76 3156.82C1667.76 3167.24 1664.31 3176.24 1657.4 3183.82C1650.49 3191.39 1641.82 3196.09 1631.4 3197.91V3199.36C1639.4 3200.58 1646.67 3203.3 1653.22 3207.55C1659.76 3211.73 1664.97 3217 1668.85 3223.36C1672.73 3229.73 1674.67 3236.76 1674.67 3244.45C1674.67 3254.52 1671.28 3263.55 1664.49 3271.55C1657.76 3279.55 1648.49 3285.88 1636.67 3290.55C1624.91 3295.21 1611.52 3297.55 1596.49 3297.55ZM1596.49 3262.64C1601.28 3262.64 1605.52 3261.67 1609.22 3259.73C1612.91 3257.79 1615.82 3255.12 1617.94 3251.73C1620.13 3248.27 1621.22 3244.39 1621.22 3240.09C1621.22 3235.79 1620.13 3231.97 1617.94 3228.64C1615.82 3225.3 1612.91 3222.7 1609.22 3220.82C1605.52 3218.88 1601.28 3217.91 1596.49 3217.91C1591.76 3217.91 1587.52 3218.88 1583.76 3220.82C1580.06 3222.7 1577.13 3225.3 1574.94 3228.64C1572.82 3231.97 1571.76 3235.79 1571.76 3240.09C1571.76 3244.39 1572.82 3248.24 1574.94 3251.64C1577.13 3255.03 1580.06 3257.73 1583.76 3259.73C1587.52 3261.67 1591.76 3262.64 1596.49 3262.64ZM1596.49 3183C1600.73 3183 1604.49 3182.12 1607.76 3180.36C1611.03 3178.61 1613.61 3176.18 1615.49 3173.09C1617.37 3170 1618.31 3166.52 1618.31 3162.64C1618.31 3158.76 1617.37 3155.33 1615.49 3152.36C1613.61 3149.33 1611.03 3146.97 1607.76 3145.27C1604.49 3143.52 1600.73 3142.64 1596.49 3142.64C1592.31 3142.64 1588.55 3143.52 1585.22 3145.27C1581.94 3146.97 1579.37 3149.33 1577.49 3152.36C1575.61 3155.33 1574.67 3158.76 1574.67 3162.64C1574.67 3166.52 1575.61 3170 1577.49 3173.09C1579.37 3176.12 1581.94 3178.55 1585.22 3180.36C1588.55 3182.12 1592.31 3183 1596.49 3183ZM1695.42 3265.91V3226.64L1770.33 3108.82H1805.97V3161.18H1785.6L1745.24 3225.18V3226.64H1855.78V3265.91H1695.42ZM1785.97 3295V3253.91L1787.06 3236.82V3108.82H1834.33V3295H1785.97ZM2048.53 3170.27C2047.75 3167.06 2046.5 3164.24 2044.81 3161.82C2043.11 3159.33 2040.99 3157.24 2038.44 3155.55C2035.96 3153.79 2033.05 3152.48 2029.72 3151.64C2026.44 3150.73 2022.84 3150.27 2018.9 3150.27C2010.41 3150.27 2003.17 3152.3 1997.17 3156.36C1991.23 3160.42 1986.69 3166.27 1983.53 3173.91C1980.44 3181.55 1978.9 3190.76 1978.9 3201.55C1978.9 3212.45 1980.38 3221.79 1983.35 3229.55C1986.32 3237.3 1990.75 3243.24 1996.62 3247.36C2002.5 3251.48 2009.81 3253.55 2018.53 3253.55C2026.23 3253.55 2032.63 3252.42 2037.72 3250.18C2042.87 3247.94 2046.72 3244.76 2049.26 3240.64C2051.81 3236.52 2053.08 3231.67 2053.08 3226.09L2061.81 3227H2019.26V3191H2101.81V3216.82C2101.81 3233.79 2098.2 3248.3 2090.99 3260.36C2083.84 3272.36 2073.96 3281.58 2061.35 3288C2048.81 3294.36 2034.41 3297.55 2018.17 3297.55C2000.05 3297.55 1984.14 3293.7 1970.44 3286C1956.75 3278.3 1946.05 3267.33 1938.35 3253.09C1930.72 3238.85 1926.9 3221.91 1926.9 3202.27C1926.9 3186.88 1929.23 3173.24 1933.9 3161.36C1938.63 3149.48 1945.17 3139.45 1953.53 3131.27C1961.9 3123.03 1971.56 3116.82 1982.53 3112.64C1993.5 3108.39 2005.26 3106.27 2017.81 3106.27C2028.84 3106.27 2039.08 3107.85 2048.53 3111C2058.05 3114.09 2066.44 3118.52 2073.72 3124.27C2081.05 3129.97 2086.96 3136.73 2091.44 3144.55C2095.93 3152.36 2098.66 3160.94 2099.62 3170.27H2048.53ZM2125.38 3295V3108.82H2175.92V3254.27H2251.19V3295H2125.38ZM2230.24 3108.82H2286.6L2322.97 3184.45H2324.42L2360.78 3108.82H2417.15L2348.78 3236.45V3295H2298.6V3236.45L2230.24 3108.82ZM2433.62 3295V3108.82H2513.99C2527.81 3108.82 2539.9 3111.55 2550.26 3117C2560.63 3122.45 2568.69 3130.12 2574.44 3140C2580.2 3149.88 2583.08 3161.42 2583.08 3174.64C2583.08 3187.97 2580.11 3199.52 2574.17 3209.27C2568.29 3219.03 2560.02 3226.55 2549.35 3231.82C2538.75 3237.09 2526.35 3239.73 2512.17 3239.73H2464.17V3200.45H2501.99C2507.93 3200.45 2512.99 3199.42 2517.17 3197.36C2521.41 3195.24 2524.66 3192.24 2526.9 3188.36C2529.2 3184.48 2530.35 3179.91 2530.35 3174.64C2530.35 3169.3 2529.2 3164.76 2526.9 3161C2524.66 3157.18 2521.41 3154.27 2517.17 3152.27C2512.99 3150.21 2507.93 3149.18 2501.99 3149.18H2484.17V3295H2433.62ZM2601.62 3295V3108.82H2652.17V3181.55H2719.08V3108.82H2769.62V3295H2719.08V3222.27H2652.17V3295H2601.62ZM2885.62 3100.09L2825.62 3323H2783.08L2843.08 3100.09H2885.62ZM3027.49 3200.82H2981.31C2981.06 3197.97 2980.06 3195.52 2978.31 3193.45C2976.55 3191.39 2974.28 3189.82 2971.49 3188.73C2968.76 3187.58 2965.73 3187 2962.4 3187C2958.09 3187 2954.4 3187.79 2951.31 3189.36C2948.22 3190.94 2946.7 3193.18 2946.76 3196.09C2946.7 3198.15 2947.58 3200.06 2949.4 3201.82C2951.28 3203.58 2954.88 3204.94 2960.22 3205.91L2988.58 3211C3002.88 3213.61 3013.52 3218 3020.49 3224.18C3027.52 3230.3 3031.06 3238.52 3031.12 3248.82C3031.06 3258.76 3028.09 3267.39 3022.22 3274.73C3016.4 3282 3008.43 3287.64 2998.31 3291.64C2988.25 3295.58 2976.76 3297.55 2963.85 3297.55C2942.52 3297.55 2925.82 3293.18 2913.76 3284.45C2901.76 3275.73 2895.06 3264.21 2893.67 3249.91H2943.49C2944.16 3254.33 2946.34 3257.76 2950.03 3260.18C2953.79 3262.55 2958.52 3263.73 2964.22 3263.73C2968.82 3263.73 2972.61 3262.94 2975.58 3261.36C2978.61 3259.79 2980.16 3257.55 2980.22 3254.64C2980.16 3251.97 2978.82 3249.85 2976.22 3248.27C2973.67 3246.7 2969.67 3245.42 2964.22 3244.45L2939.49 3240.09C2925.25 3237.61 2914.58 3232.88 2907.49 3225.91C2900.4 3218.94 2896.88 3209.97 2896.94 3199C2896.88 3189.3 2899.43 3181.09 2904.58 3174.36C2909.79 3167.58 2917.22 3162.42 2926.85 3158.91C2936.55 3155.33 2948.03 3153.55 2961.31 3153.55C2981.49 3153.55 2997.4 3157.73 3009.03 3166.09C3020.73 3174.45 3026.88 3186.03 3027.49 3200.82Z" fill="white"/>
<path d="M2391.56 1853.21H1609.26C1589.3 1853.21 1572.89 1869.62 1572.89 1889.58V1971.06C1572.89 1991.02 1589.3 2007.43 1609.26 2007.43H2391.29C2411.25 2007.43 2427.66 1991.02 2427.66 1971.06H2427.93V1889.58C2427.93 1869.62 2411.52 1853.21 2391.56 1853.21ZM1864.92 1925.4H1644.8C1635.78 1925.4 1628.95 1918.56 1628.95 1909.54C1628.95 1900.52 1636.33 1893.68 1644.8 1893.68H1864.92C1873.4 1893.68 1880.78 1900.52 1880.78 1909.54C1880.78 1918.29 1873.4 1925.4 1864.92 1925.4ZM2182.11 1925.4H2169.8C2160.78 1925.4 2153.95 1918.56 2153.95 1909.54C2153.95 1900.52 2161.33 1893.68 2169.8 1893.68H2182.11C2191.13 1893.68 2197.97 1900.52 2197.97 1909.54C2198.24 1918.29 2190.86 1925.4 2182.11 1925.4ZM2239.8 1925.4H2227.5C2218.48 1925.4 2211.64 1918.56 2211.64 1909.54C2211.64 1900.52 2219.02 1893.68 2227.5 1893.68H2239.8C2248.83 1893.68 2255.66 1900.52 2255.66 1909.54C2255.66 1918.29 2248.55 1925.4 2239.8 1925.4ZM2297.5 1925.4H2285.2C2276.17 1925.4 2269.34 1918.56 2269.34 1909.54C2269.34 1900.52 2276.72 1893.68 2285.2 1893.68H2297.5C2306.52 1893.68 2313.36 1900.52 2313.36 1909.54C2313.36 1918.29 2305.98 1925.4 2297.5 1925.4ZM2355.47 1925.4H2343.16C2334.14 1925.4 2327.3 1918.56 2327.3 1909.54C2327.3 1900.52 2334.69 1893.68 2343.16 1893.68H2355.47C2363.95 1893.68 2371.33 1900.52 2371.33 1909.54C2371.6 1918.29 2364.22 1925.4 2355.47 1925.4Z" fill="white"/>
<path d="M2391.56 1491.73H1609.26C1589.3 1491.73 1572.89 1508.13 1572.89 1528.09V1609.58C1572.89 1629.54 1589.3 1645.95 1609.26 1645.95H2391.29C2411.25 1645.95 2427.66 1629.54 2427.66 1609.58H2427.93V1528.09C2427.93 1508.13 2411.52 1491.73 2391.56 1491.73ZM1864.92 1563.37H1644.8C1635.78 1563.37 1628.95 1555.98 1628.95 1547.51C1628.95 1538.48 1636.33 1531.65 1644.8 1531.65H1864.92C1873.4 1531.65 1880.78 1539.03 1880.78 1547.51C1880.78 1556.26 1873.4 1563.37 1864.92 1563.37ZM2182.11 1563.37H2169.8C2160.78 1563.37 2153.95 1555.98 2153.95 1547.51C2153.95 1538.48 2161.33 1531.65 2169.8 1531.65H2182.11C2191.13 1531.65 2197.97 1539.03 2197.97 1547.51C2198.24 1556.26 2190.86 1563.37 2182.11 1563.37ZM2239.8 1563.37H2227.5C2218.48 1563.37 2211.64 1555.98 2211.64 1547.51C2211.64 1538.48 2219.02 1531.65 2227.5 1531.65H2239.8C2248.83 1531.65 2255.66 1539.03 2255.66 1547.51C2255.66 1556.26 2248.55 1563.37 2239.8 1563.37ZM2297.5 1563.37H2285.2C2276.17 1563.37 2269.34 1555.98 2269.34 1547.51C2269.34 1538.48 2276.72 1531.65 2285.2 1531.65H2297.5C2306.52 1531.65 2313.36 1539.03 2313.36 1547.51C2313.36 1556.26 2305.98 1563.37 2297.5 1563.37ZM2355.47 1563.37H2343.16C2334.14 1563.37 2327.3 1555.98 2327.3 1547.51C2327.3 1538.48 2334.69 1531.65 2343.16 1531.65H2355.47C2363.95 1531.65 2371.05 1539.03 2371.33 1547.51C2371.6 1556.26 2364.22 1563.37 2355.47 1563.37Z" fill="white"/>
<path d="M2391.56 1310.44H1609.26C1589.3 1310.44 1572.89 1326.84 1572.89 1346.8V1428.29C1572.89 1448.25 1589.3 1464.66 1609.26 1464.66H2391.29C2411.25 1464.66 2427.66 1448.25 2427.66 1428.29H2427.93V1346.8C2427.93 1326.84 2411.52 1310.44 2391.56 1310.44ZM1864.92 1382.62H1644.8C1635.78 1382.62 1628.95 1375.24 1628.95 1366.77C1628.95 1357.74 1636.33 1350.91 1644.8 1350.91H1864.92C1873.4 1350.91 1880.78 1358.29 1880.78 1366.77C1880.78 1375.52 1873.4 1382.62 1864.92 1382.62ZM2182.11 1382.62H2169.8C2160.78 1382.62 2153.95 1375.24 2153.95 1366.77C2153.95 1357.74 2161.33 1350.91 2169.8 1350.91H2182.11C2191.13 1350.91 2197.97 1358.29 2197.97 1366.77C2198.24 1375.52 2190.86 1382.62 2182.11 1382.62ZM2239.8 1382.62H2227.5C2218.48 1382.62 2211.64 1375.24 2211.64 1366.77C2211.64 1357.74 2219.02 1350.91 2227.5 1350.91H2239.8C2248.83 1350.91 2255.66 1358.29 2255.66 1366.77C2255.66 1375.52 2248.55 1382.62 2239.8 1382.62ZM2297.5 1382.62H2285.2C2276.17 1382.62 2269.34 1375.24 2269.34 1366.77C2269.34 1357.74 2276.72 1350.91 2285.2 1350.91H2297.5C2306.52 1350.91 2313.36 1358.29 2313.36 1366.77C2313.36 1375.52 2305.98 1382.62 2297.5 1382.62ZM2355.47 1382.62H2343.16C2334.14 1382.62 2327.3 1375.24 2327.3 1366.77C2327.3 1357.74 2334.69 1350.91 2343.16 1350.91H2355.47C2363.95 1350.91 2371.05 1358.29 2371.33 1366.77C2371.6 1375.52 2364.22 1382.62 2355.47 1382.62Z" fill="white"/>
<path d="M2391.56 948.953H1609.26C1589.3 948.953 1572.89 965.359 1572.89 985.32V1066.8C1572.89 1086.77 1589.3 1103.17 1609.26 1103.17H2391.29C2411.25 1103.17 2427.66 1086.77 2427.66 1066.8H2427.93V985.32C2427.93 965.359 2411.52 948.953 2391.56 948.953ZM1864.92 1020.87H1644.8C1635.78 1020.87 1628.95 1014.03 1628.95 1005.01C1628.95 995.984 1636.33 989.148 1644.8 989.148H1864.92C1873.4 989.148 1880.78 995.984 1880.78 1005.01C1880.78 1014.03 1873.4 1020.87 1864.92 1020.87ZM2182.11 1020.87H2169.8C2160.78 1020.87 2153.95 1014.03 2153.95 1005.01C2153.95 995.984 2161.33 989.148 2169.8 989.148H2182.11C2191.13 989.148 2197.97 995.984 2197.97 1005.01C2198.24 1014.03 2190.86 1020.87 2182.11 1020.87ZM2239.8 1020.87H2227.5C2218.48 1020.87 2211.64 1014.03 2211.64 1005.01C2211.64 995.984 2219.02 989.148 2227.5 989.148H2239.8C2248.83 989.148 2255.66 995.984 2255.66 1005.01C2255.66 1014.03 2248.55 1020.87 2239.8 1020.87ZM2297.5 1020.87H2285.2C2276.17 1020.87 2269.34 1014.03 2269.34 1005.01C2269.34 995.984 2276.72 989.148 2285.2 989.148H2297.5C2306.52 989.148 2313.36 995.984 2313.36 1005.01C2313.36 1014.03 2305.98 1020.87 2297.5 1020.87ZM2355.47 1020.87H2343.16C2334.14 1020.87 2327.3 1014.03 2327.3 1005.01C2327.3 995.984 2334.69 989.148 2343.16 989.148H2355.47C2363.95 989.148 2371.33 995.984 2371.33 1005.01C2371.6 1014.03 2364.22 1020.87 2355.47 1020.87Z" fill="white"/>
<path d="M2391.56 1129.7H1609.26C1589.3 1129.7 1572.89 1146.1 1572.89 1166.06V1247.55C1572.89 1267.51 1589.3 1283.91 1609.26 1283.91H2391.29C2411.25 1283.91 2427.66 1267.51 2427.66 1247.55H2427.93V1166.06C2427.93 1146.1 2411.52 1129.7 2391.56 1129.7ZM1864.92 1201.61H1644.8C1635.78 1201.61 1628.95 1194.77 1628.95 1185.75C1628.95 1176.73 1636.33 1169.89 1644.8 1169.89H1864.92C1873.4 1169.89 1880.78 1176.73 1880.78 1185.75C1880.78 1194.77 1873.4 1201.61 1864.92 1201.61ZM2182.11 1201.61H2169.8C2160.78 1201.61 2153.95 1194.77 2153.95 1185.75C2153.95 1176.73 2161.33 1169.89 2169.8 1169.89H2182.11C2191.13 1169.89 2197.97 1176.73 2197.97 1185.75C2198.24 1194.77 2190.86 1201.61 2182.11 1201.61ZM2239.8 1201.61H2227.5C2218.48 1201.61 2211.64 1194.77 2211.64 1185.75C2211.64 1176.73 2219.02 1169.89 2227.5 1169.89H2239.8C2248.83 1169.89 2255.66 1176.73 2255.66 1185.75C2255.66 1194.77 2248.55 1201.61 2239.8 1201.61ZM2297.5 1201.61H2285.2C2276.17 1201.61 2269.34 1194.77 2269.34 1185.75C2269.34 1176.73 2276.72 1169.89 2285.2 1169.89H2297.5C2306.52 1169.89 2313.36 1176.73 2313.36 1185.75C2313.36 1194.77 2305.98 1201.61 2297.5 1201.61ZM2355.47 1201.61H2343.16C2334.14 1201.61 2327.3 1194.77 2327.3 1185.75C2327.3 1176.73 2334.69 1169.89 2343.16 1169.89H2355.47C2363.95 1169.89 2371.33 1176.73 2371.33 1185.75C2371.6 1194.77 2364.22 1201.61 2355.47 1201.61Z" fill="white"/>
<path d="M2391.56 1672.47H1609.26C1589.3 1672.47 1572.89 1688.88 1572.89 1708.84V1790.32C1572.89 1810.28 1589.3 1826.69 1609.26 1826.69H2391.29C2411.25 1826.69 2427.66 1810.28 2427.66 1790.32H2427.93V1708.84C2427.93 1688.88 2411.52 1672.47 2391.56 1672.47ZM1864.92 1744.38H1644.8C1635.78 1744.38 1628.95 1737 1628.95 1728.52C1628.95 1719.5 1636.33 1712.66 1644.8 1712.66H1864.92C1873.4 1712.66 1880.78 1719.5 1880.78 1728.52C1880.78 1737.55 1873.4 1744.38 1864.92 1744.38ZM2182.11 1744.38H2169.8C2160.78 1744.38 2153.95 1737 2153.95 1728.52C2153.95 1719.5 2161.33 1712.66 2169.8 1712.66H2182.11C2191.13 1712.66 2197.97 1719.5 2197.97 1728.52C2198.24 1737.55 2190.86 1744.38 2182.11 1744.38ZM2239.8 1744.38H2227.5C2218.48 1744.38 2211.64 1737 2211.64 1728.52C2211.64 1719.5 2219.02 1712.66 2227.5 1712.66H2239.8C2248.83 1712.66 2255.66 1719.5 2255.66 1728.52C2255.66 1737.55 2248.55 1744.38 2239.8 1744.38ZM2297.5 1744.38H2285.2C2276.17 1744.38 2269.34 1737 2269.34 1728.52C2269.34 1719.5 2276.72 1712.66 2285.2 1712.66H2297.5C2306.52 1712.66 2313.36 1719.5 2313.36 1728.52C2313.36 1737.55 2305.98 1744.38 2297.5 1744.38ZM2355.47 1744.38H2343.16C2334.14 1744.38 2327.3 1737 2327.3 1728.52C2327.3 1719.5 2334.69 1712.66 2343.16 1712.66H2355.47C2363.95 1712.66 2371.05 1719.5 2371.33 1728.52C2371.6 1737.55 2364.22 1744.38 2355.47 1744.38Z" fill="white"/>
<path d="M2411.25 687H1588.75C1535.16 687 1491.68 730.477 1491.68 784.07V1989.93C1491.68 2043.52 1535.16 2087 1588.75 2087H2411.25C2464.84 2087 2508.32 2043.52 2508.32 1989.93V784.07C2508.32 730.477 2464.84 687 2411.25 687ZM2458.55 1976.53C2458.55 2010.44 2430.66 2038.33 2396.76 2038.33H1602.97C1569.06 2038.33 1541.17 2010.44 1541.17 1976.53V797.469C1541.17 763.563 1569.06 735.672 1602.97 735.672H2396.76C2431.21 735.672 2458.83 763.563 2458.55 797.469V1976.53Z" fill="white"/>
<path d="M2391.56 767.664H1609.26C1589.3 767.664 1572.89 784.07 1572.89 804.031V885.516C1572.89 905.477 1589.3 921.883 1609.26 921.883H2391.29C2411.25 921.883 2427.66 905.477 2427.66 885.516H2427.93V804.031C2427.93 784.07 2411.52 767.664 2391.56 767.664ZM1864.92 839.578H1644.8C1635.78 839.578 1628.95 832.742 1628.95 823.719C1628.95 814.695 1636.33 807.859 1644.8 807.859H1864.92C1873.4 807.859 1880.78 814.695 1880.78 823.719C1880.78 832.742 1873.4 839.578 1864.92 839.578ZM2182.11 839.578H2169.8C2160.78 839.578 2153.95 832.742 2153.95 823.719C2153.95 814.695 2161.33 807.859 2169.8 807.859H2182.11C2191.13 807.859 2197.97 814.695 2197.97 823.719C2198.24 832.742 2190.86 839.578 2182.11 839.578ZM2239.8 839.578H2227.5C2218.48 839.578 2211.64 832.742 2211.64 823.719C2211.64 814.695 2219.02 807.859 2227.5 807.859H2239.8C2248.83 807.859 2255.66 814.695 2255.66 823.719C2255.66 832.742 2248.55 839.578 2239.8 839.578ZM2297.5 839.578H2285.2C2276.17 839.578 2269.34 832.742 2269.34 823.719C2269.34 814.695 2276.72 807.859 2285.2 807.859H2297.5C2306.52 807.859 2313.36 814.695 2313.36 823.719C2313.36 832.742 2305.98 839.578 2297.5 839.578ZM2355.47 839.578H2343.16C2334.14 839.578 2327.3 832.742 2327.3 823.719C2327.3 814.695 2334.69 807.859 2343.16 807.859H2355.47C2363.95 807.859 2371.33 814.695 2371.33 823.719C2371.6 832.742 2364.22 839.578 2355.47 839.578Z" fill="white"/>
<defs>
<linearGradient id="paint0_linear_268_29" x1="312.174" y1="2785.5" x2="3481.18" y2="3858.97" gradientUnits="userSpaceOnUse">
<stop stop-color="#F7BA2C"/>
<stop offset="1" stop-color="#EA5459"/>
</linearGradient>
</defs>
</svg>
