<svg width="4000" height="4000" viewBox="0 0 4000 4000" fill="none" xmlns="http://www.w3.org/2000/svg">
<rect width="4000" height="4000" fill="#111111"/>
<path d="M1095.6 2659H1032.32L1128.73 2379.73H1204.82L1301.1 2659H1237.82L1167.87 2443.55H1165.69L1095.6 2659ZM1091.64 2549.23H1241.1V2595.32H1091.64V2549.23ZM1467.94 2569.82V2449.55H1526.03V2659H1470.26V2620.95H1468.07C1463.35 2633.23 1455.48 2643.09 1444.48 2650.55C1433.57 2658 1420.26 2661.73 1404.53 2661.73C1390.53 2661.73 1378.21 2658.55 1367.57 2652.18C1356.94 2645.82 1348.62 2636.77 1342.62 2625.05C1336.71 2613.32 1333.71 2599.27 1333.62 2582.91V2449.55H1391.71V2572.55C1391.8 2584.91 1395.12 2594.68 1401.66 2601.86C1408.21 2609.05 1416.98 2612.64 1427.98 2612.64C1434.98 2612.64 1441.53 2611.05 1447.62 2607.86C1453.71 2604.59 1458.62 2599.77 1462.35 2593.41C1466.16 2587.05 1468.03 2579.18 1467.94 2569.82ZM1683.9 2449.55V2493.18H1557.77V2449.55H1683.9ZM1586.4 2399.36H1644.49V2594.64C1644.49 2600 1645.31 2604.18 1646.95 2607.18C1648.59 2610.09 1650.86 2612.14 1653.77 2613.32C1656.77 2614.5 1660.22 2615.09 1664.13 2615.09C1666.86 2615.09 1669.59 2614.86 1672.31 2614.41C1675.04 2613.86 1677.13 2613.45 1678.59 2613.18L1687.72 2656.41C1684.81 2657.32 1680.72 2658.36 1675.45 2659.55C1670.18 2660.82 1663.77 2661.59 1656.22 2661.86C1642.22 2662.41 1629.95 2660.55 1619.4 2656.27C1608.95 2652 1600.81 2645.36 1594.99 2636.36C1589.18 2627.36 1586.31 2616 1586.4 2602.27V2399.36ZM1814.13 2663.09C1792.95 2663.09 1774.63 2658.59 1759.18 2649.59C1743.81 2640.5 1731.95 2627.86 1723.59 2611.68C1715.22 2595.41 1711.04 2576.55 1711.04 2555.09C1711.04 2533.45 1715.22 2514.55 1723.59 2498.36C1731.95 2482.09 1743.81 2469.45 1759.18 2460.45C1774.63 2451.36 1792.95 2446.82 1814.13 2446.82C1835.31 2446.82 1853.59 2451.36 1868.95 2460.45C1884.4 2469.45 1896.31 2482.09 1904.68 2498.36C1913.04 2514.55 1917.22 2533.45 1917.22 2555.09C1917.22 2576.55 1913.04 2595.41 1904.68 2611.68C1896.31 2627.86 1884.4 2640.5 1868.95 2649.59C1853.59 2658.59 1835.31 2663.09 1814.13 2663.09ZM1814.4 2618.09C1824.04 2618.09 1832.09 2615.36 1838.54 2609.91C1844.99 2604.36 1849.86 2596.82 1853.13 2587.27C1856.49 2577.73 1858.18 2566.86 1858.18 2554.68C1858.18 2542.5 1856.49 2531.64 1853.13 2522.09C1849.86 2512.55 1844.99 2505 1838.54 2499.45C1832.09 2493.91 1824.04 2491.14 1814.4 2491.14C1804.68 2491.14 1796.49 2493.91 1789.86 2499.45C1783.31 2505 1778.36 2512.55 1774.99 2522.09C1771.72 2531.64 1770.09 2542.5 1770.09 2554.68C1770.09 2566.86 1771.72 2577.73 1774.99 2587.27C1778.36 2596.82 1783.31 2604.36 1789.86 2609.91C1796.49 2615.36 1804.68 2618.09 1814.4 2618.09ZM2044.96 2659V2379.73H2229.87V2428.41H2104.01V2494.95H2217.6V2543.64H2104.01V2659H2044.96ZM2325.6 2662.95C2312.23 2662.95 2300.32 2660.64 2289.87 2656C2279.41 2651.27 2271.14 2644.32 2265.05 2635.14C2259.05 2625.86 2256.05 2614.32 2256.05 2600.5C2256.05 2588.86 2258.19 2579.09 2262.46 2571.18C2266.73 2563.27 2272.55 2556.91 2279.91 2552.09C2287.28 2547.27 2295.64 2543.64 2305.01 2541.18C2314.46 2538.73 2324.37 2537 2334.73 2536C2346.91 2534.73 2356.73 2533.55 2364.19 2532.45C2371.64 2531.27 2377.05 2529.55 2380.41 2527.27C2383.78 2525 2385.46 2521.64 2385.46 2517.18V2516.36C2385.46 2507.73 2382.73 2501.05 2377.28 2496.32C2371.91 2491.59 2364.28 2489.23 2354.37 2489.23C2343.91 2489.23 2335.6 2491.55 2329.41 2496.18C2323.23 2500.73 2319.14 2506.45 2317.14 2513.36L2263.41 2509C2266.14 2496.27 2271.51 2485.27 2279.51 2476C2287.51 2466.64 2297.82 2459.45 2310.46 2454.45C2323.19 2449.36 2337.91 2446.82 2354.64 2446.82C2366.28 2446.82 2377.41 2448.18 2388.05 2450.91C2398.78 2453.64 2408.28 2457.86 2416.55 2463.59C2424.91 2469.32 2431.51 2476.68 2436.32 2485.68C2441.14 2494.59 2443.55 2505.27 2443.55 2517.73V2659H2388.46V2629.95H2386.82C2383.46 2636.5 2378.96 2642.27 2373.32 2647.27C2367.69 2652.18 2360.91 2656.05 2353.01 2658.86C2345.1 2661.59 2335.96 2662.95 2325.6 2662.95ZM2342.23 2622.86C2350.78 2622.86 2358.32 2621.18 2364.87 2617.82C2371.41 2614.36 2376.55 2609.73 2380.28 2603.91C2384.01 2598.09 2385.87 2591.5 2385.87 2584.14V2561.91C2384.05 2563.09 2381.55 2564.18 2378.37 2565.18C2375.28 2566.09 2371.78 2566.95 2367.87 2567.77C2363.96 2568.5 2360.05 2569.18 2356.14 2569.82C2352.23 2570.36 2348.69 2570.86 2345.51 2571.32C2338.69 2572.32 2332.73 2573.91 2327.64 2576.09C2322.55 2578.27 2318.6 2581.23 2315.78 2584.95C2312.96 2588.59 2311.55 2593.14 2311.55 2598.59C2311.55 2606.5 2314.41 2612.55 2320.14 2616.73C2325.96 2620.82 2333.32 2622.86 2342.23 2622.86ZM2488.62 2659V2449.55H2544.94V2486.09H2547.12C2550.94 2473.09 2557.35 2463.27 2566.35 2456.64C2575.35 2449.91 2585.71 2446.55 2597.44 2446.55C2600.35 2446.55 2603.48 2446.73 2606.85 2447.09C2610.21 2447.45 2613.16 2447.95 2615.71 2448.59V2500.14C2612.98 2499.32 2609.21 2498.59 2604.39 2497.95C2599.57 2497.32 2595.16 2497 2591.16 2497C2582.62 2497 2574.98 2498.86 2568.26 2502.59C2561.62 2506.23 2556.35 2511.32 2552.44 2517.86C2548.62 2524.41 2546.71 2531.95 2546.71 2540.5V2659H2488.62ZM2645.74 2659V2449.55H2701.11V2486.5H2703.56C2707.93 2474.23 2715.2 2464.55 2725.38 2457.45C2735.56 2450.36 2747.74 2446.82 2761.93 2446.82C2776.29 2446.82 2788.52 2450.41 2798.61 2457.59C2808.7 2464.68 2815.43 2474.32 2818.79 2486.5H2820.97C2825.24 2474.5 2832.97 2464.91 2844.15 2457.73C2855.43 2450.45 2868.74 2446.82 2884.11 2446.82C2903.65 2446.82 2919.52 2453.05 2931.7 2465.5C2943.97 2477.86 2950.11 2495.41 2950.11 2518.14V2659H2892.15V2529.59C2892.15 2517.95 2889.06 2509.23 2882.88 2503.41C2876.7 2497.59 2868.97 2494.68 2859.7 2494.68C2849.15 2494.68 2840.93 2498.05 2835.02 2504.77C2829.11 2511.41 2826.15 2520.18 2826.15 2531.09V2659H2769.84V2528.36C2769.84 2518.09 2766.88 2509.91 2760.97 2503.82C2755.15 2497.73 2747.47 2494.68 2737.93 2494.68C2731.47 2494.68 2725.65 2496.32 2720.47 2499.59C2715.38 2502.77 2711.34 2507.27 2708.34 2513.09C2705.34 2518.82 2703.84 2525.55 2703.84 2533.27V2659H2645.74Z" fill="white"/>
<rect x="800" y="2952" width="2400" height="500" rx="250" fill="#675084"/>
<path d="M1155.76 3110.82V3297H1105.22V3157.36H1104.12L1063.4 3181.73V3138.82L1109.22 3110.82H1155.76ZM1233.83 3271.55L1233.1 3281.73C1232.5 3290.45 1231.04 3298.82 1228.74 3306.82C1226.5 3314.82 1224.1 3321.91 1221.56 3328.09C1219.07 3334.27 1217.1 3339.06 1215.65 3342.45H1184.74C1185.71 3339.06 1187.07 3334.15 1188.83 3327.73C1190.65 3321.36 1192.28 3314.15 1193.74 3306.09C1195.25 3298.09 1196.01 3289.97 1196.01 3281.73V3271.55H1233.83ZM1339.08 3302.09C1322.17 3302.03 1307.56 3298.12 1295.26 3290.36C1282.96 3282.61 1273.47 3271.42 1266.81 3256.82C1260.14 3242.21 1256.84 3224.7 1256.9 3204.27C1256.96 3183.79 1260.29 3166.39 1266.9 3152.09C1273.56 3137.79 1283.02 3126.91 1295.26 3119.45C1307.56 3112 1322.17 3108.27 1339.08 3108.27C1355.99 3108.27 1370.59 3112.03 1382.9 3119.55C1395.2 3127 1404.69 3137.88 1411.35 3152.18C1418.02 3166.48 1421.32 3183.85 1421.26 3204.27C1421.26 3224.82 1417.93 3242.39 1411.26 3257C1404.59 3271.61 1395.11 3282.79 1382.81 3290.55C1370.56 3298.24 1355.99 3302.09 1339.08 3302.09ZM1339.08 3261C1347.81 3261 1354.96 3256.45 1360.53 3247.36C1366.17 3238.21 1368.96 3223.85 1368.9 3204.27C1368.9 3191.48 1367.63 3181.03 1365.08 3172.91C1362.53 3164.79 1359.02 3158.79 1354.53 3154.91C1350.05 3150.97 1344.9 3149 1339.08 3149C1330.35 3149 1323.23 3153.42 1317.72 3162.27C1312.2 3171.12 1309.38 3185.12 1309.26 3204.27C1309.2 3217.3 1310.44 3228.03 1312.99 3236.45C1315.53 3244.82 1319.05 3251 1323.53 3255C1328.08 3259 1333.26 3261 1339.08 3261ZM1444.99 3297V3260.64L1514.44 3203.18C1519.05 3199.36 1522.99 3195.79 1526.26 3192.45C1529.59 3189.06 1532.14 3185.58 1533.9 3182C1535.72 3178.42 1536.62 3174.45 1536.62 3170.09C1536.62 3165.3 1535.59 3161.21 1533.53 3157.82C1531.53 3154.42 1528.75 3151.82 1525.17 3150C1521.59 3148.12 1517.47 3147.18 1512.81 3147.18C1508.14 3147.18 1504.02 3148.12 1500.44 3150C1496.93 3151.88 1494.2 3154.64 1492.26 3158.27C1490.32 3161.91 1489.35 3166.33 1489.35 3171.55H1441.35C1441.35 3158.45 1444.29 3147.18 1450.17 3137.73C1456.05 3128.27 1464.35 3121 1475.08 3115.91C1485.81 3110.82 1498.38 3108.27 1512.81 3108.27C1527.72 3108.27 1540.63 3110.67 1551.53 3115.45C1562.5 3120.18 1570.96 3126.85 1576.9 3135.45C1582.9 3144.06 1585.9 3154.15 1585.9 3165.73C1585.9 3172.88 1584.41 3180 1581.44 3187.09C1578.47 3194.12 1573.14 3201.91 1565.44 3210.45C1557.75 3219 1546.81 3229.18 1532.62 3241L1515.17 3255.55V3256.64H1587.9V3297H1444.99ZM1604.67 3267.91V3228.64L1679.58 3110.82H1715.22V3163.18H1694.85L1654.49 3227.18V3228.64H1765.03V3267.91H1604.67ZM1695.22 3297V3255.91L1696.31 3238.82V3110.82H1743.58V3297H1695.22ZM1957.78 3172.27C1957 3169.06 1955.75 3166.24 1954.06 3163.82C1952.36 3161.33 1950.24 3159.24 1947.69 3157.55C1945.21 3155.79 1942.3 3154.48 1938.97 3153.64C1935.69 3152.73 1932.09 3152.27 1928.15 3152.27C1919.66 3152.27 1912.42 3154.3 1906.42 3158.36C1900.48 3162.42 1895.94 3168.27 1892.78 3175.91C1889.69 3183.55 1888.15 3192.76 1888.15 3203.55C1888.15 3214.45 1889.63 3223.79 1892.6 3231.55C1895.57 3239.3 1900 3245.24 1905.88 3249.36C1911.75 3253.48 1919.06 3255.55 1927.78 3255.55C1935.48 3255.55 1941.88 3254.42 1946.97 3252.18C1952.12 3249.94 1955.97 3246.76 1958.51 3242.64C1961.06 3238.52 1962.33 3233.67 1962.33 3228.09L1971.06 3229H1928.51V3193H2011.06V3218.82C2011.06 3235.79 2007.45 3250.3 2000.24 3262.36C1993.09 3274.36 1983.21 3283.58 1970.6 3290C1958.06 3296.36 1943.66 3299.55 1927.42 3299.55C1909.3 3299.55 1893.39 3295.7 1879.69 3288C1866 3280.3 1855.3 3269.33 1847.6 3255.09C1839.97 3240.85 1836.15 3223.91 1836.15 3204.27C1836.15 3188.88 1838.48 3175.24 1843.15 3163.36C1847.88 3151.48 1854.42 3141.45 1862.78 3133.27C1871.15 3125.03 1880.81 3118.82 1891.78 3114.64C1902.75 3110.39 1914.51 3108.27 1927.06 3108.27C1938.09 3108.27 1948.33 3109.85 1957.78 3113C1967.3 3116.09 1975.69 3120.52 1982.97 3126.27C1990.3 3131.97 1996.21 3138.73 2000.69 3146.55C2005.18 3154.36 2007.91 3162.94 2008.88 3172.27H1957.78ZM2034.62 3297V3110.82H2085.17V3256.27H2160.44V3297H2034.62ZM2139.49 3110.82H2195.85L2232.22 3186.45H2233.67L2270.03 3110.82H2326.4L2258.03 3238.45V3297H2207.85V3238.45L2139.49 3110.82ZM2342.88 3297V3110.82H2423.24C2437.06 3110.82 2449.15 3113.55 2459.51 3119C2469.88 3124.45 2477.94 3132.12 2483.69 3142C2489.45 3151.88 2492.33 3163.42 2492.33 3176.64C2492.33 3189.97 2489.36 3201.52 2483.42 3211.27C2477.54 3221.03 2469.27 3228.55 2458.6 3233.82C2448 3239.09 2435.6 3241.73 2421.42 3241.73H2373.42V3202.45H2411.24C2417.18 3202.45 2422.24 3201.42 2426.42 3199.36C2430.66 3197.24 2433.91 3194.24 2436.15 3190.36C2438.45 3186.48 2439.6 3181.91 2439.6 3176.64C2439.6 3171.3 2438.45 3166.76 2436.15 3163C2433.91 3159.18 2430.66 3156.27 2426.42 3154.27C2422.24 3152.21 2417.18 3151.18 2411.24 3151.18H2393.42V3297H2342.88ZM2510.88 3297V3110.82H2561.42V3183.55H2628.33V3110.82H2678.88V3297H2628.33V3224.27H2561.42V3297H2510.88ZM2794.88 3102.09L2734.88 3325H2692.33L2752.33 3102.09H2794.88ZM2936.74 3202.82H2890.56C2890.31 3199.97 2889.31 3197.52 2887.56 3195.45C2885.8 3193.39 2883.53 3191.82 2880.74 3190.73C2878.01 3189.58 2874.98 3189 2871.65 3189C2867.34 3189 2863.65 3189.79 2860.56 3191.36C2857.47 3192.94 2855.95 3195.18 2856.01 3198.09C2855.95 3200.15 2856.83 3202.06 2858.65 3203.82C2860.53 3205.58 2864.13 3206.94 2869.47 3207.91L2897.83 3213C2912.13 3215.61 2922.77 3220 2929.74 3226.18C2936.77 3232.3 2940.31 3240.52 2940.38 3250.82C2940.31 3260.76 2937.34 3269.39 2931.47 3276.73C2925.65 3284 2917.68 3289.64 2907.56 3293.64C2897.5 3297.58 2886.01 3299.55 2873.1 3299.55C2851.77 3299.55 2835.07 3295.18 2823.01 3286.45C2811.01 3277.73 2804.31 3266.21 2802.92 3251.91H2852.74C2853.41 3256.33 2855.59 3259.76 2859.28 3262.18C2863.04 3264.55 2867.77 3265.73 2873.47 3265.73C2878.07 3265.73 2881.86 3264.94 2884.83 3263.36C2887.86 3261.79 2889.41 3259.55 2889.47 3256.64C2889.41 3253.97 2888.07 3251.85 2885.47 3250.27C2882.92 3248.7 2878.92 3247.42 2873.47 3246.45L2848.74 3242.09C2834.5 3239.61 2823.83 3234.88 2816.74 3227.91C2809.65 3220.94 2806.13 3211.97 2806.19 3201C2806.13 3191.3 2808.68 3183.09 2813.83 3176.36C2819.04 3169.58 2826.47 3164.42 2836.1 3160.91C2845.8 3157.33 2857.28 3155.55 2870.56 3155.55C2890.74 3155.55 2906.65 3159.73 2918.28 3168.09C2929.98 3176.45 2936.13 3188.03 2936.74 3202.82Z" fill="white"/>
<path d="M1754.11 1610C1766.4 1601.72 1769.61 1585.15 1761.59 1572.86C1753.04 1560.03 1742.08 1539.19 1734.07 1511.93C1749.57 1507.92 1763.73 1501.51 1776.29 1492.69C1811.03 1513.8 1843.1 1524.22 1864.73 1528.5C1876.5 1531.7 1893.34 1523.69 1896.27 1507.65C1899.21 1493.22 1890.13 1479.06 1875.43 1476.12C1859.93 1472.91 1837.75 1465.97 1812.89 1452.34C1820.64 1439.24 1826.26 1424.81 1829.19 1409.31C1860.73 1401.83 1891.2 1388.74 1917.11 1371.9C1929.4 1363.88 1932.89 1347.32 1924.86 1335.02C1916.59 1322.46 1900.02 1318.99 1887.73 1327.27C1874.9 1335.83 1854.05 1346.78 1826.79 1354.53C1822.78 1339.3 1816.38 1325.14 1807.56 1312.84L1808.35 1312.04C1829.74 1276.77 1839.08 1244.43 1843.36 1223.59C1846.3 1209.16 1836.68 1195 1822.25 1192.33C1807.56 1189.39 1793.66 1198.74 1790.99 1213.17C1788.05 1228.13 1781.1 1250.58 1767.2 1275.97C1753.58 1267.95 1738.87 1262.34 1722.57 1259.67C1722.85 1256.99 1722.85 1254.05 1722.04 1251.38C1712.42 1215.04 1697.46 1187.78 1686.5 1171.48C1678.49 1159.19 1661.91 1155.72 1649.62 1164C1637.33 1172.02 1633.86 1188.58 1641.87 1200.88C1650.43 1213.44 1661.65 1234.28 1669.4 1262.07C1653.9 1266.08 1639.73 1272.49 1626.91 1281.31C1625.84 1280.51 1625.04 1279.44 1623.97 1278.64C1590.03 1258.6 1559.03 1249.51 1538.73 1245.24C1524.29 1242.3 1510.14 1251.65 1507.19 1266.08C1504.25 1280.51 1513.61 1294.67 1528.04 1297.61C1542.73 1300.82 1565.17 1307.5 1590.31 1321.4C1582.28 1334.76 1576.94 1349.45 1574.53 1365.49C1572.93 1365.49 1571.32 1365.22 1569.72 1365.75C1531.51 1375.37 1503.46 1390.87 1486.35 1402.1C1474.06 1410.12 1470.58 1426.68 1478.86 1438.97C1486.89 1451.8 1503.98 1454.21 1515.75 1446.73C1528.3 1438.44 1549.15 1427.22 1576.67 1419.47C1580.68 1434.7 1587.36 1449.13 1596.44 1461.69C1595.37 1462.76 1594.31 1463.56 1593.78 1464.63C1573.2 1499.1 1564.11 1530.1 1560.1 1550.14C1557.42 1564.84 1566.78 1578.74 1581.21 1581.67C1597.51 1584.35 1610.07 1573.93 1612.47 1560.56C1615.41 1545.87 1622.37 1523.42 1636.26 1498.03C1649.36 1505.78 1663.79 1511.39 1679.28 1514.07C1688.9 1554.42 1704.93 1584.35 1716.96 1602.52C1724.71 1614.28 1740.75 1618.55 1754.11 1610Z" fill="white"/>
<path d="M2607.36 1327.27C2594.53 1335.83 2573.7 1346.78 2546.44 1354.53C2542.43 1339.3 2536.01 1325.14 2527.19 1312.84C2527.46 1312.58 2527.73 1312.31 2528 1312.04C2549.37 1276.77 2558.73 1244.43 2563.01 1223.59C2565.94 1209.16 2556.33 1195 2541.9 1192.33C2527.19 1189.39 2513.29 1198.74 2510.62 1213.17C2507.68 1228.13 2500.74 1250.58 2486.85 1275.97C2473.21 1267.95 2458.52 1262.34 2442.22 1259.67C2442.48 1256.99 2442.48 1254.05 2441.69 1251.38C2432.07 1215.04 2417.09 1187.78 2406.14 1171.48C2398.12 1159.19 2381.56 1155.72 2369.27 1164C2356.96 1172.02 2353.49 1188.58 2361.52 1200.88C2370.06 1213.44 2381.29 1234.28 2389.04 1262.07C2373.54 1266.08 2359.38 1272.49 2346.55 1281.31C2345.48 1280.51 2344.67 1279.44 2343.6 1278.64C2309.68 1258.6 2278.68 1249.51 2258.37 1245.24C2243.94 1242.3 2229.77 1251.65 2226.84 1266.08C2223.9 1280.51 2233.24 1294.67 2247.67 1297.61C2262.38 1300.82 2284.82 1307.5 2309.94 1321.4C2301.93 1334.76 2296.58 1349.45 2294.18 1365.49C2292.57 1365.49 2290.97 1365.22 2289.36 1365.75C2251.14 1375.37 2223.09 1390.87 2205.98 1402.1C2193.69 1410.12 2190.22 1426.68 2198.51 1438.97C2206.52 1451.8 2223.63 1454.21 2235.38 1446.73C2247.95 1438.44 2268.79 1427.22 2296.32 1419.47C2300.32 1434.7 2307 1449.13 2316.08 1461.69C2315.01 1462.76 2313.94 1463.56 2313.41 1464.63C2292.83 1499.1 2283.75 1530.1 2279.75 1550.14C2277.07 1564.84 2286.43 1578.74 2300.86 1581.67C2317.15 1584.35 2329.72 1573.93 2332.12 1560.56C2335.06 1545.87 2342.01 1523.42 2355.91 1498.03C2369 1505.78 2383.43 1511.39 2398.93 1514.07C2408.54 1554.42 2424.58 1584.35 2436.61 1602.52C2444.36 1614.28 2460.38 1618.55 2473.75 1610C2486.04 1601.72 2489.25 1585.15 2481.24 1572.86C2472.68 1560.03 2461.73 1539.18 2453.7 1511.93C2469.21 1507.92 2483.38 1501.51 2495.93 1492.69C2530.66 1513.8 2562.73 1524.22 2584.38 1528.5C2596.14 1531.7 2612.97 1523.69 2615.92 1507.65C2618.85 1493.22 2609.77 1479.06 2595.07 1476.12C2579.57 1472.91 2557.38 1465.97 2532.54 1452.34C2540.29 1439.24 2545.9 1424.81 2548.84 1409.31C2580.38 1401.83 2610.83 1388.74 2636.76 1371.9C2649.05 1363.88 2652.53 1347.32 2644.51 1335.02C2636.22 1322.46 2619.65 1318.99 2607.36 1327.27Z" fill="white"/>
<path d="M2770.37 930.711H1284.32V779.994C1284.32 728.687 1242.36 687 1191.06 687H1158.72C1144.03 687 1132 698.758 1132 713.723C1132 728.42 1144.03 740.445 1158.72 740.445H1191.06C1212.98 740.445 1230.88 758.082 1230.88 779.994V2060.28C1230.88 2074.97 1242.91 2087 1257.6 2087C1272.29 2087 1284.32 2074.97 1284.32 2060.28V1843.29H1518.94V1927.47C1518.94 1958.46 1544.06 1983.58 1575.06 1983.58H2134.37C2165.36 1983.58 2190.49 1958.46 2190.49 1927.47V1843.29H2770.37C2824.88 1843.29 2868.97 1799.2 2868.97 1744.68V1029.32C2868.97 974.802 2824.88 930.711 2770.37 930.711ZM1701.74 1688.3C1535.79 1688.3 1400.57 1553.62 1400.57 1387.13C1400.57 1220.38 1535.52 1085.7 1701.74 1085.7C1868.75 1085.7 2002.89 1220.92 2002.89 1387.13C2002.89 1554.42 1867.15 1688.3 1701.74 1688.3ZM2421.37 1688.3C2255.42 1688.3 2120.2 1553.62 2120.2 1387.13C2120.2 1220.38 2255.16 1085.7 2421.37 1085.7C2588.39 1085.7 2722.53 1220.92 2722.53 1387.13C2722.53 1554.42 2586.78 1688.3 2421.37 1688.3Z" fill="white"/>
</svg>
