<svg width="4000" height="4000" viewBox="0 0 4000 4000" fill="none" xmlns="http://www.w3.org/2000/svg">
<rect width="4000" height="4000" fill="#111111"/>
<path d="M1095.6 2659H1032.32L1128.73 2379.73H1204.82L1301.1 2659H1237.82L1167.87 2443.55H1165.69L1095.6 2659ZM1091.64 2549.23H1241.1V2595.32H1091.64V2549.23ZM1467.94 2569.82V2449.55H1526.03V2659H1470.26V2620.95H1468.07C1463.35 2633.23 1455.48 2643.09 1444.48 2650.55C1433.57 2658 1420.26 2661.73 1404.53 2661.73C1390.53 2661.73 1378.21 2658.55 1367.57 2652.18C1356.94 2645.82 1348.62 2636.77 1342.62 2625.05C1336.71 2613.32 1333.71 2599.27 1333.62 2582.91V2449.55H1391.71V2572.55C1391.8 2584.91 1395.12 2594.68 1401.66 2601.86C1408.21 2609.05 1416.98 2612.64 1427.98 2612.64C1434.98 2612.64 1441.53 2611.05 1447.62 2607.86C1453.71 2604.59 1458.62 2599.77 1462.35 2593.41C1466.16 2587.05 1468.03 2579.18 1467.94 2569.82ZM1683.9 2449.55V2493.18H1557.77V2449.55H1683.9ZM1586.4 2399.36H1644.49V2594.64C1644.49 2600 1645.31 2604.18 1646.95 2607.18C1648.59 2610.09 1650.86 2612.14 1653.77 2613.32C1656.77 2614.5 1660.22 2615.09 1664.13 2615.09C1666.86 2615.09 1669.59 2614.86 1672.31 2614.41C1675.04 2613.86 1677.13 2613.45 1678.59 2613.18L1687.72 2656.41C1684.81 2657.32 1680.72 2658.36 1675.45 2659.55C1670.18 2660.82 1663.77 2661.59 1656.22 2661.86C1642.22 2662.41 1629.95 2660.55 1619.4 2656.27C1608.95 2652 1600.81 2645.36 1594.99 2636.36C1589.18 2627.36 1586.31 2616 1586.4 2602.27V2399.36ZM1814.13 2663.09C1792.95 2663.09 1774.63 2658.59 1759.18 2649.59C1743.81 2640.5 1731.95 2627.86 1723.59 2611.68C1715.22 2595.41 1711.04 2576.55 1711.04 2555.09C1711.04 2533.45 1715.22 2514.55 1723.59 2498.36C1731.95 2482.09 1743.81 2469.45 1759.18 2460.45C1774.63 2451.36 1792.95 2446.82 1814.13 2446.82C1835.31 2446.82 1853.59 2451.36 1868.95 2460.45C1884.4 2469.45 1896.31 2482.09 1904.68 2498.36C1913.04 2514.55 1917.22 2533.45 1917.22 2555.09C1917.22 2576.55 1913.04 2595.41 1904.68 2611.68C1896.31 2627.86 1884.4 2640.5 1868.95 2649.59C1853.59 2658.59 1835.31 2663.09 1814.13 2663.09ZM1814.4 2618.09C1824.04 2618.09 1832.09 2615.36 1838.54 2609.91C1844.99 2604.36 1849.86 2596.82 1853.13 2587.27C1856.49 2577.73 1858.18 2566.86 1858.18 2554.68C1858.18 2542.5 1856.49 2531.64 1853.13 2522.09C1849.86 2512.55 1844.99 2505 1838.54 2499.45C1832.09 2493.91 1824.04 2491.14 1814.4 2491.14C1804.68 2491.14 1796.49 2493.91 1789.86 2499.45C1783.31 2505 1778.36 2512.55 1774.99 2522.09C1771.72 2531.64 1770.09 2542.5 1770.09 2554.68C1770.09 2566.86 1771.72 2577.73 1774.99 2587.27C1778.36 2596.82 1783.31 2604.36 1789.86 2609.91C1796.49 2615.36 1804.68 2618.09 1814.4 2618.09ZM2044.96 2659V2379.73H2229.87V2428.41H2104.01V2494.95H2217.6V2543.64H2104.01V2659H2044.96ZM2325.6 2662.95C2312.23 2662.95 2300.32 2660.64 2289.87 2656C2279.41 2651.27 2271.14 2644.32 2265.05 2635.14C2259.05 2625.86 2256.05 2614.32 2256.05 2600.5C2256.05 2588.86 2258.19 2579.09 2262.46 2571.18C2266.73 2563.27 2272.55 2556.91 2279.91 2552.09C2287.28 2547.27 2295.64 2543.64 2305.01 2541.18C2314.46 2538.73 2324.37 2537 2334.73 2536C2346.91 2534.73 2356.73 2533.55 2364.19 2532.45C2371.64 2531.27 2377.05 2529.55 2380.41 2527.27C2383.78 2525 2385.46 2521.64 2385.46 2517.18V2516.36C2385.46 2507.73 2382.73 2501.05 2377.28 2496.32C2371.91 2491.59 2364.28 2489.23 2354.37 2489.23C2343.91 2489.23 2335.6 2491.55 2329.41 2496.18C2323.23 2500.73 2319.14 2506.45 2317.14 2513.36L2263.41 2509C2266.14 2496.27 2271.51 2485.27 2279.51 2476C2287.51 2466.64 2297.82 2459.45 2310.46 2454.45C2323.19 2449.36 2337.91 2446.82 2354.64 2446.82C2366.28 2446.82 2377.41 2448.18 2388.05 2450.91C2398.78 2453.64 2408.28 2457.86 2416.55 2463.59C2424.91 2469.32 2431.51 2476.68 2436.32 2485.68C2441.14 2494.59 2443.55 2505.27 2443.55 2517.73V2659H2388.46V2629.95H2386.82C2383.46 2636.5 2378.96 2642.27 2373.32 2647.27C2367.69 2652.18 2360.91 2656.05 2353.01 2658.86C2345.1 2661.59 2335.96 2662.95 2325.6 2662.95ZM2342.23 2622.86C2350.78 2622.86 2358.32 2621.18 2364.87 2617.82C2371.41 2614.36 2376.55 2609.73 2380.28 2603.91C2384.01 2598.09 2385.87 2591.5 2385.87 2584.14V2561.91C2384.05 2563.09 2381.55 2564.18 2378.37 2565.18C2375.28 2566.09 2371.78 2566.95 2367.87 2567.77C2363.96 2568.5 2360.05 2569.18 2356.14 2569.82C2352.23 2570.36 2348.69 2570.86 2345.51 2571.32C2338.69 2572.32 2332.73 2573.91 2327.64 2576.09C2322.55 2578.27 2318.6 2581.23 2315.78 2584.95C2312.96 2588.59 2311.55 2593.14 2311.55 2598.59C2311.55 2606.5 2314.41 2612.55 2320.14 2616.73C2325.96 2620.82 2333.32 2622.86 2342.23 2622.86ZM2488.62 2659V2449.55H2544.94V2486.09H2547.12C2550.94 2473.09 2557.35 2463.27 2566.35 2456.64C2575.35 2449.91 2585.71 2446.55 2597.44 2446.55C2600.35 2446.55 2603.48 2446.73 2606.85 2447.09C2610.21 2447.45 2613.16 2447.95 2615.71 2448.59V2500.14C2612.98 2499.32 2609.21 2498.59 2604.39 2497.95C2599.57 2497.32 2595.16 2497 2591.16 2497C2582.62 2497 2574.98 2498.86 2568.26 2502.59C2561.62 2506.23 2556.35 2511.32 2552.44 2517.86C2548.62 2524.41 2546.71 2531.95 2546.71 2540.5V2659H2488.62ZM2645.74 2659V2449.55H2701.11V2486.5H2703.56C2707.93 2474.23 2715.2 2464.55 2725.38 2457.45C2735.56 2450.36 2747.74 2446.82 2761.93 2446.82C2776.29 2446.82 2788.52 2450.41 2798.61 2457.59C2808.7 2464.68 2815.43 2474.32 2818.79 2486.5H2820.97C2825.24 2474.5 2832.97 2464.91 2844.15 2457.73C2855.43 2450.45 2868.74 2446.82 2884.11 2446.82C2903.65 2446.82 2919.52 2453.05 2931.7 2465.5C2943.97 2477.86 2950.11 2495.41 2950.11 2518.14V2659H2892.15V2529.59C2892.15 2517.95 2889.06 2509.23 2882.88 2503.41C2876.7 2497.59 2868.97 2494.68 2859.7 2494.68C2849.15 2494.68 2840.93 2498.05 2835.02 2504.77C2829.11 2511.41 2826.15 2520.18 2826.15 2531.09V2659H2769.84V2528.36C2769.84 2518.09 2766.88 2509.91 2760.97 2503.82C2755.15 2497.73 2747.47 2494.68 2737.93 2494.68C2731.47 2494.68 2725.65 2496.32 2720.47 2499.59C2715.38 2502.77 2711.34 2507.27 2708.34 2513.09C2705.34 2518.82 2703.84 2525.55 2703.84 2533.27V2659H2645.74Z" fill="white"/>
<rect x="800" y="2952" width="2400" height="500" rx="250" fill="#D71921"/>
<path d="M1027.8 3265.91V3226.64L1102.7 3108.82H1138.34V3161.18H1117.98L1077.61 3225.18V3226.64H1188.16V3265.91H1027.8ZM1118.34 3295V3253.91L1119.43 3236.82V3108.82H1166.7V3295H1118.34ZM1258.45 3269.55L1257.73 3279.73C1257.12 3288.45 1255.67 3296.82 1253.36 3304.82C1251.12 3312.82 1248.73 3319.91 1246.18 3326.09C1243.7 3332.27 1241.73 3337.06 1240.27 3340.45H1209.36C1210.33 3337.06 1211.7 3332.15 1213.45 3325.73C1215.27 3319.36 1216.91 3312.15 1218.36 3304.09C1219.88 3296.09 1220.64 3287.97 1220.64 3279.73V3269.55H1258.45ZM1363.7 3300.09C1346.8 3300.03 1332.19 3296.12 1319.89 3288.36C1307.58 3280.61 1298.1 3269.42 1291.43 3254.82C1284.77 3240.21 1281.46 3222.7 1281.52 3202.27C1281.58 3181.79 1284.92 3164.39 1291.52 3150.09C1298.19 3135.79 1307.64 3124.91 1319.89 3117.45C1332.19 3110 1346.8 3106.27 1363.7 3106.27C1380.61 3106.27 1395.22 3110.03 1407.52 3117.55C1419.83 3125 1429.31 3135.88 1435.98 3150.18C1442.64 3164.48 1445.95 3181.85 1445.89 3202.27C1445.89 3222.82 1442.55 3240.39 1435.89 3255C1429.22 3269.61 1419.73 3280.79 1407.43 3288.55C1395.19 3296.24 1380.61 3300.09 1363.7 3300.09ZM1363.7 3259C1372.43 3259 1379.58 3254.45 1385.16 3245.36C1390.8 3236.21 1393.58 3221.85 1393.52 3202.27C1393.52 3189.48 1392.25 3179.03 1389.7 3170.91C1387.16 3162.79 1383.64 3156.79 1379.16 3152.91C1374.67 3148.97 1369.52 3147 1363.7 3147C1354.98 3147 1347.86 3151.42 1342.34 3160.27C1336.83 3169.12 1334.01 3183.12 1333.89 3202.27C1333.83 3215.3 1335.07 3226.03 1337.61 3234.45C1340.16 3242.82 1343.67 3249 1348.16 3253C1352.7 3257 1357.89 3259 1363.7 3259ZM1542.34 3106.27C1553.19 3106.27 1563.46 3108 1573.16 3111.45C1582.86 3114.85 1591.43 3120.21 1598.89 3127.55C1606.4 3134.88 1612.28 3144.45 1616.52 3156.27C1620.83 3168.03 1623.01 3182.27 1623.07 3199C1623.13 3214.27 1621.22 3228 1617.34 3240.18C1613.52 3252.3 1608.04 3262.64 1600.89 3271.18C1593.8 3279.73 1585.25 3286.27 1575.25 3290.82C1565.31 3295.3 1554.22 3297.55 1541.98 3297.55C1528.22 3297.55 1516.13 3294.91 1505.7 3289.64C1495.28 3284.36 1486.98 3277.27 1480.8 3268.36C1474.61 3259.45 1471.01 3249.55 1469.98 3238.64H1519.8C1521.01 3244.27 1523.67 3248.36 1527.8 3250.91C1531.92 3253.39 1536.64 3254.64 1541.98 3254.64C1552.64 3254.64 1560.43 3250.03 1565.34 3240.82C1570.31 3231.55 1572.83 3219.18 1572.89 3203.73H1571.8C1569.43 3209.42 1565.86 3214.3 1561.07 3218.36C1556.28 3222.42 1550.7 3225.55 1544.34 3227.73C1537.98 3229.91 1531.25 3231 1524.16 3231C1512.95 3231 1503.13 3228.48 1494.7 3223.45C1486.28 3218.36 1479.7 3211.42 1474.98 3202.64C1470.25 3193.79 1467.86 3183.73 1467.8 3172.45C1467.73 3159.24 1470.86 3147.67 1477.16 3137.73C1483.46 3127.79 1492.22 3120.06 1503.43 3114.55C1514.64 3109.03 1527.61 3106.27 1542.34 3106.27ZM1542.7 3144.45C1537.67 3144.45 1533.19 3145.61 1529.25 3147.91C1525.37 3150.21 1522.31 3153.33 1520.07 3157.27C1517.89 3161.21 1516.83 3165.67 1516.89 3170.64C1516.95 3175.61 1518.07 3180.06 1520.25 3184C1522.49 3187.94 1525.52 3191.06 1529.34 3193.36C1533.22 3195.67 1537.67 3196.82 1542.7 3196.82C1546.4 3196.82 1549.83 3196.18 1552.98 3194.91C1556.13 3193.58 1558.86 3191.73 1561.16 3189.36C1563.52 3186.94 1565.34 3184.15 1566.61 3181C1567.95 3177.79 1568.58 3174.33 1568.52 3170.64C1568.46 3165.67 1567.31 3161.21 1565.07 3157.27C1562.83 3153.33 1559.77 3150.21 1555.89 3147.91C1552.01 3145.61 1547.61 3144.45 1542.7 3144.45ZM1722.68 3297.55C1711.83 3297.55 1701.53 3295.85 1691.77 3292.45C1682.08 3289 1673.47 3283.58 1665.95 3276.18C1658.44 3268.79 1652.53 3259.15 1648.23 3247.27C1643.98 3235.39 1641.89 3221 1641.95 3204.09C1642.02 3189 1643.95 3175.42 1647.77 3163.36C1651.65 3151.3 1657.14 3141.03 1664.23 3132.55C1671.38 3124.06 1679.92 3117.58 1689.86 3113.09C1699.8 3108.55 1710.86 3106.27 1723.05 3106.27C1736.74 3106.27 1748.8 3108.91 1759.23 3114.18C1769.65 3119.45 1777.95 3126.52 1784.14 3135.36C1790.38 3144.15 1794.02 3153.85 1795.05 3164.45H1745.23C1744.08 3159.18 1741.41 3155.33 1737.23 3152.91C1733.11 3150.42 1728.38 3149.18 1723.05 3149.18C1712.44 3149.18 1704.65 3153.79 1699.68 3163C1694.77 3172.21 1692.26 3184.33 1692.14 3199.36H1693.23C1695.59 3193.67 1699.17 3188.79 1703.95 3184.73C1708.74 3180.67 1714.32 3177.55 1720.68 3175.36C1727.05 3173.18 1733.77 3172.09 1740.86 3172.09C1752.14 3172.09 1761.98 3174.64 1770.41 3179.73C1778.89 3184.82 1785.5 3191.79 1790.23 3200.64C1794.95 3209.48 1797.29 3219.61 1797.23 3231C1797.29 3244.33 1794.14 3256 1787.77 3266C1781.47 3276 1772.71 3283.76 1761.5 3289.27C1750.29 3294.79 1737.35 3297.55 1722.68 3297.55ZM1722.32 3259.36C1727.35 3259.36 1731.8 3258.21 1735.68 3255.91C1739.62 3253.61 1742.68 3250.45 1744.86 3246.45C1747.11 3242.45 1748.2 3237.91 1748.14 3232.82C1748.2 3227.67 1747.11 3223.12 1744.86 3219.18C1742.68 3215.18 1739.62 3212.03 1735.68 3209.73C1731.8 3207.42 1727.35 3206.27 1722.32 3206.27C1718.62 3206.27 1715.2 3206.94 1712.05 3208.27C1708.95 3209.55 1706.26 3211.39 1703.95 3213.82C1701.65 3216.18 1699.83 3219 1698.5 3222.27C1697.23 3225.48 1696.56 3229 1696.5 3232.82C1696.56 3237.91 1697.71 3242.45 1699.95 3246.45C1702.2 3250.45 1705.26 3253.61 1709.14 3255.91C1713.02 3258.21 1717.41 3259.36 1722.32 3259.36ZM1991.66 3170.27C1990.87 3167.06 1989.63 3164.24 1987.93 3161.82C1986.23 3159.33 1984.11 3157.24 1981.57 3155.55C1979.08 3153.79 1976.17 3152.48 1972.84 3151.64C1969.57 3150.73 1965.96 3150.27 1962.02 3150.27C1953.54 3150.27 1946.3 3152.3 1940.3 3156.36C1934.36 3160.42 1929.81 3166.27 1926.66 3173.91C1923.57 3181.55 1922.02 3190.76 1922.02 3201.55C1922.02 3212.45 1923.51 3221.79 1926.48 3229.55C1929.45 3237.3 1933.87 3243.24 1939.75 3247.36C1945.63 3251.48 1952.93 3253.55 1961.66 3253.55C1969.36 3253.55 1975.75 3252.42 1980.84 3250.18C1985.99 3247.94 1989.84 3244.76 1992.39 3240.64C1994.93 3236.52 1996.2 3231.67 1996.2 3226.09L2004.93 3227H1962.39V3191H2044.93V3216.82C2044.93 3233.79 2041.33 3248.3 2034.11 3260.36C2026.96 3272.36 2017.08 3281.58 2004.48 3288C1991.93 3294.36 1977.54 3297.55 1961.3 3297.55C1943.17 3297.55 1927.27 3293.7 1913.57 3286C1899.87 3278.3 1889.17 3267.33 1881.48 3253.09C1873.84 3238.85 1870.02 3221.91 1870.02 3202.27C1870.02 3186.88 1872.36 3173.24 1877.02 3161.36C1881.75 3149.48 1888.3 3139.45 1896.66 3131.27C1905.02 3123.03 1914.69 3116.82 1925.66 3112.64C1936.63 3108.39 1948.39 3106.27 1960.93 3106.27C1971.96 3106.27 1982.2 3107.85 1991.66 3111C2001.17 3114.09 2009.57 3118.52 2016.84 3124.27C2024.17 3129.97 2030.08 3136.73 2034.57 3144.55C2039.05 3152.36 2041.78 3160.94 2042.75 3170.27H1991.66ZM2068.5 3295V3108.82H2119.05V3254.27H2194.32V3295H2068.5ZM2173.36 3108.82H2229.73L2266.09 3184.45H2267.55L2303.91 3108.82H2360.27L2291.91 3236.45V3295H2241.73V3236.45L2173.36 3108.82ZM2376.75 3295V3108.82H2457.11C2470.93 3108.82 2483.02 3111.55 2493.39 3117C2503.75 3122.45 2511.81 3130.12 2517.57 3140C2523.33 3149.88 2526.2 3161.42 2526.2 3174.64C2526.2 3187.97 2523.23 3199.52 2517.3 3209.27C2511.42 3219.03 2503.14 3226.55 2492.48 3231.82C2481.87 3237.09 2469.48 3239.73 2455.3 3239.73H2407.3V3200.45H2445.11C2451.05 3200.45 2456.11 3199.42 2460.3 3197.36C2464.54 3195.24 2467.78 3192.24 2470.02 3188.36C2472.33 3184.48 2473.48 3179.91 2473.48 3174.64C2473.48 3169.3 2472.33 3164.76 2470.02 3161C2467.78 3157.18 2464.54 3154.27 2460.3 3152.27C2456.11 3150.21 2451.05 3149.18 2445.11 3149.18H2427.3V3295H2376.75ZM2544.75 3295V3108.82H2595.3V3181.55H2662.2V3108.82H2712.75V3295H2662.2V3222.27H2595.3V3295H2544.75ZM2828.75 3100.09L2768.75 3323H2726.2L2786.2 3100.09H2828.75ZM2970.61 3200.82H2924.43C2924.19 3197.97 2923.19 3195.52 2921.43 3193.45C2919.67 3191.39 2917.4 3189.82 2914.61 3188.73C2911.89 3187.58 2908.86 3187 2905.52 3187C2901.22 3187 2897.52 3187.79 2894.43 3189.36C2891.34 3190.94 2889.83 3193.18 2889.89 3196.09C2889.83 3198.15 2890.7 3200.06 2892.52 3201.82C2894.4 3203.58 2898.01 3204.94 2903.34 3205.91L2931.7 3211C2946.01 3213.61 2956.64 3218 2963.61 3224.18C2970.64 3230.3 2974.19 3238.52 2974.25 3248.82C2974.19 3258.76 2971.22 3267.39 2965.34 3274.73C2959.52 3282 2951.55 3287.64 2941.43 3291.64C2931.37 3295.58 2919.89 3297.55 2906.98 3297.55C2885.64 3297.55 2868.95 3293.18 2856.89 3284.45C2844.89 3275.73 2838.19 3264.21 2836.8 3249.91H2886.61C2887.28 3254.33 2889.46 3257.76 2893.16 3260.18C2896.92 3262.55 2901.64 3263.73 2907.34 3263.73C2911.95 3263.73 2915.73 3262.94 2918.7 3261.36C2921.73 3259.79 2923.28 3257.55 2923.34 3254.64C2923.28 3251.97 2921.95 3249.85 2919.34 3248.27C2916.8 3246.7 2912.8 3245.42 2907.34 3244.45L2882.61 3240.09C2868.37 3237.61 2857.7 3232.88 2850.61 3225.91C2843.52 3218.94 2840.01 3209.97 2840.07 3199C2840.01 3189.3 2842.55 3181.09 2847.7 3174.36C2852.92 3167.58 2860.34 3162.42 2869.98 3158.91C2879.67 3155.33 2891.16 3153.55 2904.43 3153.55C2924.61 3153.55 2940.52 3157.73 2952.16 3166.09C2963.86 3174.45 2970.01 3186.03 2970.61 3200.82Z" fill="white"/>
<g clip-path="url(#clip0_266_1006)">
<path d="M2281.82 687H1715.62C1655.32 687 1606.25 736.069 1606.25 796.375V1890.48C1606.25 1950.79 1655.32 1999.85 1715.62 1999.85H1753.48V2045.98C1753.48 2068.64 1771.84 2087 1794.49 2087C1817.15 2087 1835.51 2068.64 1835.51 2045.98V1999.85H2161.94V2045.98C2161.94 2068.64 2180.3 2087 2202.95 2087C2225.61 2087 2243.97 2068.64 2243.97 2045.98V1999.85H2281.82C2342.13 1999.85 2391.2 1950.79 2391.2 1890.48V796.375C2391.2 736.069 2342.13 687 2281.82 687ZM1840.79 1170.13C1818.13 1170.13 1799.77 1151.77 1799.77 1129.11C1799.77 1106.46 1818.13 1088.1 1840.79 1088.1H2153.94C2176.59 1088.1 2194.95 1106.46 2194.95 1129.11C2194.95 1151.77 2176.59 1170.13 2153.94 1170.13H1840.79ZM2039.57 1784.57C2039.57 1795.32 2035.22 1805.84 2027.61 1813.47C2019.98 1821.06 2009.47 1825.42 1998.72 1825.42C1987.97 1825.42 1977.45 1821.06 1969.84 1813.47C1962.23 1805.84 1957.87 1795.32 1957.87 1784.57C1957.87 1773.82 1962.23 1763.3 1969.84 1755.67C1977.43 1748.08 1987.97 1743.73 1998.72 1743.73C2009.47 1743.73 2019.98 1748.08 2027.61 1755.67C2035.22 1763.3 2039.57 1773.82 2039.57 1784.57ZM1799.77 963.001C1799.77 940.346 1818.13 921.985 1840.79 921.985H2153.94C2176.59 921.985 2194.95 940.346 2194.95 963.001C2194.95 985.656 2176.59 1004.02 2153.94 1004.02H1840.79C1818.13 1004.02 1799.77 985.656 1799.77 963.001Z" fill="white"/>
</g>
<defs>
<clipPath id="clip0_266_1006">
<rect width="1400" height="1400" fill="white" transform="translate(1300 687)"/>
</clipPath>
</defs>
</svg>
