<svg width="4000" height="4000" viewBox="0 0 4000 4000" fill="none" xmlns="http://www.w3.org/2000/svg">
<rect width="4000" height="4000" fill="#111111"/>
<path d="M1095.6 2659H1032.32L1128.73 2379.73H1204.82L1301.1 2659H1237.82L1167.87 2443.55H1165.69L1095.6 2659ZM1091.64 2549.23H1241.1V2595.32H1091.64V2549.23ZM1467.94 2569.82V2449.55H1526.03V2659H1470.26V2620.95H1468.07C1463.35 2633.23 1455.48 2643.09 1444.48 2650.55C1433.57 2658 1420.26 2661.73 1404.53 2661.73C1390.53 2661.73 1378.21 2658.55 1367.57 2652.18C1356.94 2645.82 1348.62 2636.77 1342.62 2625.05C1336.71 2613.32 1333.71 2599.27 1333.62 2582.91V2449.55H1391.71V2572.55C1391.8 2584.91 1395.12 2594.68 1401.66 2601.86C1408.21 2609.05 1416.98 2612.64 1427.98 2612.64C1434.98 2612.64 1441.53 2611.05 1447.62 2607.86C1453.71 2604.59 1458.62 2599.77 1462.35 2593.41C1466.16 2587.05 1468.03 2579.18 1467.94 2569.82ZM1683.9 2449.55V2493.18H1557.77V2449.55H1683.9ZM1586.4 2399.36H1644.49V2594.64C1644.49 2600 1645.31 2604.18 1646.95 2607.18C1648.59 2610.09 1650.86 2612.14 1653.77 2613.32C1656.77 2614.5 1660.22 2615.09 1664.13 2615.09C1666.86 2615.09 1669.59 2614.86 1672.31 2614.41C1675.04 2613.86 1677.13 2613.45 1678.59 2613.18L1687.72 2656.41C1684.81 2657.32 1680.72 2658.36 1675.45 2659.55C1670.18 2660.82 1663.77 2661.59 1656.22 2661.86C1642.22 2662.41 1629.95 2660.55 1619.4 2656.27C1608.95 2652 1600.81 2645.36 1594.99 2636.36C1589.18 2627.36 1586.31 2616 1586.4 2602.27V2399.36ZM1814.13 2663.09C1792.95 2663.09 1774.63 2658.59 1759.18 2649.59C1743.81 2640.5 1731.95 2627.86 1723.59 2611.68C1715.22 2595.41 1711.04 2576.55 1711.04 2555.09C1711.04 2533.45 1715.22 2514.55 1723.59 2498.36C1731.95 2482.09 1743.81 2469.45 1759.18 2460.45C1774.63 2451.36 1792.95 2446.82 1814.13 2446.82C1835.31 2446.82 1853.59 2451.36 1868.95 2460.45C1884.4 2469.45 1896.31 2482.09 1904.68 2498.36C1913.04 2514.55 1917.22 2533.45 1917.22 2555.09C1917.22 2576.55 1913.04 2595.41 1904.68 2611.68C1896.31 2627.86 1884.4 2640.5 1868.95 2649.59C1853.59 2658.59 1835.31 2663.09 1814.13 2663.09ZM1814.4 2618.09C1824.04 2618.09 1832.09 2615.36 1838.54 2609.91C1844.99 2604.36 1849.86 2596.82 1853.13 2587.27C1856.49 2577.73 1858.18 2566.86 1858.18 2554.68C1858.18 2542.5 1856.49 2531.64 1853.13 2522.09C1849.86 2512.55 1844.99 2505 1838.54 2499.45C1832.09 2493.91 1824.04 2491.14 1814.4 2491.14C1804.68 2491.14 1796.49 2493.91 1789.86 2499.45C1783.31 2505 1778.36 2512.55 1774.99 2522.09C1771.72 2531.64 1770.09 2542.5 1770.09 2554.68C1770.09 2566.86 1771.72 2577.73 1774.99 2587.27C1778.36 2596.82 1783.31 2604.36 1789.86 2609.91C1796.49 2615.36 1804.68 2618.09 1814.4 2618.09ZM2044.96 2659V2379.73H2229.87V2428.41H2104.01V2494.95H2217.6V2543.64H2104.01V2659H2044.96ZM2325.6 2662.95C2312.23 2662.95 2300.32 2660.64 2289.87 2656C2279.41 2651.27 2271.14 2644.32 2265.05 2635.14C2259.05 2625.86 2256.05 2614.32 2256.05 2600.5C2256.05 2588.86 2258.19 2579.09 2262.46 2571.18C2266.73 2563.27 2272.55 2556.91 2279.91 2552.09C2287.28 2547.27 2295.64 2543.64 2305.01 2541.18C2314.46 2538.73 2324.37 2537 2334.73 2536C2346.91 2534.73 2356.73 2533.55 2364.19 2532.45C2371.64 2531.27 2377.05 2529.55 2380.41 2527.27C2383.78 2525 2385.46 2521.64 2385.46 2517.18V2516.36C2385.46 2507.73 2382.73 2501.05 2377.28 2496.32C2371.91 2491.59 2364.28 2489.23 2354.37 2489.23C2343.91 2489.23 2335.6 2491.55 2329.41 2496.18C2323.23 2500.73 2319.14 2506.45 2317.14 2513.36L2263.41 2509C2266.14 2496.27 2271.51 2485.27 2279.51 2476C2287.51 2466.64 2297.82 2459.45 2310.46 2454.45C2323.19 2449.36 2337.91 2446.82 2354.64 2446.82C2366.28 2446.82 2377.41 2448.18 2388.05 2450.91C2398.78 2453.64 2408.28 2457.86 2416.55 2463.59C2424.91 2469.32 2431.51 2476.68 2436.32 2485.68C2441.14 2494.59 2443.55 2505.27 2443.55 2517.73V2659H2388.46V2629.95H2386.82C2383.46 2636.5 2378.96 2642.27 2373.32 2647.27C2367.69 2652.18 2360.91 2656.05 2353.01 2658.86C2345.1 2661.59 2335.96 2662.95 2325.6 2662.95ZM2342.23 2622.86C2350.78 2622.86 2358.32 2621.18 2364.87 2617.82C2371.41 2614.36 2376.55 2609.73 2380.28 2603.91C2384.01 2598.09 2385.87 2591.5 2385.87 2584.14V2561.91C2384.05 2563.09 2381.55 2564.18 2378.37 2565.18C2375.28 2566.09 2371.78 2566.95 2367.87 2567.77C2363.96 2568.5 2360.05 2569.18 2356.14 2569.82C2352.23 2570.36 2348.69 2570.86 2345.51 2571.32C2338.69 2572.32 2332.73 2573.91 2327.64 2576.09C2322.55 2578.27 2318.6 2581.23 2315.78 2584.95C2312.96 2588.59 2311.55 2593.14 2311.55 2598.59C2311.55 2606.5 2314.41 2612.55 2320.14 2616.73C2325.96 2620.82 2333.32 2622.86 2342.23 2622.86ZM2488.62 2659V2449.55H2544.94V2486.09H2547.12C2550.94 2473.09 2557.35 2463.27 2566.35 2456.64C2575.35 2449.91 2585.71 2446.55 2597.44 2446.55C2600.35 2446.55 2603.48 2446.73 2606.85 2447.09C2610.21 2447.45 2613.16 2447.95 2615.71 2448.59V2500.14C2612.98 2499.32 2609.21 2498.59 2604.39 2497.95C2599.57 2497.32 2595.16 2497 2591.16 2497C2582.62 2497 2574.98 2498.86 2568.26 2502.59C2561.62 2506.23 2556.35 2511.32 2552.44 2517.86C2548.62 2524.41 2546.71 2531.95 2546.71 2540.5V2659H2488.62ZM2645.74 2659V2449.55H2701.11V2486.5H2703.56C2707.93 2474.23 2715.2 2464.55 2725.38 2457.45C2735.56 2450.36 2747.74 2446.82 2761.93 2446.82C2776.29 2446.82 2788.52 2450.41 2798.61 2457.59C2808.7 2464.68 2815.43 2474.32 2818.79 2486.5H2820.97C2825.24 2474.5 2832.97 2464.91 2844.15 2457.73C2855.43 2450.45 2868.74 2446.82 2884.11 2446.82C2903.65 2446.82 2919.52 2453.05 2931.7 2465.5C2943.97 2477.86 2950.11 2495.41 2950.11 2518.14V2659H2892.15V2529.59C2892.15 2517.95 2889.06 2509.23 2882.88 2503.41C2876.7 2497.59 2868.97 2494.68 2859.7 2494.68C2849.15 2494.68 2840.93 2498.05 2835.02 2504.77C2829.11 2511.41 2826.15 2520.18 2826.15 2531.09V2659H2769.84V2528.36C2769.84 2518.09 2766.88 2509.91 2760.97 2503.82C2755.15 2497.73 2747.47 2494.68 2737.93 2494.68C2731.47 2494.68 2725.65 2496.32 2720.47 2499.59C2715.38 2502.77 2711.34 2507.27 2708.34 2513.09C2705.34 2518.82 2703.84 2525.55 2703.84 2533.27V2659H2645.74Z" fill="white"/>
<rect x="850" y="2954" width="2300" height="500" rx="250" fill="#50845B"/>
<path d="M1169.36 3297V3260.64L1238.82 3203.18C1243.42 3199.36 1247.36 3195.79 1250.64 3192.45C1253.97 3189.06 1256.52 3185.58 1258.27 3182C1260.09 3178.42 1261 3174.45 1261 3170.09C1261 3165.3 1259.97 3161.21 1257.91 3157.82C1255.91 3154.42 1253.12 3151.82 1249.55 3150C1245.97 3148.12 1241.85 3147.18 1237.18 3147.18C1232.52 3147.18 1228.39 3148.12 1224.82 3150C1221.3 3151.88 1218.58 3154.64 1216.64 3158.27C1214.7 3161.91 1213.73 3166.33 1213.73 3171.55H1165.73C1165.73 3158.45 1168.67 3147.18 1174.55 3137.73C1180.42 3128.27 1188.73 3121 1199.45 3115.91C1210.18 3110.82 1222.76 3108.27 1237.18 3108.27C1252.09 3108.27 1265 3110.67 1275.91 3115.45C1286.88 3120.18 1295.33 3126.85 1301.27 3135.45C1307.27 3144.06 1310.27 3154.15 1310.27 3165.73C1310.27 3172.88 1308.79 3180 1305.82 3187.09C1302.85 3194.12 1297.52 3201.91 1289.82 3210.45C1282.12 3219 1271.18 3229.18 1257 3241L1239.55 3255.55V3256.64H1312.27V3297H1169.36ZM1409.41 3299.55C1395.11 3299.55 1382.41 3297.03 1371.32 3292C1360.29 3286.91 1351.59 3279.91 1345.23 3271C1338.92 3262.09 1335.71 3251.85 1335.59 3240.27H1384.68C1384.86 3246.7 1387.35 3251.82 1392.14 3255.64C1396.98 3259.45 1402.74 3261.36 1409.41 3261.36C1414.56 3261.36 1419.11 3260.27 1423.05 3258.09C1426.98 3255.85 1430.08 3252.7 1432.32 3248.64C1434.56 3244.58 1435.65 3239.85 1435.59 3234.45C1435.65 3229 1434.56 3224.27 1432.32 3220.27C1430.08 3216.21 1426.98 3213.09 1423.05 3210.91C1419.11 3208.67 1414.56 3207.55 1409.41 3207.55C1404.08 3207.55 1399.14 3208.85 1394.59 3211.45C1390.11 3214 1386.8 3217.55 1384.68 3222.09L1340.32 3213.36L1347.59 3110.82H1472.68V3151.18H1389.05L1385.41 3192.27H1386.5C1389.41 3186.64 1394.44 3181.97 1401.59 3178.27C1408.74 3174.52 1417.05 3172.64 1426.5 3172.64C1437.59 3172.64 1447.47 3175.21 1456.14 3180.36C1464.86 3185.52 1471.74 3192.64 1476.77 3201.73C1481.86 3210.76 1484.38 3221.18 1484.32 3233C1484.38 3245.97 1481.29 3257.48 1475.05 3267.55C1468.86 3277.55 1460.17 3285.39 1448.95 3291.09C1437.74 3296.73 1424.56 3299.55 1409.41 3299.55ZM1583.93 3299.55C1573.08 3299.55 1562.78 3297.85 1553.02 3294.45C1543.33 3291 1534.72 3285.58 1527.2 3278.18C1519.69 3270.79 1513.78 3261.15 1509.48 3249.27C1505.23 3237.39 1503.14 3223 1503.2 3206.09C1503.27 3191 1505.2 3177.42 1509.02 3165.36C1512.9 3153.3 1518.39 3143.03 1525.48 3134.55C1532.63 3126.06 1541.17 3119.58 1551.11 3115.09C1561.05 3110.55 1572.11 3108.27 1584.3 3108.27C1597.99 3108.27 1610.05 3110.91 1620.48 3116.18C1630.9 3121.45 1639.2 3128.52 1645.39 3137.36C1651.63 3146.15 1655.27 3155.85 1656.3 3166.45H1606.48C1605.33 3161.18 1602.66 3157.33 1598.48 3154.91C1594.36 3152.42 1589.63 3151.18 1584.3 3151.18C1573.69 3151.18 1565.9 3155.79 1560.93 3165C1556.02 3174.21 1553.51 3186.33 1553.39 3201.36H1554.48C1556.84 3195.67 1560.42 3190.79 1565.2 3186.73C1569.99 3182.67 1575.57 3179.55 1581.93 3177.36C1588.3 3175.18 1595.02 3174.09 1602.11 3174.09C1613.39 3174.09 1623.23 3176.64 1631.66 3181.73C1640.14 3186.82 1646.75 3193.79 1651.48 3202.64C1656.2 3211.48 1658.54 3221.61 1658.48 3233C1658.54 3246.33 1655.39 3258 1649.02 3268C1642.72 3278 1633.96 3285.76 1622.75 3291.27C1611.54 3296.79 1598.6 3299.55 1583.93 3299.55ZM1583.57 3261.36C1588.6 3261.36 1593.05 3260.21 1596.93 3257.91C1600.87 3255.61 1603.93 3252.45 1606.11 3248.45C1608.36 3244.45 1609.45 3239.91 1609.39 3234.82C1609.45 3229.67 1608.36 3225.12 1606.11 3221.18C1603.93 3217.18 1600.87 3214.03 1596.93 3211.73C1593.05 3209.42 1588.6 3208.27 1583.57 3208.27C1579.87 3208.27 1576.45 3208.94 1573.3 3210.27C1570.2 3211.55 1567.51 3213.39 1565.2 3215.82C1562.9 3218.18 1561.08 3221 1559.75 3224.27C1558.48 3227.48 1557.81 3231 1557.75 3234.82C1557.81 3239.91 1558.96 3244.45 1561.2 3248.45C1563.45 3252.45 1566.51 3255.61 1570.39 3257.91C1574.27 3260.21 1578.66 3261.36 1583.57 3261.36ZM1852.91 3172.27C1852.12 3169.06 1850.88 3166.24 1849.18 3163.82C1847.48 3161.33 1845.36 3159.24 1842.82 3157.55C1840.33 3155.79 1837.42 3154.48 1834.09 3153.64C1830.82 3152.73 1827.21 3152.27 1823.27 3152.27C1814.79 3152.27 1807.55 3154.3 1801.55 3158.36C1795.61 3162.42 1791.06 3168.27 1787.91 3175.91C1784.82 3183.55 1783.27 3192.76 1783.27 3203.55C1783.27 3214.45 1784.76 3223.79 1787.73 3231.55C1790.7 3239.3 1795.12 3245.24 1801 3249.36C1806.88 3253.48 1814.18 3255.55 1822.91 3255.55C1830.61 3255.55 1837 3254.42 1842.09 3252.18C1847.24 3249.94 1851.09 3246.76 1853.64 3242.64C1856.18 3238.52 1857.45 3233.67 1857.45 3228.09L1866.18 3229H1823.64V3193H1906.18V3218.82C1906.18 3235.79 1902.58 3250.3 1895.36 3262.36C1888.21 3274.36 1878.33 3283.58 1865.73 3290C1853.18 3296.36 1838.79 3299.55 1822.55 3299.55C1804.42 3299.55 1788.52 3295.7 1774.82 3288C1761.12 3280.3 1750.42 3269.33 1742.73 3255.09C1735.09 3240.85 1731.27 3223.91 1731.27 3204.27C1731.27 3188.88 1733.61 3175.24 1738.27 3163.36C1743 3151.48 1749.55 3141.45 1757.91 3133.27C1766.27 3125.03 1775.94 3118.82 1786.91 3114.64C1797.88 3110.39 1809.64 3108.27 1822.18 3108.27C1833.21 3108.27 1843.45 3109.85 1852.91 3113C1862.42 3116.09 1870.82 3120.52 1878.09 3126.27C1885.42 3131.97 1891.33 3138.73 1895.82 3146.55C1900.3 3154.36 1903.03 3162.94 1904 3172.27H1852.91ZM1929.75 3297V3110.82H1980.3V3256.27H2055.57V3297H1929.75ZM2034.61 3110.82H2090.98L2127.34 3186.45H2128.8L2165.16 3110.82H2221.52L2153.16 3238.45V3297H2102.98V3238.45L2034.61 3110.82ZM2238 3297V3110.82H2318.36C2332.18 3110.82 2344.27 3113.55 2354.64 3119C2365 3124.45 2373.06 3132.12 2378.82 3142C2384.58 3151.88 2387.45 3163.42 2387.45 3176.64C2387.45 3189.97 2384.48 3201.52 2378.55 3211.27C2372.67 3221.03 2364.39 3228.55 2353.73 3233.82C2343.12 3239.09 2330.73 3241.73 2316.55 3241.73H2268.55V3202.45H2306.36C2312.3 3202.45 2317.36 3201.42 2321.55 3199.36C2325.79 3197.24 2329.03 3194.24 2331.27 3190.36C2333.58 3186.48 2334.73 3181.91 2334.73 3176.64C2334.73 3171.3 2333.58 3166.76 2331.27 3163C2329.03 3159.18 2325.79 3156.27 2321.55 3154.27C2317.36 3152.21 2312.3 3151.18 2306.36 3151.18H2288.55V3297H2238ZM2406 3297V3110.82H2456.55V3183.55H2523.45V3110.82H2574V3297H2523.45V3224.27H2456.55V3297H2406ZM2690 3102.09L2630 3325H2587.45L2647.45 3102.09H2690ZM2831.86 3202.82H2785.68C2785.44 3199.97 2784.44 3197.52 2782.68 3195.45C2780.92 3193.39 2778.65 3191.82 2775.86 3190.73C2773.14 3189.58 2770.11 3189 2766.77 3189C2762.47 3189 2758.77 3189.79 2755.68 3191.36C2752.59 3192.94 2751.08 3195.18 2751.14 3198.09C2751.08 3200.15 2751.95 3202.06 2753.77 3203.82C2755.65 3205.58 2759.26 3206.94 2764.59 3207.91L2792.95 3213C2807.26 3215.61 2817.89 3220 2824.86 3226.18C2831.89 3232.3 2835.44 3240.52 2835.5 3250.82C2835.44 3260.76 2832.47 3269.39 2826.59 3276.73C2820.77 3284 2812.8 3289.64 2802.68 3293.64C2792.62 3297.58 2781.14 3299.55 2768.23 3299.55C2746.89 3299.55 2730.2 3295.18 2718.14 3286.45C2706.14 3277.73 2699.44 3266.21 2698.05 3251.91H2747.86C2748.53 3256.33 2750.71 3259.76 2754.41 3262.18C2758.17 3264.55 2762.89 3265.73 2768.59 3265.73C2773.2 3265.73 2776.98 3264.94 2779.95 3263.36C2782.98 3261.79 2784.53 3259.55 2784.59 3256.64C2784.53 3253.97 2783.2 3251.85 2780.59 3250.27C2778.05 3248.7 2774.05 3247.42 2768.59 3246.45L2743.86 3242.09C2729.62 3239.61 2718.95 3234.88 2711.86 3227.91C2704.77 3220.94 2701.26 3211.97 2701.32 3201C2701.26 3191.3 2703.8 3183.09 2708.95 3176.36C2714.17 3169.58 2721.59 3164.42 2731.23 3160.91C2740.92 3157.33 2752.41 3155.55 2765.68 3155.55C2785.86 3155.55 2801.77 3159.73 2813.41 3168.09C2825.11 3176.45 2831.26 3188.03 2831.86 3202.82Z" fill="white"/>
<path d="M1754.11 1610C1766.4 1601.72 1769.61 1585.15 1761.59 1572.86C1753.04 1560.03 1742.08 1539.19 1734.07 1511.93C1749.57 1507.92 1763.73 1501.51 1776.29 1492.69C1811.03 1513.8 1843.1 1524.22 1864.73 1528.5C1876.5 1531.7 1893.34 1523.69 1896.27 1507.65C1899.21 1493.22 1890.13 1479.06 1875.43 1476.12C1859.93 1472.91 1837.75 1465.97 1812.89 1452.34C1820.64 1439.24 1826.26 1424.81 1829.19 1409.31C1860.73 1401.83 1891.2 1388.74 1917.11 1371.9C1929.4 1363.88 1932.89 1347.32 1924.86 1335.02C1916.59 1322.46 1900.02 1318.99 1887.73 1327.27C1874.9 1335.83 1854.05 1346.78 1826.79 1354.53C1822.78 1339.3 1816.38 1325.14 1807.56 1312.84L1808.35 1312.04C1829.74 1276.77 1839.08 1244.43 1843.36 1223.59C1846.3 1209.16 1836.68 1195 1822.25 1192.33C1807.56 1189.39 1793.66 1198.74 1790.99 1213.17C1788.05 1228.13 1781.1 1250.58 1767.2 1275.97C1753.58 1267.95 1738.87 1262.34 1722.57 1259.67C1722.85 1256.99 1722.85 1254.05 1722.04 1251.38C1712.42 1215.04 1697.46 1187.78 1686.5 1171.48C1678.49 1159.19 1661.91 1155.72 1649.62 1164C1637.33 1172.02 1633.86 1188.58 1641.87 1200.88C1650.43 1213.44 1661.65 1234.28 1669.4 1262.07C1653.9 1266.08 1639.73 1272.49 1626.91 1281.31C1625.84 1280.51 1625.04 1279.44 1623.97 1278.64C1590.03 1258.6 1559.03 1249.51 1538.73 1245.24C1524.29 1242.3 1510.14 1251.65 1507.19 1266.08C1504.25 1280.51 1513.61 1294.67 1528.04 1297.61C1542.73 1300.82 1565.17 1307.5 1590.31 1321.4C1582.28 1334.76 1576.94 1349.45 1574.53 1365.49C1572.93 1365.49 1571.32 1365.22 1569.72 1365.75C1531.51 1375.37 1503.46 1390.87 1486.35 1402.1C1474.06 1410.12 1470.58 1426.68 1478.86 1438.97C1486.89 1451.8 1503.98 1454.21 1515.75 1446.73C1528.3 1438.44 1549.15 1427.22 1576.67 1419.47C1580.68 1434.7 1587.36 1449.13 1596.44 1461.69C1595.37 1462.76 1594.31 1463.56 1593.78 1464.63C1573.2 1499.1 1564.11 1530.1 1560.1 1550.14C1557.42 1564.84 1566.78 1578.74 1581.21 1581.67C1597.51 1584.35 1610.07 1573.93 1612.47 1560.56C1615.41 1545.87 1622.37 1523.42 1636.26 1498.03C1649.36 1505.78 1663.79 1511.39 1679.28 1514.07C1688.9 1554.42 1704.93 1584.35 1716.96 1602.52C1724.71 1614.28 1740.75 1618.55 1754.11 1610Z" fill="white"/>
<path d="M2607.36 1327.27C2594.53 1335.83 2573.7 1346.78 2546.44 1354.53C2542.43 1339.3 2536.01 1325.14 2527.19 1312.84C2527.46 1312.58 2527.73 1312.31 2528 1312.04C2549.37 1276.77 2558.73 1244.43 2563.01 1223.59C2565.94 1209.16 2556.33 1195 2541.9 1192.33C2527.19 1189.39 2513.29 1198.74 2510.62 1213.17C2507.68 1228.13 2500.74 1250.58 2486.85 1275.97C2473.21 1267.95 2458.52 1262.34 2442.22 1259.67C2442.48 1256.99 2442.48 1254.05 2441.69 1251.38C2432.07 1215.04 2417.09 1187.78 2406.14 1171.48C2398.12 1159.19 2381.56 1155.72 2369.27 1164C2356.96 1172.02 2353.49 1188.58 2361.52 1200.88C2370.06 1213.44 2381.29 1234.28 2389.04 1262.07C2373.54 1266.08 2359.38 1272.49 2346.55 1281.31C2345.48 1280.51 2344.67 1279.44 2343.6 1278.64C2309.68 1258.6 2278.68 1249.51 2258.37 1245.24C2243.94 1242.3 2229.77 1251.65 2226.84 1266.08C2223.9 1280.51 2233.24 1294.67 2247.67 1297.61C2262.38 1300.82 2284.82 1307.5 2309.94 1321.4C2301.93 1334.76 2296.58 1349.45 2294.18 1365.49C2292.57 1365.49 2290.97 1365.22 2289.36 1365.75C2251.14 1375.37 2223.09 1390.87 2205.98 1402.1C2193.69 1410.12 2190.22 1426.68 2198.51 1438.97C2206.52 1451.8 2223.63 1454.21 2235.38 1446.73C2247.95 1438.44 2268.79 1427.22 2296.32 1419.47C2300.32 1434.7 2307 1449.13 2316.08 1461.69C2315.01 1462.76 2313.94 1463.56 2313.41 1464.63C2292.83 1499.1 2283.75 1530.1 2279.75 1550.14C2277.07 1564.84 2286.43 1578.74 2300.86 1581.67C2317.15 1584.35 2329.72 1573.93 2332.12 1560.56C2335.06 1545.87 2342.01 1523.42 2355.91 1498.03C2369 1505.78 2383.43 1511.39 2398.93 1514.07C2408.54 1554.42 2424.58 1584.35 2436.61 1602.52C2444.36 1614.28 2460.38 1618.55 2473.75 1610C2486.04 1601.72 2489.25 1585.15 2481.24 1572.86C2472.68 1560.03 2461.73 1539.18 2453.7 1511.93C2469.21 1507.92 2483.38 1501.51 2495.93 1492.69C2530.66 1513.8 2562.73 1524.22 2584.38 1528.5C2596.14 1531.7 2612.97 1523.69 2615.92 1507.65C2618.85 1493.22 2609.77 1479.06 2595.07 1476.12C2579.57 1472.91 2557.38 1465.97 2532.54 1452.34C2540.29 1439.24 2545.9 1424.81 2548.84 1409.31C2580.38 1401.83 2610.83 1388.74 2636.76 1371.9C2649.05 1363.88 2652.53 1347.32 2644.51 1335.02C2636.22 1322.46 2619.65 1318.99 2607.36 1327.27Z" fill="white"/>
<path d="M2770.37 930.711H1284.32V779.994C1284.32 728.687 1242.36 687 1191.06 687H1158.72C1144.03 687 1132 698.758 1132 713.723C1132 728.42 1144.03 740.445 1158.72 740.445H1191.06C1212.98 740.445 1230.88 758.082 1230.88 779.994V2060.28C1230.88 2074.97 1242.91 2087 1257.6 2087C1272.29 2087 1284.32 2074.97 1284.32 2060.28V1843.29H1518.94V1927.47C1518.94 1958.46 1544.06 1983.58 1575.06 1983.58H2134.37C2165.36 1983.58 2190.49 1958.46 2190.49 1927.47V1843.29H2770.37C2824.88 1843.29 2868.97 1799.2 2868.97 1744.68V1029.32C2868.97 974.802 2824.88 930.711 2770.37 930.711ZM1701.74 1688.3C1535.79 1688.3 1400.57 1553.62 1400.57 1387.13C1400.57 1220.38 1535.52 1085.7 1701.74 1085.7C1868.75 1085.7 2002.89 1220.92 2002.89 1387.13C2002.89 1554.42 1867.15 1688.3 1701.74 1688.3ZM2421.37 1688.3C2255.42 1688.3 2120.2 1553.62 2120.2 1387.13C2120.2 1220.38 2255.16 1085.7 2421.37 1085.7C2588.39 1085.7 2722.53 1220.92 2722.53 1387.13C2722.53 1554.42 2586.78 1688.3 2421.37 1688.3Z" fill="white"/>
</svg>
