<svg width="4000" height="4000" viewBox="0 0 4000 4000" fill="none" xmlns="http://www.w3.org/2000/svg">
<rect width="4000" height="4000" fill="#111111"/>
<path d="M1095.6 2659H1032.32L1128.73 2379.73H1204.82L1301.1 2659H1237.82L1167.87 2443.55H1165.69L1095.6 2659ZM1091.64 2549.23H1241.1V2595.32H1091.64V2549.23ZM1467.94 2569.82V2449.55H1526.03V2659H1470.26V2620.95H1468.07C1463.35 2633.23 1455.48 2643.09 1444.48 2650.55C1433.57 2658 1420.26 2661.73 1404.53 2661.73C1390.53 2661.73 1378.21 2658.55 1367.57 2652.18C1356.94 2645.82 1348.62 2636.77 1342.62 2625.05C1336.71 2613.32 1333.71 2599.27 1333.62 2582.91V2449.55H1391.71V2572.55C1391.8 2584.91 1395.12 2594.68 1401.66 2601.86C1408.21 2609.05 1416.98 2612.64 1427.98 2612.64C1434.98 2612.64 1441.53 2611.05 1447.62 2607.86C1453.71 2604.59 1458.62 2599.77 1462.35 2593.41C1466.16 2587.05 1468.03 2579.18 1467.94 2569.82ZM1683.9 2449.55V2493.18H1557.77V2449.55H1683.9ZM1586.4 2399.36H1644.49V2594.64C1644.49 2600 1645.31 2604.18 1646.95 2607.18C1648.59 2610.09 1650.86 2612.14 1653.77 2613.32C1656.77 2614.5 1660.22 2615.09 1664.13 2615.09C1666.86 2615.09 1669.59 2614.86 1672.31 2614.41C1675.04 2613.86 1677.13 2613.45 1678.59 2613.18L1687.72 2656.41C1684.81 2657.32 1680.72 2658.36 1675.45 2659.55C1670.18 2660.82 1663.77 2661.59 1656.22 2661.86C1642.22 2662.41 1629.95 2660.55 1619.4 2656.27C1608.95 2652 1600.81 2645.36 1594.99 2636.36C1589.18 2627.36 1586.31 2616 1586.4 2602.27V2399.36ZM1814.13 2663.09C1792.95 2663.09 1774.63 2658.59 1759.18 2649.59C1743.81 2640.5 1731.95 2627.86 1723.59 2611.68C1715.22 2595.41 1711.04 2576.55 1711.04 2555.09C1711.04 2533.45 1715.22 2514.55 1723.59 2498.36C1731.95 2482.09 1743.81 2469.45 1759.18 2460.45C1774.63 2451.36 1792.95 2446.82 1814.13 2446.82C1835.31 2446.82 1853.59 2451.36 1868.95 2460.45C1884.4 2469.45 1896.31 2482.09 1904.68 2498.36C1913.04 2514.55 1917.22 2533.45 1917.22 2555.09C1917.22 2576.55 1913.04 2595.41 1904.68 2611.68C1896.31 2627.86 1884.4 2640.5 1868.95 2649.59C1853.59 2658.59 1835.31 2663.09 1814.13 2663.09ZM1814.4 2618.09C1824.04 2618.09 1832.09 2615.36 1838.54 2609.91C1844.99 2604.36 1849.86 2596.82 1853.13 2587.27C1856.49 2577.73 1858.18 2566.86 1858.18 2554.68C1858.18 2542.5 1856.49 2531.64 1853.13 2522.09C1849.86 2512.55 1844.99 2505 1838.54 2499.45C1832.09 2493.91 1824.04 2491.14 1814.4 2491.14C1804.68 2491.14 1796.49 2493.91 1789.86 2499.45C1783.31 2505 1778.36 2512.55 1774.99 2522.09C1771.72 2531.64 1770.09 2542.5 1770.09 2554.68C1770.09 2566.86 1771.72 2577.73 1774.99 2587.27C1778.36 2596.82 1783.31 2604.36 1789.86 2609.91C1796.49 2615.36 1804.68 2618.09 1814.4 2618.09ZM2044.96 2659V2379.73H2229.87V2428.41H2104.01V2494.95H2217.6V2543.64H2104.01V2659H2044.96ZM2325.6 2662.95C2312.23 2662.95 2300.32 2660.64 2289.87 2656C2279.41 2651.27 2271.14 2644.32 2265.05 2635.14C2259.05 2625.86 2256.05 2614.32 2256.05 2600.5C2256.05 2588.86 2258.19 2579.09 2262.46 2571.18C2266.73 2563.27 2272.55 2556.91 2279.91 2552.09C2287.28 2547.27 2295.64 2543.64 2305.01 2541.18C2314.46 2538.73 2324.37 2537 2334.73 2536C2346.91 2534.73 2356.73 2533.55 2364.19 2532.45C2371.64 2531.27 2377.05 2529.55 2380.41 2527.27C2383.78 2525 2385.46 2521.64 2385.46 2517.18V2516.36C2385.46 2507.73 2382.73 2501.05 2377.28 2496.32C2371.91 2491.59 2364.28 2489.23 2354.37 2489.23C2343.91 2489.23 2335.6 2491.55 2329.41 2496.18C2323.23 2500.73 2319.14 2506.45 2317.14 2513.36L2263.41 2509C2266.14 2496.27 2271.51 2485.27 2279.51 2476C2287.51 2466.64 2297.82 2459.45 2310.46 2454.45C2323.19 2449.36 2337.91 2446.82 2354.64 2446.82C2366.28 2446.82 2377.41 2448.18 2388.05 2450.91C2398.78 2453.64 2408.28 2457.86 2416.55 2463.59C2424.91 2469.32 2431.51 2476.68 2436.32 2485.68C2441.14 2494.59 2443.55 2505.27 2443.55 2517.73V2659H2388.46V2629.95H2386.82C2383.46 2636.5 2378.96 2642.27 2373.32 2647.27C2367.69 2652.18 2360.91 2656.05 2353.01 2658.86C2345.1 2661.59 2335.96 2662.95 2325.6 2662.95ZM2342.23 2622.86C2350.78 2622.86 2358.32 2621.18 2364.87 2617.82C2371.41 2614.36 2376.55 2609.73 2380.28 2603.91C2384.01 2598.09 2385.87 2591.5 2385.87 2584.14V2561.91C2384.05 2563.09 2381.55 2564.18 2378.37 2565.18C2375.28 2566.09 2371.78 2566.95 2367.87 2567.77C2363.96 2568.5 2360.05 2569.18 2356.14 2569.82C2352.23 2570.36 2348.69 2570.86 2345.51 2571.32C2338.69 2572.32 2332.73 2573.91 2327.64 2576.09C2322.55 2578.27 2318.6 2581.23 2315.78 2584.95C2312.96 2588.59 2311.55 2593.14 2311.55 2598.59C2311.55 2606.5 2314.41 2612.55 2320.14 2616.73C2325.96 2620.82 2333.32 2622.86 2342.23 2622.86ZM2488.62 2659V2449.55H2544.94V2486.09H2547.12C2550.94 2473.09 2557.35 2463.27 2566.35 2456.64C2575.35 2449.91 2585.71 2446.55 2597.44 2446.55C2600.35 2446.55 2603.48 2446.73 2606.85 2447.09C2610.21 2447.45 2613.16 2447.95 2615.71 2448.59V2500.14C2612.98 2499.32 2609.21 2498.59 2604.39 2497.95C2599.57 2497.32 2595.16 2497 2591.16 2497C2582.62 2497 2574.98 2498.86 2568.26 2502.59C2561.62 2506.23 2556.35 2511.32 2552.44 2517.86C2548.62 2524.41 2546.71 2531.95 2546.71 2540.5V2659H2488.62ZM2645.74 2659V2449.55H2701.11V2486.5H2703.56C2707.93 2474.23 2715.2 2464.55 2725.38 2457.45C2735.56 2450.36 2747.74 2446.82 2761.93 2446.82C2776.29 2446.82 2788.52 2450.41 2798.61 2457.59C2808.7 2464.68 2815.43 2474.32 2818.79 2486.5H2820.97C2825.24 2474.5 2832.97 2464.91 2844.15 2457.73C2855.43 2450.45 2868.74 2446.82 2884.11 2446.82C2903.65 2446.82 2919.52 2453.05 2931.7 2465.5C2943.97 2477.86 2950.11 2495.41 2950.11 2518.14V2659H2892.15V2529.59C2892.15 2517.95 2889.06 2509.23 2882.88 2503.41C2876.7 2497.59 2868.97 2494.68 2859.7 2494.68C2849.15 2494.68 2840.93 2498.05 2835.02 2504.77C2829.11 2511.41 2826.15 2520.18 2826.15 2531.09V2659H2769.84V2528.36C2769.84 2518.09 2766.88 2509.91 2760.97 2503.82C2755.15 2497.73 2747.47 2494.68 2737.93 2494.68C2731.47 2494.68 2725.65 2496.32 2720.47 2499.59C2715.38 2502.77 2711.34 2507.27 2708.34 2513.09C2705.34 2518.82 2703.84 2525.55 2703.84 2533.27V2659H2645.74Z" fill="white"/>
<rect x="798" y="2952" width="2400" height="500" rx="250" fill="#B8860B"/>
<path d="M1033.74 3295V3258.64L1103.19 3201.18C1107.8 3197.36 1111.74 3193.79 1115.01 3190.45C1118.34 3187.06 1120.89 3183.58 1122.65 3180C1124.47 3176.42 1125.38 3172.45 1125.38 3168.09C1125.38 3163.3 1124.34 3159.21 1122.28 3155.82C1120.28 3152.42 1117.5 3149.82 1113.92 3148C1110.34 3146.12 1106.22 3145.18 1101.56 3145.18C1096.89 3145.18 1092.77 3146.12 1089.19 3148C1085.68 3149.88 1082.95 3152.64 1081.01 3156.27C1079.07 3159.91 1078.1 3164.33 1078.1 3169.55H1030.1C1030.1 3156.45 1033.04 3145.18 1038.92 3135.73C1044.8 3126.27 1053.1 3119 1063.83 3113.91C1074.56 3108.82 1087.13 3106.27 1101.56 3106.27C1116.47 3106.27 1129.38 3108.67 1140.28 3113.45C1151.25 3118.18 1159.71 3124.85 1165.65 3133.45C1171.65 3142.06 1174.65 3152.15 1174.65 3163.73C1174.65 3170.88 1173.16 3178 1170.19 3185.09C1167.22 3192.12 1161.89 3199.91 1154.19 3208.45C1146.5 3217 1135.56 3227.18 1121.38 3239L1103.92 3253.55V3254.64H1176.65V3295H1033.74ZM1248.33 3269.55L1247.6 3279.73C1247 3288.45 1245.54 3296.82 1243.24 3304.82C1241 3312.82 1238.6 3319.91 1236.06 3326.09C1233.57 3332.27 1231.6 3337.06 1230.15 3340.45H1199.24C1200.21 3337.06 1201.57 3332.15 1203.33 3325.73C1205.15 3319.36 1206.78 3312.15 1208.24 3304.09C1209.75 3296.09 1210.51 3287.97 1210.51 3279.73V3269.55H1248.33ZM1353.58 3300.09C1336.67 3300.03 1322.06 3296.12 1309.76 3288.36C1297.46 3280.61 1287.97 3269.42 1281.31 3254.82C1274.64 3240.21 1271.34 3222.7 1271.4 3202.27C1271.46 3181.79 1274.79 3164.39 1281.4 3150.09C1288.06 3135.79 1297.52 3124.91 1309.76 3117.45C1322.06 3110 1336.67 3106.27 1353.58 3106.27C1370.49 3106.27 1385.09 3110.03 1397.4 3117.55C1409.7 3125 1419.19 3135.88 1425.85 3150.18C1432.52 3164.48 1435.82 3181.85 1435.76 3202.27C1435.76 3222.82 1432.43 3240.39 1425.76 3255C1419.09 3269.61 1409.61 3280.79 1397.31 3288.55C1385.06 3296.24 1370.49 3300.09 1353.58 3300.09ZM1353.58 3259C1362.31 3259 1369.46 3254.45 1375.03 3245.36C1380.67 3236.21 1383.46 3221.85 1383.4 3202.27C1383.4 3189.48 1382.13 3179.03 1379.58 3170.91C1377.03 3162.79 1373.52 3156.79 1369.03 3152.91C1364.55 3148.97 1359.4 3147 1353.58 3147C1344.85 3147 1337.73 3151.42 1332.22 3160.27C1326.7 3169.12 1323.88 3183.12 1323.76 3202.27C1323.7 3215.3 1324.94 3226.03 1327.49 3234.45C1330.03 3242.82 1333.55 3249 1338.03 3253C1342.58 3257 1347.76 3259 1353.58 3259ZM1457.67 3265.91V3226.64L1532.58 3108.82H1568.22V3161.18H1547.85L1507.49 3225.18V3226.64H1618.03V3265.91H1457.67ZM1548.22 3295V3253.91L1549.31 3236.82V3108.82H1596.58V3295H1548.22ZM1715.24 3297.55C1700.21 3297.55 1686.78 3295.21 1674.97 3290.55C1663.21 3285.88 1653.94 3279.55 1647.15 3271.55C1640.42 3263.55 1637.06 3254.52 1637.06 3244.45C1637.06 3236.76 1638.97 3229.73 1642.78 3223.36C1646.66 3217 1651.88 3211.73 1658.42 3207.55C1664.97 3203.3 1672.27 3200.58 1680.33 3199.36V3197.91C1669.72 3196.09 1661 3191.39 1654.15 3183.82C1647.36 3176.18 1643.97 3167.18 1643.97 3156.82C1643.97 3147.06 1647.06 3138.39 1653.24 3130.82C1659.42 3123.18 1667.88 3117.18 1678.6 3112.82C1689.33 3108.45 1701.54 3106.27 1715.24 3106.27C1728.94 3106.27 1741.15 3108.48 1751.88 3112.91C1762.6 3117.27 1771.06 3123.27 1777.24 3130.91C1783.42 3138.48 1786.51 3147.12 1786.51 3156.82C1786.51 3167.24 1783.06 3176.24 1776.15 3183.82C1769.24 3191.39 1760.57 3196.09 1750.15 3197.91V3199.36C1758.15 3200.58 1765.42 3203.3 1771.97 3207.55C1778.51 3211.73 1783.72 3217 1787.6 3223.36C1791.48 3229.73 1793.42 3236.76 1793.42 3244.45C1793.42 3254.52 1790.03 3263.55 1783.24 3271.55C1776.51 3279.55 1767.24 3285.88 1755.42 3290.55C1743.66 3295.21 1730.27 3297.55 1715.24 3297.55ZM1715.24 3262.64C1720.03 3262.64 1724.27 3261.67 1727.97 3259.73C1731.66 3257.79 1734.57 3255.12 1736.69 3251.73C1738.88 3248.27 1739.97 3244.39 1739.97 3240.09C1739.97 3235.79 1738.88 3231.97 1736.69 3228.64C1734.57 3225.3 1731.66 3222.7 1727.97 3220.82C1724.27 3218.88 1720.03 3217.91 1715.24 3217.91C1710.51 3217.91 1706.27 3218.88 1702.51 3220.82C1698.81 3222.7 1695.88 3225.3 1693.69 3228.64C1691.57 3231.97 1690.51 3235.79 1690.51 3240.09C1690.51 3244.39 1691.57 3248.24 1693.69 3251.64C1695.88 3255.03 1698.81 3257.73 1702.51 3259.73C1706.27 3261.67 1710.51 3262.64 1715.24 3262.64ZM1715.24 3183C1719.48 3183 1723.24 3182.12 1726.51 3180.36C1729.78 3178.61 1732.36 3176.18 1734.24 3173.09C1736.12 3170 1737.06 3166.52 1737.06 3162.64C1737.06 3158.76 1736.12 3155.33 1734.24 3152.36C1732.36 3149.33 1729.78 3146.97 1726.51 3145.27C1723.24 3143.52 1719.48 3142.64 1715.24 3142.64C1711.06 3142.64 1707.3 3143.52 1703.97 3145.27C1700.69 3146.97 1698.12 3149.33 1696.24 3152.36C1694.36 3155.33 1693.42 3158.76 1693.42 3162.64C1693.42 3166.52 1694.36 3170 1696.24 3173.09C1698.12 3176.12 1700.69 3178.55 1703.97 3180.36C1707.3 3182.12 1711.06 3183 1715.24 3183ZM1987.53 3170.27C1986.75 3167.06 1985.5 3164.24 1983.81 3161.82C1982.11 3159.33 1979.99 3157.24 1977.44 3155.55C1974.96 3153.79 1972.05 3152.48 1968.72 3151.64C1965.44 3150.73 1961.84 3150.27 1957.9 3150.27C1949.41 3150.27 1942.17 3152.3 1936.17 3156.36C1930.23 3160.42 1925.69 3166.27 1922.53 3173.91C1919.44 3181.55 1917.9 3190.76 1917.9 3201.55C1917.9 3212.45 1919.38 3221.79 1922.35 3229.55C1925.32 3237.3 1929.75 3243.24 1935.62 3247.36C1941.5 3251.48 1948.81 3253.55 1957.53 3253.55C1965.23 3253.55 1971.63 3252.42 1976.72 3250.18C1981.87 3247.94 1985.72 3244.76 1988.26 3240.64C1990.81 3236.52 1992.08 3231.67 1992.08 3226.09L2000.81 3227H1958.26V3191H2040.81V3216.82C2040.81 3233.79 2037.2 3248.3 2029.99 3260.36C2022.84 3272.36 2012.96 3281.58 2000.35 3288C1987.81 3294.36 1973.41 3297.55 1957.17 3297.55C1939.05 3297.55 1923.14 3293.7 1909.44 3286C1895.75 3278.3 1885.05 3267.33 1877.35 3253.09C1869.72 3238.85 1865.9 3221.91 1865.9 3202.27C1865.9 3186.88 1868.23 3173.24 1872.9 3161.36C1877.63 3149.48 1884.17 3139.45 1892.53 3131.27C1900.9 3123.03 1910.56 3116.82 1921.53 3112.64C1932.5 3108.39 1944.26 3106.27 1956.81 3106.27C1967.84 3106.27 1978.08 3107.85 1987.53 3111C1997.05 3114.09 2005.44 3118.52 2012.72 3124.27C2020.05 3129.97 2025.96 3136.73 2030.44 3144.55C2034.93 3152.36 2037.66 3160.94 2038.62 3170.27H1987.53ZM2064.38 3295V3108.82H2114.92V3254.27H2190.19V3295H2064.38ZM2169.24 3108.82H2225.6L2261.97 3184.45H2263.42L2299.78 3108.82H2356.15L2287.78 3236.45V3295H2237.6V3236.45L2169.24 3108.82ZM2372.62 3295V3108.82H2452.99C2466.81 3108.82 2478.9 3111.55 2489.26 3117C2499.63 3122.45 2507.69 3130.12 2513.44 3140C2519.2 3149.88 2522.08 3161.42 2522.08 3174.64C2522.08 3187.97 2519.11 3199.52 2513.17 3209.27C2507.29 3219.03 2499.02 3226.55 2488.35 3231.82C2477.75 3237.09 2465.35 3239.73 2451.17 3239.73H2403.17V3200.45H2440.99C2446.93 3200.45 2451.99 3199.42 2456.17 3197.36C2460.41 3195.24 2463.66 3192.24 2465.9 3188.36C2468.2 3184.48 2469.35 3179.91 2469.35 3174.64C2469.35 3169.3 2468.2 3164.76 2465.9 3161C2463.66 3157.18 2460.41 3154.27 2456.17 3152.27C2451.99 3150.21 2446.93 3149.18 2440.99 3149.18H2423.17V3295H2372.62ZM2540.62 3295V3108.82H2591.17V3181.55H2658.08V3108.82H2708.62V3295H2658.08V3222.27H2591.17V3295H2540.62ZM2824.62 3100.09L2764.62 3323H2722.08L2782.08 3100.09H2824.62ZM2966.49 3200.82H2920.31C2920.06 3197.97 2919.06 3195.52 2917.31 3193.45C2915.55 3191.39 2913.28 3189.82 2910.49 3188.73C2907.76 3187.58 2904.73 3187 2901.4 3187C2897.09 3187 2893.4 3187.79 2890.31 3189.36C2887.22 3190.94 2885.7 3193.18 2885.76 3196.09C2885.7 3198.15 2886.58 3200.06 2888.4 3201.82C2890.28 3203.58 2893.88 3204.94 2899.22 3205.91L2927.58 3211C2941.88 3213.61 2952.52 3218 2959.49 3224.18C2966.52 3230.3 2970.06 3238.52 2970.12 3248.82C2970.06 3258.76 2967.09 3267.39 2961.22 3274.73C2955.4 3282 2947.43 3287.64 2937.31 3291.64C2927.25 3295.58 2915.76 3297.55 2902.85 3297.55C2881.52 3297.55 2864.82 3293.18 2852.76 3284.45C2840.76 3275.73 2834.06 3264.21 2832.67 3249.91H2882.49C2883.16 3254.33 2885.34 3257.76 2889.03 3260.18C2892.79 3262.55 2897.52 3263.73 2903.22 3263.73C2907.82 3263.73 2911.61 3262.94 2914.58 3261.36C2917.61 3259.79 2919.16 3257.55 2919.22 3254.64C2919.16 3251.97 2917.82 3249.85 2915.22 3248.27C2912.67 3246.7 2908.67 3245.42 2903.22 3244.45L2878.49 3240.09C2864.25 3237.61 2853.58 3232.88 2846.49 3225.91C2839.4 3218.94 2835.88 3209.97 2835.94 3199C2835.88 3189.3 2838.43 3181.09 2843.58 3174.36C2848.79 3167.58 2856.22 3162.42 2865.85 3158.91C2875.55 3155.33 2887.03 3153.55 2900.31 3153.55C2920.49 3153.55 2936.4 3157.73 2948.03 3166.09C2959.73 3174.45 2965.88 3186.03 2966.49 3200.82Z" fill="white"/>
<path d="M1754.11 1610C1766.4 1601.72 1769.61 1585.15 1761.59 1572.86C1753.04 1560.03 1742.08 1539.19 1734.07 1511.93C1749.57 1507.92 1763.73 1501.51 1776.29 1492.69C1811.03 1513.8 1843.1 1524.22 1864.73 1528.5C1876.5 1531.7 1893.34 1523.69 1896.27 1507.65C1899.21 1493.22 1890.13 1479.06 1875.43 1476.12C1859.93 1472.91 1837.75 1465.97 1812.89 1452.34C1820.64 1439.24 1826.26 1424.81 1829.19 1409.31C1860.73 1401.83 1891.2 1388.74 1917.11 1371.9C1929.4 1363.88 1932.89 1347.32 1924.86 1335.02C1916.59 1322.46 1900.02 1318.99 1887.73 1327.27C1874.9 1335.83 1854.05 1346.78 1826.79 1354.53C1822.78 1339.3 1816.38 1325.14 1807.56 1312.84L1808.35 1312.04C1829.74 1276.77 1839.08 1244.43 1843.36 1223.59C1846.3 1209.16 1836.68 1195 1822.25 1192.33C1807.56 1189.39 1793.66 1198.74 1790.99 1213.17C1788.05 1228.13 1781.1 1250.58 1767.2 1275.97C1753.58 1267.95 1738.87 1262.34 1722.57 1259.67C1722.85 1256.99 1722.85 1254.05 1722.04 1251.38C1712.42 1215.04 1697.46 1187.78 1686.5 1171.48C1678.49 1159.19 1661.91 1155.72 1649.62 1164C1637.33 1172.02 1633.86 1188.58 1641.87 1200.88C1650.43 1213.44 1661.65 1234.28 1669.4 1262.07C1653.9 1266.08 1639.73 1272.49 1626.91 1281.31C1625.84 1280.51 1625.04 1279.44 1623.97 1278.64C1590.03 1258.6 1559.03 1249.51 1538.73 1245.24C1524.29 1242.3 1510.14 1251.65 1507.19 1266.08C1504.25 1280.51 1513.61 1294.67 1528.04 1297.61C1542.73 1300.82 1565.17 1307.5 1590.31 1321.4C1582.28 1334.76 1576.94 1349.45 1574.53 1365.49C1572.93 1365.49 1571.32 1365.22 1569.72 1365.75C1531.51 1375.37 1503.46 1390.87 1486.35 1402.1C1474.06 1410.12 1470.58 1426.68 1478.86 1438.97C1486.89 1451.8 1503.98 1454.21 1515.75 1446.73C1528.3 1438.44 1549.15 1427.22 1576.67 1419.47C1580.68 1434.7 1587.36 1449.13 1596.44 1461.69C1595.37 1462.76 1594.31 1463.56 1593.78 1464.63C1573.2 1499.1 1564.11 1530.1 1560.1 1550.14C1557.42 1564.84 1566.78 1578.74 1581.21 1581.67C1597.51 1584.35 1610.07 1573.93 1612.47 1560.56C1615.41 1545.87 1622.37 1523.42 1636.26 1498.03C1649.36 1505.78 1663.79 1511.39 1679.28 1514.07C1688.9 1554.42 1704.93 1584.35 1716.96 1602.52C1724.71 1614.28 1740.75 1618.55 1754.11 1610Z" fill="white"/>
<path d="M2607.36 1327.27C2594.53 1335.83 2573.7 1346.78 2546.44 1354.53C2542.43 1339.3 2536.01 1325.14 2527.19 1312.84C2527.46 1312.58 2527.73 1312.31 2528 1312.04C2549.37 1276.77 2558.73 1244.43 2563.01 1223.59C2565.94 1209.16 2556.33 1195 2541.9 1192.33C2527.19 1189.39 2513.29 1198.74 2510.62 1213.17C2507.68 1228.13 2500.74 1250.58 2486.85 1275.97C2473.21 1267.95 2458.52 1262.34 2442.22 1259.67C2442.48 1256.99 2442.48 1254.05 2441.69 1251.38C2432.07 1215.04 2417.09 1187.78 2406.14 1171.48C2398.12 1159.19 2381.56 1155.72 2369.27 1164C2356.96 1172.02 2353.49 1188.58 2361.52 1200.88C2370.06 1213.44 2381.29 1234.28 2389.04 1262.07C2373.54 1266.08 2359.38 1272.49 2346.55 1281.31C2345.48 1280.51 2344.67 1279.44 2343.6 1278.64C2309.68 1258.6 2278.68 1249.51 2258.37 1245.24C2243.94 1242.3 2229.77 1251.65 2226.84 1266.08C2223.9 1280.51 2233.24 1294.67 2247.67 1297.61C2262.38 1300.82 2284.82 1307.5 2309.94 1321.4C2301.93 1334.76 2296.58 1349.45 2294.18 1365.49C2292.57 1365.49 2290.97 1365.22 2289.36 1365.75C2251.14 1375.37 2223.09 1390.87 2205.98 1402.1C2193.69 1410.12 2190.22 1426.68 2198.51 1438.97C2206.52 1451.8 2223.63 1454.21 2235.38 1446.73C2247.95 1438.44 2268.79 1427.22 2296.32 1419.47C2300.32 1434.7 2307 1449.13 2316.08 1461.69C2315.01 1462.76 2313.94 1463.56 2313.41 1464.63C2292.83 1499.1 2283.75 1530.1 2279.75 1550.14C2277.07 1564.84 2286.43 1578.74 2300.86 1581.67C2317.15 1584.35 2329.72 1573.93 2332.12 1560.56C2335.06 1545.87 2342.01 1523.42 2355.91 1498.03C2369 1505.78 2383.43 1511.39 2398.93 1514.07C2408.54 1554.42 2424.58 1584.35 2436.61 1602.52C2444.36 1614.28 2460.38 1618.55 2473.75 1610C2486.04 1601.72 2489.25 1585.15 2481.24 1572.86C2472.68 1560.03 2461.73 1539.18 2453.7 1511.93C2469.21 1507.92 2483.38 1501.51 2495.93 1492.69C2530.66 1513.8 2562.73 1524.22 2584.38 1528.5C2596.14 1531.7 2612.97 1523.69 2615.92 1507.65C2618.85 1493.22 2609.77 1479.06 2595.07 1476.12C2579.57 1472.91 2557.38 1465.97 2532.54 1452.34C2540.29 1439.24 2545.9 1424.81 2548.84 1409.31C2580.38 1401.83 2610.83 1388.74 2636.76 1371.9C2649.05 1363.88 2652.53 1347.32 2644.51 1335.02C2636.22 1322.46 2619.65 1318.99 2607.36 1327.27Z" fill="white"/>
<path d="M2770.37 930.711H1284.32V779.994C1284.32 728.687 1242.36 687 1191.06 687H1158.72C1144.03 687 1132 698.758 1132 713.723C1132 728.42 1144.03 740.445 1158.72 740.445H1191.06C1212.98 740.445 1230.88 758.082 1230.88 779.994V2060.28C1230.88 2074.97 1242.91 2087 1257.6 2087C1272.29 2087 1284.32 2074.97 1284.32 2060.28V1843.29H1518.94V1927.47C1518.94 1958.46 1544.06 1983.58 1575.06 1983.58H2134.37C2165.36 1983.58 2190.49 1958.46 2190.49 1927.47V1843.29H2770.37C2824.88 1843.29 2868.97 1799.2 2868.97 1744.68V1029.32C2868.97 974.802 2824.88 930.711 2770.37 930.711ZM1701.74 1688.3C1535.79 1688.3 1400.57 1553.62 1400.57 1387.13C1400.57 1220.38 1535.52 1085.7 1701.74 1085.7C1868.75 1085.7 2002.89 1220.92 2002.89 1387.13C2002.89 1554.42 1867.15 1688.3 1701.74 1688.3ZM2421.37 1688.3C2255.42 1688.3 2120.2 1553.62 2120.2 1387.13C2120.2 1220.38 2255.16 1085.7 2421.37 1085.7C2588.39 1085.7 2722.53 1220.92 2722.53 1387.13C2722.53 1554.42 2586.78 1688.3 2421.37 1688.3Z" fill="white"/>
</svg>
