<svg width="4000" height="4000" viewBox="0 0 4000 4000" fill="none" xmlns="http://www.w3.org/2000/svg">
<rect width="4000" height="4000" fill="#111111"/>
<path d="M1095.6 2659H1032.32L1128.73 2379.73H1204.82L1301.1 2659H1237.82L1167.87 2443.55H1165.69L1095.6 2659ZM1091.64 2549.23H1241.1V2595.32H1091.64V2549.23ZM1467.94 2569.82V2449.55H1526.03V2659H1470.26V2620.95H1468.07C1463.35 2633.23 1455.48 2643.09 1444.48 2650.55C1433.57 2658 1420.26 2661.73 1404.53 2661.73C1390.53 2661.73 1378.21 2658.55 1367.57 2652.18C1356.94 2645.82 1348.62 2636.77 1342.62 2625.05C1336.71 2613.32 1333.71 2599.27 1333.62 2582.91V2449.55H1391.71V2572.55C1391.8 2584.91 1395.12 2594.68 1401.66 2601.86C1408.21 2609.05 1416.98 2612.64 1427.98 2612.64C1434.98 2612.64 1441.53 2611.05 1447.62 2607.86C1453.71 2604.59 1458.62 2599.77 1462.35 2593.41C1466.16 2587.05 1468.03 2579.18 1467.94 2569.82ZM1683.9 2449.55V2493.18H1557.77V2449.55H1683.9ZM1586.4 2399.36H1644.49V2594.64C1644.49 2600 1645.31 2604.18 1646.95 2607.18C1648.59 2610.09 1650.86 2612.14 1653.77 2613.32C1656.77 2614.5 1660.22 2615.09 1664.13 2615.09C1666.86 2615.09 1669.59 2614.86 1672.31 2614.41C1675.04 2613.86 1677.13 2613.45 1678.59 2613.18L1687.72 2656.41C1684.81 2657.32 1680.72 2658.36 1675.45 2659.55C1670.18 2660.82 1663.77 2661.59 1656.22 2661.86C1642.22 2662.41 1629.95 2660.55 1619.4 2656.27C1608.95 2652 1600.81 2645.36 1594.99 2636.36C1589.18 2627.36 1586.31 2616 1586.4 2602.27V2399.36ZM1814.13 2663.09C1792.95 2663.09 1774.63 2658.59 1759.18 2649.59C1743.81 2640.5 1731.95 2627.86 1723.59 2611.68C1715.22 2595.41 1711.04 2576.55 1711.04 2555.09C1711.04 2533.45 1715.22 2514.55 1723.59 2498.36C1731.95 2482.09 1743.81 2469.45 1759.18 2460.45C1774.63 2451.36 1792.95 2446.82 1814.13 2446.82C1835.31 2446.82 1853.59 2451.36 1868.95 2460.45C1884.4 2469.45 1896.31 2482.09 1904.68 2498.36C1913.04 2514.55 1917.22 2533.45 1917.22 2555.09C1917.22 2576.55 1913.04 2595.41 1904.68 2611.68C1896.31 2627.86 1884.4 2640.5 1868.95 2649.59C1853.59 2658.59 1835.31 2663.09 1814.13 2663.09ZM1814.4 2618.09C1824.04 2618.09 1832.09 2615.36 1838.54 2609.91C1844.99 2604.36 1849.86 2596.82 1853.13 2587.27C1856.49 2577.73 1858.18 2566.86 1858.18 2554.68C1858.18 2542.5 1856.49 2531.64 1853.13 2522.09C1849.86 2512.55 1844.99 2505 1838.54 2499.45C1832.09 2493.91 1824.04 2491.14 1814.4 2491.14C1804.68 2491.14 1796.49 2493.91 1789.86 2499.45C1783.31 2505 1778.36 2512.55 1774.99 2522.09C1771.72 2531.64 1770.09 2542.5 1770.09 2554.68C1770.09 2566.86 1771.72 2577.73 1774.99 2587.27C1778.36 2596.82 1783.31 2604.36 1789.86 2609.91C1796.49 2615.36 1804.68 2618.09 1814.4 2618.09ZM2044.96 2659V2379.73H2229.87V2428.41H2104.01V2494.95H2217.6V2543.64H2104.01V2659H2044.96ZM2325.6 2662.95C2312.23 2662.95 2300.32 2660.64 2289.87 2656C2279.41 2651.27 2271.14 2644.32 2265.05 2635.14C2259.05 2625.86 2256.05 2614.32 2256.05 2600.5C2256.05 2588.86 2258.19 2579.09 2262.46 2571.18C2266.73 2563.27 2272.55 2556.91 2279.91 2552.09C2287.28 2547.27 2295.64 2543.64 2305.01 2541.18C2314.46 2538.73 2324.37 2537 2334.73 2536C2346.91 2534.73 2356.73 2533.55 2364.19 2532.45C2371.64 2531.27 2377.05 2529.55 2380.41 2527.27C2383.78 2525 2385.46 2521.64 2385.46 2517.18V2516.36C2385.46 2507.73 2382.73 2501.05 2377.28 2496.32C2371.91 2491.59 2364.28 2489.23 2354.37 2489.23C2343.91 2489.23 2335.6 2491.55 2329.41 2496.18C2323.23 2500.73 2319.14 2506.45 2317.14 2513.36L2263.41 2509C2266.14 2496.27 2271.51 2485.27 2279.51 2476C2287.51 2466.64 2297.82 2459.45 2310.46 2454.45C2323.19 2449.36 2337.91 2446.82 2354.64 2446.82C2366.28 2446.82 2377.41 2448.18 2388.05 2450.91C2398.78 2453.64 2408.28 2457.86 2416.55 2463.59C2424.91 2469.32 2431.51 2476.68 2436.32 2485.68C2441.14 2494.59 2443.55 2505.27 2443.55 2517.73V2659H2388.46V2629.95H2386.82C2383.46 2636.5 2378.96 2642.27 2373.32 2647.27C2367.69 2652.18 2360.91 2656.05 2353.01 2658.86C2345.1 2661.59 2335.96 2662.95 2325.6 2662.95ZM2342.23 2622.86C2350.78 2622.86 2358.32 2621.18 2364.87 2617.82C2371.41 2614.36 2376.55 2609.73 2380.28 2603.91C2384.01 2598.09 2385.87 2591.5 2385.87 2584.14V2561.91C2384.05 2563.09 2381.55 2564.18 2378.37 2565.18C2375.28 2566.09 2371.78 2566.95 2367.87 2567.77C2363.96 2568.5 2360.05 2569.18 2356.14 2569.82C2352.23 2570.36 2348.69 2570.86 2345.51 2571.32C2338.69 2572.32 2332.73 2573.91 2327.64 2576.09C2322.55 2578.27 2318.6 2581.23 2315.78 2584.95C2312.96 2588.59 2311.55 2593.14 2311.55 2598.59C2311.55 2606.5 2314.41 2612.55 2320.14 2616.73C2325.96 2620.82 2333.32 2622.86 2342.23 2622.86ZM2488.62 2659V2449.55H2544.94V2486.09H2547.12C2550.94 2473.09 2557.35 2463.27 2566.35 2456.64C2575.35 2449.91 2585.71 2446.55 2597.44 2446.55C2600.35 2446.55 2603.48 2446.73 2606.85 2447.09C2610.21 2447.45 2613.16 2447.95 2615.71 2448.59V2500.14C2612.98 2499.32 2609.21 2498.59 2604.39 2497.95C2599.57 2497.32 2595.16 2497 2591.16 2497C2582.62 2497 2574.98 2498.86 2568.26 2502.59C2561.62 2506.23 2556.35 2511.32 2552.44 2517.86C2548.62 2524.41 2546.71 2531.95 2546.71 2540.5V2659H2488.62ZM2645.74 2659V2449.55H2701.11V2486.5H2703.56C2707.93 2474.23 2715.2 2464.55 2725.38 2457.45C2735.56 2450.36 2747.74 2446.82 2761.93 2446.82C2776.29 2446.82 2788.52 2450.41 2798.61 2457.59C2808.7 2464.68 2815.43 2474.32 2818.79 2486.5H2820.97C2825.24 2474.5 2832.97 2464.91 2844.15 2457.73C2855.43 2450.45 2868.74 2446.82 2884.11 2446.82C2903.65 2446.82 2919.52 2453.05 2931.7 2465.5C2943.97 2477.86 2950.11 2495.41 2950.11 2518.14V2659H2892.15V2529.59C2892.15 2517.95 2889.06 2509.23 2882.88 2503.41C2876.7 2497.59 2868.97 2494.68 2859.7 2494.68C2849.15 2494.68 2840.93 2498.05 2835.02 2504.77C2829.11 2511.41 2826.15 2520.18 2826.15 2531.09V2659H2769.84V2528.36C2769.84 2518.09 2766.88 2509.91 2760.97 2503.82C2755.15 2497.73 2747.47 2494.68 2737.93 2494.68C2731.47 2494.68 2725.65 2496.32 2720.47 2499.59C2715.38 2502.77 2711.34 2507.27 2708.34 2513.09C2705.34 2518.82 2703.84 2525.55 2703.84 2533.27V2659H2645.74Z" fill="white"/>
<rect x="798" y="2952" width="2400" height="500" rx="250" fill="url(#paint0_linear_267_1027)"/>
<path d="M1151.61 3297.55C1136.58 3297.55 1123.16 3295.21 1111.34 3290.55C1099.58 3285.88 1090.31 3279.55 1083.52 3271.55C1076.8 3263.55 1073.43 3254.52 1073.43 3244.45C1073.43 3236.76 1075.34 3229.73 1079.16 3223.36C1083.04 3217 1088.25 3211.73 1094.8 3207.55C1101.34 3203.3 1108.64 3200.58 1116.7 3199.36V3197.91C1106.1 3196.09 1097.37 3191.39 1090.52 3183.82C1083.73 3176.18 1080.34 3167.18 1080.34 3156.82C1080.34 3147.06 1083.43 3138.39 1089.61 3130.82C1095.8 3123.18 1104.25 3117.18 1114.98 3112.82C1125.7 3108.45 1137.92 3106.27 1151.61 3106.27C1165.31 3106.27 1177.52 3108.48 1188.25 3112.91C1198.98 3117.27 1207.43 3123.27 1213.61 3130.91C1219.8 3138.48 1222.89 3147.12 1222.89 3156.82C1222.89 3167.24 1219.43 3176.24 1212.52 3183.82C1205.61 3191.39 1196.95 3196.09 1186.52 3197.91V3199.36C1194.52 3200.58 1201.8 3203.3 1208.34 3207.55C1214.89 3211.73 1220.1 3217 1223.98 3223.36C1227.86 3229.73 1229.8 3236.76 1229.8 3244.45C1229.8 3254.52 1226.4 3263.55 1219.61 3271.55C1212.89 3279.55 1203.61 3285.88 1191.8 3290.55C1180.04 3295.21 1166.64 3297.55 1151.61 3297.55ZM1151.61 3262.64C1156.4 3262.64 1160.64 3261.67 1164.34 3259.73C1168.04 3257.79 1170.95 3255.12 1173.07 3251.73C1175.25 3248.27 1176.34 3244.39 1176.34 3240.09C1176.34 3235.79 1175.25 3231.97 1173.07 3228.64C1170.95 3225.3 1168.04 3222.7 1164.34 3220.82C1160.64 3218.88 1156.4 3217.91 1151.61 3217.91C1146.89 3217.91 1142.64 3218.88 1138.89 3220.82C1135.19 3222.7 1132.25 3225.3 1130.07 3228.64C1127.95 3231.97 1126.89 3235.79 1126.89 3240.09C1126.89 3244.39 1127.95 3248.24 1130.07 3251.64C1132.25 3255.03 1135.19 3257.73 1138.89 3259.73C1142.64 3261.67 1146.89 3262.64 1151.61 3262.64ZM1151.61 3183C1155.86 3183 1159.61 3182.12 1162.89 3180.36C1166.16 3178.61 1168.73 3176.18 1170.61 3173.09C1172.49 3170 1173.43 3166.52 1173.43 3162.64C1173.43 3158.76 1172.49 3155.33 1170.61 3152.36C1168.73 3149.33 1166.16 3146.97 1162.89 3145.27C1159.61 3143.52 1155.86 3142.64 1151.61 3142.64C1147.43 3142.64 1143.67 3143.52 1140.34 3145.27C1137.07 3146.97 1134.49 3149.33 1132.61 3152.36C1130.73 3155.33 1129.8 3158.76 1129.8 3162.64C1129.8 3166.52 1130.73 3170 1132.61 3173.09C1134.49 3176.12 1137.07 3178.55 1140.34 3180.36C1143.67 3182.12 1147.43 3183 1151.61 3183ZM1296.45 3269.55L1295.73 3279.73C1295.12 3288.45 1293.67 3296.82 1291.36 3304.82C1289.12 3312.82 1286.73 3319.91 1284.18 3326.09C1281.7 3332.27 1279.73 3337.06 1278.27 3340.45H1247.36C1248.33 3337.06 1249.7 3332.15 1251.45 3325.73C1253.27 3319.36 1254.91 3312.15 1256.36 3304.09C1257.88 3296.09 1258.64 3287.97 1258.64 3279.73V3269.55H1296.45ZM1396.14 3108.82V3295H1345.59V3155.36H1344.5L1303.77 3179.73V3136.82L1349.59 3108.82H1396.14ZM1507.09 3106.27C1517.94 3106.27 1528.21 3108 1537.91 3111.45C1547.61 3114.85 1556.18 3120.21 1563.64 3127.55C1571.15 3134.88 1577.03 3144.45 1581.27 3156.27C1585.58 3168.03 1587.76 3182.27 1587.82 3199C1587.88 3214.27 1585.97 3228 1582.09 3240.18C1578.27 3252.3 1572.79 3262.64 1565.64 3271.18C1558.55 3279.73 1550 3286.27 1540 3290.82C1530.06 3295.3 1518.97 3297.55 1506.73 3297.55C1492.97 3297.55 1480.88 3294.91 1470.45 3289.64C1460.03 3284.36 1451.73 3277.27 1445.55 3268.36C1439.36 3259.45 1435.76 3249.55 1434.73 3238.64H1484.55C1485.76 3244.27 1488.42 3248.36 1492.55 3250.91C1496.67 3253.39 1501.39 3254.64 1506.73 3254.64C1517.39 3254.64 1525.18 3250.03 1530.09 3240.82C1535.06 3231.55 1537.58 3219.18 1537.64 3203.73H1536.55C1534.18 3209.42 1530.61 3214.3 1525.82 3218.36C1521.03 3222.42 1515.45 3225.55 1509.09 3227.73C1502.73 3229.91 1496 3231 1488.91 3231C1477.7 3231 1467.88 3228.48 1459.45 3223.45C1451.03 3218.36 1444.45 3211.42 1439.73 3202.64C1435 3193.79 1432.61 3183.73 1432.55 3172.45C1432.48 3159.24 1435.61 3147.67 1441.91 3137.73C1448.21 3127.79 1456.97 3120.06 1468.18 3114.55C1479.39 3109.03 1492.36 3106.27 1507.09 3106.27ZM1507.45 3144.45C1502.42 3144.45 1497.94 3145.61 1494 3147.91C1490.12 3150.21 1487.06 3153.33 1484.82 3157.27C1482.64 3161.21 1481.58 3165.67 1481.64 3170.64C1481.7 3175.61 1482.82 3180.06 1485 3184C1487.24 3187.94 1490.27 3191.06 1494.09 3193.36C1497.97 3195.67 1502.42 3196.82 1507.45 3196.82C1511.15 3196.82 1514.58 3196.18 1517.73 3194.91C1520.88 3193.58 1523.61 3191.73 1525.91 3189.36C1528.27 3186.94 1530.09 3184.15 1531.36 3181C1532.7 3177.79 1533.33 3174.33 1533.27 3170.64C1533.21 3165.67 1532.06 3161.21 1529.82 3157.27C1527.58 3153.33 1524.52 3150.21 1520.64 3147.91C1516.76 3145.61 1512.36 3144.45 1507.45 3144.45ZM1609.61 3295V3258.64L1679.07 3201.18C1683.67 3197.36 1687.61 3193.79 1690.89 3190.45C1694.22 3187.06 1696.77 3183.58 1698.52 3180C1700.34 3176.42 1701.25 3172.45 1701.25 3168.09C1701.25 3163.3 1700.22 3159.21 1698.16 3155.82C1696.16 3152.42 1693.37 3149.82 1689.8 3148C1686.22 3146.12 1682.1 3145.18 1677.43 3145.18C1672.77 3145.18 1668.64 3146.12 1665.07 3148C1661.55 3149.88 1658.83 3152.64 1656.89 3156.27C1654.95 3159.91 1653.98 3164.33 1653.98 3169.55H1605.98C1605.98 3156.45 1608.92 3145.18 1614.8 3135.73C1620.67 3126.27 1628.98 3119 1639.7 3113.91C1650.43 3108.82 1663.01 3106.27 1677.43 3106.27C1692.34 3106.27 1705.25 3108.67 1716.16 3113.45C1727.13 3118.18 1735.58 3124.85 1741.52 3133.45C1747.52 3142.06 1750.52 3152.15 1750.52 3163.73C1750.52 3170.88 1749.04 3178 1746.07 3185.09C1743.1 3192.12 1737.77 3199.91 1730.07 3208.45C1722.37 3217 1711.43 3227.18 1697.25 3239L1679.8 3253.55V3254.64H1752.52V3295H1609.61ZM1946.66 3170.27C1945.87 3167.06 1944.63 3164.24 1942.93 3161.82C1941.23 3159.33 1939.11 3157.24 1936.57 3155.55C1934.08 3153.79 1931.17 3152.48 1927.84 3151.64C1924.57 3150.73 1920.96 3150.27 1917.02 3150.27C1908.54 3150.27 1901.3 3152.3 1895.3 3156.36C1889.36 3160.42 1884.81 3166.27 1881.66 3173.91C1878.57 3181.55 1877.02 3190.76 1877.02 3201.55C1877.02 3212.45 1878.51 3221.79 1881.48 3229.55C1884.45 3237.3 1888.87 3243.24 1894.75 3247.36C1900.63 3251.48 1907.93 3253.55 1916.66 3253.55C1924.36 3253.55 1930.75 3252.42 1935.84 3250.18C1940.99 3247.94 1944.84 3244.76 1947.39 3240.64C1949.93 3236.52 1951.2 3231.67 1951.2 3226.09L1959.93 3227H1917.39V3191H1999.93V3216.82C1999.93 3233.79 1996.33 3248.3 1989.11 3260.36C1981.96 3272.36 1972.08 3281.58 1959.48 3288C1946.93 3294.36 1932.54 3297.55 1916.3 3297.55C1898.17 3297.55 1882.27 3293.7 1868.57 3286C1854.87 3278.3 1844.17 3267.33 1836.48 3253.09C1828.84 3238.85 1825.02 3221.91 1825.02 3202.27C1825.02 3186.88 1827.36 3173.24 1832.02 3161.36C1836.75 3149.48 1843.3 3139.45 1851.66 3131.27C1860.02 3123.03 1869.69 3116.82 1880.66 3112.64C1891.63 3108.39 1903.39 3106.27 1915.93 3106.27C1926.96 3106.27 1937.2 3107.85 1946.66 3111C1956.17 3114.09 1964.57 3118.52 1971.84 3124.27C1979.17 3129.97 1985.08 3136.73 1989.57 3144.55C1994.05 3152.36 1996.78 3160.94 1997.75 3170.27H1946.66ZM2023.5 3295V3108.82H2074.05V3254.27H2149.32V3295H2023.5ZM2128.36 3108.82H2184.73L2221.09 3184.45H2222.55L2258.91 3108.82H2315.27L2246.91 3236.45V3295H2196.73V3236.45L2128.36 3108.82ZM2331.75 3295V3108.82H2412.11C2425.93 3108.82 2438.02 3111.55 2448.39 3117C2458.75 3122.45 2466.81 3130.12 2472.57 3140C2478.33 3149.88 2481.2 3161.42 2481.2 3174.64C2481.2 3187.97 2478.23 3199.52 2472.3 3209.27C2466.42 3219.03 2458.14 3226.55 2447.48 3231.82C2436.87 3237.09 2424.48 3239.73 2410.3 3239.73H2362.3V3200.45H2400.11C2406.05 3200.45 2411.11 3199.42 2415.3 3197.36C2419.54 3195.24 2422.78 3192.24 2425.02 3188.36C2427.33 3184.48 2428.48 3179.91 2428.48 3174.64C2428.48 3169.3 2427.33 3164.76 2425.02 3161C2422.78 3157.18 2419.54 3154.27 2415.3 3152.27C2411.11 3150.21 2406.05 3149.18 2400.11 3149.18H2382.3V3295H2331.75ZM2499.75 3295V3108.82H2550.3V3181.55H2617.2V3108.82H2667.75V3295H2617.2V3222.27H2550.3V3295H2499.75ZM2783.75 3100.09L2723.75 3323H2681.2L2741.2 3100.09H2783.75ZM2925.61 3200.82H2879.43C2879.19 3197.97 2878.19 3195.52 2876.43 3193.45C2874.67 3191.39 2872.4 3189.82 2869.61 3188.73C2866.89 3187.58 2863.86 3187 2860.52 3187C2856.22 3187 2852.52 3187.79 2849.43 3189.36C2846.34 3190.94 2844.83 3193.18 2844.89 3196.09C2844.83 3198.15 2845.7 3200.06 2847.52 3201.82C2849.4 3203.58 2853.01 3204.94 2858.34 3205.91L2886.7 3211C2901.01 3213.61 2911.64 3218 2918.61 3224.18C2925.64 3230.3 2929.19 3238.52 2929.25 3248.82C2929.19 3258.76 2926.22 3267.39 2920.34 3274.73C2914.52 3282 2906.55 3287.64 2896.43 3291.64C2886.37 3295.58 2874.89 3297.55 2861.98 3297.55C2840.64 3297.55 2823.95 3293.18 2811.89 3284.45C2799.89 3275.73 2793.19 3264.21 2791.8 3249.91H2841.61C2842.28 3254.33 2844.46 3257.76 2848.16 3260.18C2851.92 3262.55 2856.64 3263.73 2862.34 3263.73C2866.95 3263.73 2870.73 3262.94 2873.7 3261.36C2876.73 3259.79 2878.28 3257.55 2878.34 3254.64C2878.28 3251.97 2876.95 3249.85 2874.34 3248.27C2871.8 3246.7 2867.8 3245.42 2862.34 3244.45L2837.61 3240.09C2823.37 3237.61 2812.7 3232.88 2805.61 3225.91C2798.52 3218.94 2795.01 3209.97 2795.07 3199C2795.01 3189.3 2797.55 3181.09 2802.7 3174.36C2807.92 3167.58 2815.34 3162.42 2824.98 3158.91C2834.67 3155.33 2846.16 3153.55 2859.43 3153.55C2879.61 3153.55 2895.52 3157.73 2907.16 3166.09C2918.86 3174.45 2925.01 3186.03 2925.61 3200.82Z" fill="white"/>
<g clip-path="url(#clip0_267_1027)">
<path d="M2576.95 687H1423.05C1355.2 687 1300 742.196 1300 810.047V974.109C1300 1041.96 1355.2 1097.16 1423.05 1097.16H2576.95C2644.8 1097.16 2700 1041.96 2700 974.109V810.047C2700 742.196 2644.8 687 2576.95 687ZM1505.08 933.094C1482.43 933.094 1464.06 914.73 1464.06 892.078C1464.06 869.421 1482.43 851.062 1505.08 851.062C1527.73 851.062 1546.09 869.421 1546.09 892.078C1546.09 914.73 1527.73 933.094 1505.08 933.094ZM1669.14 933.094C1646.49 933.094 1628.12 914.73 1628.12 892.078C1628.12 869.421 1646.49 851.062 1669.14 851.062C1691.79 851.062 1710.16 869.421 1710.16 892.078C1710.16 914.73 1691.79 933.094 1669.14 933.094ZM1833.2 933.094C1810.55 933.094 1792.19 914.73 1792.19 892.078C1792.19 869.421 1810.55 851.062 1833.2 851.062C1855.85 851.062 1874.22 869.421 1874.22 892.078C1874.22 914.73 1855.85 933.094 1833.2 933.094ZM2494.92 933.094H2166.8C2144.13 933.094 2125.78 914.749 2125.78 892.078C2125.78 869.407 2144.13 851.062 2166.8 851.062H2494.92C2517.59 851.062 2535.94 869.407 2535.94 892.078C2535.94 914.749 2517.59 933.094 2494.92 933.094Z" fill="white"/>
<path d="M2576.95 1181.92H1423.05C1355.2 1181.92 1300 1237.12 1300 1304.97V1469.03C1300 1536.88 1355.2 1592.08 1423.05 1592.08H2576.95C2644.8 1592.08 2700 1536.88 2700 1469.03V1304.97C2700 1237.12 2644.8 1181.92 2576.95 1181.92ZM1505.08 1428.02C1482.43 1428.02 1464.06 1409.65 1464.06 1387C1464.06 1364.34 1482.43 1345.98 1505.08 1345.98C1527.73 1345.98 1546.09 1364.34 1546.09 1387C1546.09 1409.65 1527.73 1428.02 1505.08 1428.02ZM1669.14 1428.02C1646.49 1428.02 1628.12 1409.65 1628.12 1387C1628.12 1364.34 1646.49 1345.98 1669.14 1345.98C1691.79 1345.98 1710.16 1364.34 1710.16 1387C1710.16 1409.65 1691.79 1428.02 1669.14 1428.02ZM1833.2 1428.02C1810.55 1428.02 1792.19 1409.65 1792.19 1387C1792.19 1364.34 1810.55 1345.98 1833.2 1345.98C1855.85 1345.98 1874.22 1364.34 1874.22 1387C1874.22 1409.65 1855.85 1428.02 1833.2 1428.02ZM2494.92 1428.02H2166.8C2144.13 1428.02 2125.78 1409.67 2125.78 1387C2125.78 1364.33 2144.13 1345.98 2166.8 1345.98H2494.92C2517.59 1345.98 2535.94 1364.33 2535.94 1387C2535.94 1409.67 2517.59 1428.02 2494.92 1428.02Z" fill="white"/>
<path d="M2576.95 1676.84H1423.05C1355.2 1676.84 1300 1732.04 1300 1799.89V1963.95C1300 2031.8 1355.2 2087 1423.05 2087H2576.95C2644.8 2087 2700 2031.8 2700 1963.95V1799.89C2700 1732.04 2644.8 1676.84 2576.95 1676.84ZM1505.08 1922.94C1482.43 1922.94 1464.06 1904.57 1464.06 1881.92C1464.06 1859.26 1482.43 1840.91 1505.08 1840.91C1527.73 1840.91 1546.09 1859.26 1546.09 1881.92C1546.09 1904.57 1527.73 1922.94 1505.08 1922.94ZM1669.14 1922.94C1646.49 1922.94 1628.12 1904.57 1628.12 1881.92C1628.12 1859.26 1646.49 1840.91 1669.14 1840.91C1691.79 1840.91 1710.16 1859.26 1710.16 1881.92C1710.16 1904.57 1691.79 1922.94 1669.14 1922.94ZM1833.2 1922.94C1810.55 1922.94 1792.19 1904.57 1792.19 1881.92C1792.19 1859.26 1810.55 1840.91 1833.2 1840.91C1855.85 1840.91 1874.22 1859.26 1874.22 1881.92C1874.22 1904.57 1855.85 1922.94 1833.2 1922.94ZM2494.92 1922.94H2166.8C2144.13 1922.94 2125.78 1904.59 2125.78 1881.92C2125.78 1859.25 2144.13 1840.91 2166.8 1840.91H2494.92C2517.59 1840.91 2535.94 1859.25 2535.94 1881.92C2535.94 1904.59 2517.59 1922.94 2494.92 1922.94Z" fill="white"/>
</g>
<defs>
<linearGradient id="paint0_linear_267_1027" x1="376.857" y1="2835.5" x2="3739.21" y2="3795.85" gradientUnits="userSpaceOnUse">
<stop stop-color="#40C9FF"/>
<stop offset="1" stop-color="#E81CFF"/>
</linearGradient>
<clipPath id="clip0_267_1027">
<rect width="1400" height="1400" fill="white" transform="translate(1300 687)"/>
</clipPath>
</defs>
</svg>
