<svg width="22" height="24" viewBox="0 0 22 24" fill="none" xmlns="http://www.w3.org/2000/svg">
<path d="M11 12.5714C14.4715 12.5714 17.2857 9.75722 17.2857 6.28571C17.2857 2.81421 14.4715 0 11 0C7.52849 0 4.71428 2.81421 4.71428 6.28571C4.71428 9.75722 7.52849 12.5714 11 12.5714Z" fill="white"/>
<path d="M2.35714 23.5714H12.0686C10.6889 22.4656 9.7753 20.8817 9.50896 19.1337C9.24262 17.3858 9.64301 15.6016 10.6307 14.135C8.59946 14.0341 6.68552 13.1531 5.28786 11.6757C3.72106 12.3371 2.38391 13.4456 1.44345 14.8625C0.502991 16.2795 0.000932466 17.9422 0 19.6429V21.2143C0.00186536 21.8389 0.250805 22.4373 0.692452 22.879C1.1341 23.3206 1.73256 23.5696 2.35714 23.5714Z" fill="white"/>
<path d="M11 18.0714C11 19.1592 11.3226 20.2226 11.9269 21.1271C12.5313 22.0315 13.3902 22.7365 14.3952 23.1528C15.4002 23.569 16.5061 23.678 17.573 23.4657C18.6399 23.2535 19.6199 22.7297 20.3891 21.9605C21.1583 21.1913 21.6821 20.2113 21.8943 19.1444C22.1065 18.0775 21.9976 16.9717 21.5813 15.9667C21.1651 14.9617 20.4601 14.1027 19.5556 13.4983C18.6512 12.894 17.5878 12.5714 16.5 12.5714C15.0418 12.5731 13.6438 13.1531 12.6128 14.1842C11.5817 15.2153 11.0017 16.6132 11 18.0714ZM17.2857 16.5V17.2857H18.0714C18.2798 17.2857 18.4797 17.3685 18.627 17.5158C18.7744 17.6632 18.8571 17.863 18.8571 18.0714C18.8571 18.2798 18.7744 18.4797 18.627 18.627C18.4797 18.7744 18.2798 18.8571 18.0714 18.8571H17.2857V19.6429C17.2857 19.8512 17.2029 20.0511 17.0556 20.1984C16.9082 20.3458 16.7084 20.4286 16.5 20.4286C16.2916 20.4286 16.0918 20.3458 15.9444 20.1984C15.7971 20.0511 15.7143 19.8512 15.7143 19.6429V18.8571H14.9286C14.7202 18.8571 14.5203 18.7744 14.373 18.627C14.2256 18.4797 14.1429 18.2798 14.1429 18.0714C14.1429 17.863 14.2256 17.6632 14.373 17.5158C14.5203 17.3685 14.7202 17.2857 14.9286 17.2857H15.7143V16.5C15.7143 16.2916 15.7971 16.0918 15.9444 15.9444C16.0918 15.7971 16.2916 15.7143 16.5 15.7143C16.7084 15.7143 16.9082 15.7971 17.0556 15.9444C17.2029 16.0918 17.2857 16.2916 17.2857 16.5Z" fill="white"/>
</svg>
