<svg width="12" height="12" viewBox="0 0 12 12" fill="none" xmlns="http://www.w3.org/2000/svg">
<g clip-path="url(#clip0_159_522)">
<path d="M3.05246 3.24063L2.01283 3.32095C1.72354 3.34331 1.46589 3.49493 1.30591 3.73692L0.106927 5.55031C-0.0144081 5.73382 -0.033697 5.96349 0.0552945 6.16467C0.144309 6.36586 0.327238 6.50606 0.544619 6.53974L1.49653 6.68716C1.7192 5.50545 2.25226 4.32665 3.05246 3.24063Z" fill="white"/>
<path d="M5.31281 10.5035L5.46025 11.4554C5.49393 11.6727 5.63413 11.8557 5.83529 11.9447C5.91899 11.9817 6.00758 12 6.09573 12C6.21955 12 6.3425 11.9639 6.44968 11.893L8.26312 10.6941C8.50511 10.5341 8.65672 10.2764 8.67904 9.98716L8.75936 8.94752C7.67332 9.74774 6.49454 10.2808 5.31281 10.5035Z" fill="white"/>
<path d="M4.9548 9.84367C4.98784 9.84367 5.02108 9.84096 5.05424 9.83542C5.54933 9.75264 6.02652 9.61319 6.48172 9.43066L2.56932 5.51827C2.38679 5.97345 2.24734 6.45063 2.16456 6.94574C2.13194 7.14091 2.1974 7.33972 2.33729 7.47965L4.52034 9.66269C4.6365 9.77882 4.79327 9.84367 4.9548 9.84367Z" fill="white"/>
<path d="M11.0431 5.32034C12.0005 3.4694 12.036 1.51342 11.9859 0.596081C11.9688 0.281763 11.7182 0.0311716 11.4039 0.014039C11.2545 0.00588277 11.0775 0 10.878 0C9.85222 0 8.22916 0.155366 6.67962 0.956852C5.44818 1.59381 3.83342 2.99632 2.88074 4.83948C2.89199 4.84827 2.90298 4.85759 2.91334 4.86795L7.13206 9.08667C7.14242 9.09703 7.15172 9.108 7.16051 9.11925C9.00367 8.16655 10.4062 6.55178 11.0431 5.32034ZM6.97723 2.53686C7.66256 1.85152 8.77773 1.85145 9.46311 2.53686C9.79512 2.86884 9.97796 3.31029 9.97796 3.77981C9.97796 4.24933 9.79512 4.69077 9.46311 5.02276C9.12048 5.36539 8.67025 5.53674 8.22018 5.53679C7.76997 5.53681 7.31995 5.36548 6.97723 5.02276C6.64522 4.69077 6.46236 4.24933 6.46236 3.77981C6.46236 3.31029 6.64522 2.86884 6.97723 2.53686Z" fill="white"/>
<path d="M7.47443 4.52557C7.88565 4.93678 8.55479 4.93681 8.966 4.52557C9.16519 4.32635 9.2749 4.06151 9.2749 3.77979C9.2749 3.49807 9.16519 3.23323 8.966 3.03403C8.7604 2.82842 8.49031 2.72562 8.22021 2.72562C7.95014 2.72562 7.68005 2.82842 7.47446 3.03403C7.27526 3.23323 7.16553 3.49807 7.16553 3.77979C7.16553 4.06151 7.27524 4.32638 7.47443 4.52557Z" fill="white"/>
<path d="M0.358715 9.88911C0.448692 9.88911 0.538668 9.8548 0.607293 9.78613L1.7551 8.63832C1.8924 8.50102 1.8924 8.27844 1.7551 8.14114C1.61782 8.00384 1.39522 8.00384 1.25792 8.14114L0.110114 9.28895C-0.0271831 9.42624 -0.0271831 9.64883 0.110114 9.78613C0.178762 9.85477 0.268739 9.88911 0.358715 9.88911Z" fill="white"/>
<path d="M2.807 9.19303C2.66973 9.05574 2.44712 9.05574 2.30982 9.19303L0.103064 11.3998C-0.0342327 11.5371 -0.0342327 11.7597 0.103064 11.897C0.171713 11.9656 0.261689 11.9999 0.351666 11.9999C0.441642 11.9999 0.531619 11.9656 0.600244 11.8969L2.80698 9.69021C2.9443 9.55291 2.9443 9.33033 2.807 9.19303Z" fill="white"/>
<path d="M3.36169 10.2449L2.2139 11.3927C2.07661 11.53 2.07661 11.7526 2.2139 11.8899C2.28255 11.9586 2.37253 11.9929 2.46248 11.9929C2.55244 11.9929 2.64244 11.9586 2.71106 11.8899L3.85887 10.7421C3.99616 10.6048 3.99616 10.3822 3.85887 10.2449C3.72159 10.1076 3.49898 10.1076 3.36169 10.2449Z" fill="white"/>
</g>
<defs>
<clipPath id="clip0_159_522">
<rect width="12" height="12" fill="white"/>
</clipPath>
</defs>
</svg>
