<svg width="24" height="24" viewBox="0 0 24 24" fill="none" xmlns="http://www.w3.org/2000/svg">
<circle cx="12" cy="12" r="12" fill="#2E2E2E"/>
<g clip-path="url(#clip0_305_172)">
<path d="M8.61352 8.25H8.69263C8.79114 8.26354 8.87622 8.30613 8.94787 8.37778C10.0893 9.51914 11.23 10.6597 12.3698 11.7996C12.3706 11.8003 12.3715 11.8009 12.3724 11.8013C12.3734 11.8018 12.3744 11.802 12.3755 11.802C12.3765 11.802 12.3776 11.8018 12.3785 11.8013C12.3795 11.8009 12.3804 11.8003 12.3811 11.7996C13.5225 10.6581 14.6642 9.51618 15.8062 8.37375C15.8753 8.30457 15.9595 8.26332 16.0585 8.25H16.137C16.3442 8.28609 16.4652 8.40748 16.5 8.61416V8.6907C16.4867 8.79017 16.4387 8.88126 16.3559 8.96398C15.2206 10.0994 14.0856 11.2344 12.951 12.369C12.9503 12.3698 12.9496 12.3707 12.9492 12.3718C12.9488 12.3728 12.9486 12.3739 12.9486 12.375C12.9486 12.3761 12.9488 12.3772 12.9492 12.3782C12.9496 12.3793 12.9503 12.3802 12.951 12.381C14.0931 13.5229 15.2354 14.6653 16.378 15.8083C16.4484 15.8787 16.489 15.9641 16.5 16.0645V16.1336C16.4643 16.348 16.3389 16.4701 16.1236 16.5H16.0598C15.9604 16.4865 15.87 16.439 15.7884 16.3576C14.6522 15.2216 13.5165 14.0859 12.3813 12.9506C12.3797 12.949 12.3776 12.9481 12.3754 12.9481C12.3732 12.948 12.3711 12.9489 12.3695 12.9504C11.2353 14.0849 10.1001 15.2201 8.96398 16.3559C8.88051 16.4394 8.78856 16.4874 8.68812 16.5H8.62399C8.41194 16.4694 8.28728 16.3476 8.25 16.1346V16.0609C8.26343 15.9609 8.29684 15.8842 8.35022 15.8307C9.49824 14.6825 10.6479 13.5328 11.7991 12.3816C11.8035 12.3772 11.8035 12.3728 11.7991 12.3684C10.693 11.2624 9.5859 10.1552 8.47784 9.04696C8.39094 8.96006 8.34185 8.90882 8.33057 8.89324C8.28792 8.83437 8.26106 8.76691 8.25 8.69086V8.61287C8.28663 8.40651 8.4078 8.28556 8.61352 8.25Z" fill="#8C8C8C"/>
</g>
<defs>
<clipPath id="clip0_305_172">
<rect width="8.25" height="8.25" fill="white" transform="translate(8.25 8.25)"/>
</clipPath>
</defs>
</svg>
