<svg width="32" height="32" viewBox="0 0 32 32" fill="none" xmlns="http://www.w3.org/2000/svg">
<circle cx="16" cy="16" r="16" fill="#222224"/>
<g clip-path="url(#clip0_305_172)">
<path d="M11.4847 11H11.5902C11.7215 11.018 11.835 11.0748 11.9305 11.1704C13.4524 12.6922 14.9733 14.213 16.4931 15.7328C16.4941 15.7338 16.4953 15.7346 16.4966 15.7351C16.4979 15.7357 16.4992 15.736 16.5006 15.736C16.502 15.736 16.5034 15.7357 16.5047 15.7351C16.506 15.7346 16.5072 15.7338 16.5082 15.7328C18.03 14.2108 19.5522 12.6882 21.0749 11.165C21.1671 11.0728 21.2793 11.0178 21.4113 11H21.516C21.7922 11.0481 21.9536 11.21 22 11.4855V11.5876C21.9822 11.7202 21.9182 11.8417 21.8079 11.952C20.2941 13.4659 18.7809 14.9793 17.2681 16.4921C17.267 16.4931 17.2662 16.4943 17.2656 16.4957C17.265 16.4971 17.2647 16.4985 17.2647 16.5C17.2647 16.5015 17.265 16.5029 17.2656 16.5043C17.2662 16.5057 17.267 16.5069 17.2681 16.5079C18.7907 18.0305 20.3138 19.5537 21.8374 21.0777C21.9312 21.1716 21.9854 21.2855 22 21.4193V21.5114C21.9524 21.7973 21.7852 21.9602 21.4981 22H21.413C21.2806 21.982 21.16 21.9186 21.0512 21.8101C19.5363 20.2954 18.022 18.7812 16.5084 17.2674C16.5063 17.2653 16.5035 17.2641 16.5006 17.2641C16.4976 17.2641 16.4948 17.2652 16.4927 17.2672C14.9803 18.7799 13.4668 20.2934 11.952 21.8079C11.8407 21.9192 11.7181 21.9832 11.5842 22H11.4987C11.2159 21.9592 11.0497 21.7968 11 21.5127V21.4146C11.0179 21.2812 11.0624 21.1789 11.1336 21.1075C12.6643 19.5767 14.1972 18.0438 15.7321 16.5088C15.738 16.5029 15.738 16.4971 15.7321 16.4912C14.2573 15.0165 12.7812 13.5403 11.3038 12.0626C11.1879 11.9467 11.1225 11.8784 11.1074 11.8577C11.0506 11.7792 11.0148 11.6892 11 11.5878V11.4838C11.0488 11.2087 11.2104 11.0474 11.4847 11Z" fill="#909099"/>
</g>
<defs>
<clipPath id="clip0_305_172">
<rect width="11" height="11" fill="white" transform="translate(11 11)"/>
</clipPath>
</defs>
</svg>
