<svg width="60" height="60" viewBox="0 0 60 60" fill="none" xmlns="http://www.w3.org/2000/svg">
<rect width="60" height="60" rx="16" fill="#222224"/>
<path fill-rule="evenodd" clip-rule="evenodd" d="M26.0001 26.0001C26.0016 24.0233 26.0267 22.9872 26.436 22.184C26.8195 21.4314 27.4314 20.8195 28.184 20.436C29.0397 20 30.1598 20 32.4 20H33.6C35.8402 20 36.9603 20 37.816 20.436C38.5686 20.8195 39.1805 21.4314 39.564 22.184C40 23.0397 40 24.1598 40 26.4V27.6C40 29.8402 40 30.9603 39.564 31.816C39.1805 32.5686 38.5686 33.1805 37.816 33.564C37.0128 33.9733 35.9767 33.9984 33.9999 33.9999C33.9984 35.9767 33.9733 37.0128 33.564 37.816C33.1805 38.5686 32.5686 39.1805 31.816 39.564C30.9603 40 29.8402 40 27.6 40H26.4C24.1598 40 23.0397 40 22.184 39.564C21.4314 39.1805 20.8195 38.5686 20.436 37.816C20 36.9603 20 35.8402 20 33.6V32.4C20 30.1598 20 29.0397 20.436 28.184C20.8195 27.4314 21.4314 26.8195 22.184 26.436C22.9872 26.0267 24.0233 26.0016 26.0001 26.0001ZM26 27.5H25.5C24.0999 27.5 23.3998 27.5 22.865 27.7725C22.3946 28.0122 22.0122 28.3946 21.7725 28.865C21.5 29.3998 21.5 30.0999 21.5 31.5V34.5C21.5 35.9001 21.5 36.6002 21.7725 37.135C22.0122 37.6054 22.3946 37.9878 22.865 38.2275C23.3998 38.5 24.0999 38.5 25.5 38.5H28.5C29.9001 38.5 30.6002 38.5 31.135 38.2275C31.6054 37.9878 31.9878 37.6054 32.2275 37.135C32.5 36.6002 32.5 35.9001 32.5 34.5V34H32.4C30.1598 34 29.0397 34 28.184 33.564C27.4314 33.1805 26.8195 32.5686 26.436 31.816C26 30.9603 26 29.8402 26 27.6V27.5ZM27.5 25.5C27.5 24.0999 27.5 23.3998 27.7725 22.865C28.0122 22.3946 28.3946 22.0122 28.865 21.7725C29.3998 21.5 30.0999 21.5 31.5 21.5H34.5C35.9001 21.5 36.6002 21.5 37.135 21.7725C37.6054 22.0122 37.9878 22.3946 38.2275 22.865C38.5 23.3998 38.5 24.0999 38.5 25.5V28.5C38.5 29.9001 38.5 30.6002 38.2275 31.135C37.9878 31.6054 37.6054 31.9878 37.135 32.2275C36.6002 32.5 35.9001 32.5 34.5 32.5H31.5C30.0999 32.5 29.3998 32.5 28.865 32.2275C28.3946 31.9878 28.0122 31.6054 27.7725 31.135C27.5 30.6002 27.5 29.9001 27.5 28.5V25.5Z" fill="#909099"/>
</svg>
