<svg width="4000" height="4000" viewBox="0 0 4000 4000" fill="none" xmlns="http://www.w3.org/2000/svg">
<rect width="4000" height="4000" fill="#111111"/>
<path d="M1504.34 2659H1405.34V2379.73H1505.15C1533.24 2379.73 1557.43 2385.32 1577.7 2396.5C1597.97 2407.59 1613.56 2423.55 1624.47 2444.36C1635.47 2465.18 1640.97 2490.09 1640.97 2519.09C1640.97 2548.18 1635.47 2573.18 1624.47 2594.09C1613.56 2615 1597.88 2631.05 1577.43 2642.23C1557.06 2653.41 1532.7 2659 1504.34 2659ZM1464.38 2608.41H1501.88C1519.34 2608.41 1534.02 2605.32 1545.93 2599.14C1557.93 2592.86 1566.93 2583.18 1572.93 2570.09C1579.02 2556.91 1582.06 2539.91 1582.06 2519.09C1582.06 2498.45 1579.02 2481.59 1572.93 2468.5C1566.93 2455.41 1557.97 2445.77 1546.06 2439.59C1534.15 2433.41 1519.47 2430.32 1502.02 2430.32H1464.38V2608.41ZM1779.07 2663.09C1757.53 2663.09 1738.98 2658.73 1723.44 2650C1707.98 2641.18 1696.07 2628.73 1687.71 2612.64C1679.35 2596.45 1675.16 2577.32 1675.16 2555.23C1675.16 2533.68 1679.35 2514.77 1687.71 2498.5C1696.07 2482.23 1707.85 2469.55 1723.03 2460.45C1738.3 2451.36 1756.21 2446.82 1776.76 2446.82C1790.57 2446.82 1803.44 2449.05 1815.35 2453.5C1827.35 2457.86 1837.8 2464.45 1846.71 2473.27C1855.71 2482.09 1862.71 2493.18 1867.71 2506.55C1872.71 2519.82 1875.21 2535.36 1875.21 2553.18V2569.14H1698.35V2533.14H1820.53C1820.53 2524.77 1818.71 2517.36 1815.07 2510.91C1811.44 2504.45 1806.39 2499.41 1799.94 2495.77C1793.57 2492.05 1786.16 2490.18 1777.71 2490.18C1768.89 2490.18 1761.07 2492.23 1754.26 2496.32C1747.53 2500.32 1742.26 2505.73 1738.44 2512.55C1734.62 2519.27 1732.66 2526.77 1732.57 2535.05V2569.27C1732.57 2579.64 1734.48 2588.59 1738.3 2596.14C1742.21 2603.68 1747.71 2609.5 1754.8 2613.59C1761.89 2617.68 1770.3 2619.73 1780.03 2619.73C1786.48 2619.73 1792.39 2618.82 1797.76 2617C1803.12 2615.18 1807.71 2612.45 1811.53 2608.82C1815.35 2605.18 1818.26 2600.73 1820.26 2595.45L1873.98 2599C1871.26 2611.91 1865.66 2623.18 1857.21 2632.82C1848.85 2642.36 1838.03 2649.82 1824.76 2655.18C1811.57 2660.45 1796.35 2663.09 1779.07 2663.09ZM1914.21 2659V2379.73H1972.3V2484.73H1974.07C1976.62 2479.09 1980.3 2473.36 1985.12 2467.55C1990.03 2461.64 1996.39 2456.73 2004.21 2452.82C2012.12 2448.82 2021.94 2446.82 2033.66 2446.82C2048.94 2446.82 2063.03 2450.82 2075.94 2458.82C2088.85 2466.73 2099.16 2478.68 2106.89 2494.68C2114.62 2510.59 2118.48 2530.55 2118.48 2554.55C2118.48 2577.91 2114.71 2597.64 2107.16 2613.73C2099.71 2629.73 2089.53 2641.86 2076.62 2650.14C2063.8 2658.32 2049.44 2662.41 2033.53 2662.41C2022.26 2662.41 2012.66 2660.55 2004.76 2656.82C1996.94 2653.09 1990.53 2648.41 1985.53 2642.77C1980.53 2637.05 1976.71 2631.27 1974.07 2625.45H1971.48V2659H1914.21ZM1971.07 2554.27C1971.07 2566.73 1972.8 2577.59 1976.26 2586.86C1979.71 2596.14 1984.71 2603.36 1991.26 2608.55C1997.8 2613.64 2005.76 2616.18 2015.12 2616.18C2024.57 2616.18 2032.57 2613.59 2039.12 2608.41C2045.66 2603.14 2050.62 2595.86 2053.98 2586.59C2057.44 2577.23 2059.16 2566.45 2059.16 2554.27C2059.16 2542.18 2057.48 2531.55 2054.12 2522.36C2050.76 2513.18 2045.8 2506 2039.26 2500.82C2032.71 2495.64 2024.66 2493.05 2015.12 2493.05C2005.66 2493.05 1997.66 2495.55 1991.12 2500.55C1984.66 2505.55 1979.71 2512.64 1976.26 2521.82C1972.8 2531 1971.07 2541.82 1971.07 2554.27ZM2291.56 2569.82V2449.55H2349.65V2659H2293.88V2620.95H2291.7C2286.97 2633.23 2279.11 2643.09 2268.11 2650.55C2257.2 2658 2243.88 2661.73 2228.15 2661.73C2214.15 2661.73 2201.84 2658.55 2191.2 2652.18C2180.56 2645.82 2172.24 2636.77 2166.24 2625.05C2160.34 2613.32 2157.34 2599.27 2157.24 2582.91V2449.55H2215.34V2572.55C2215.43 2584.91 2218.74 2594.68 2225.29 2601.86C2231.84 2609.05 2240.61 2612.64 2251.61 2612.64C2258.61 2612.64 2265.15 2611.05 2271.24 2607.86C2277.34 2604.59 2282.24 2599.77 2285.97 2593.41C2289.79 2587.05 2291.65 2579.18 2291.56 2569.82ZM2490.48 2741.91C2471.66 2741.91 2455.53 2739.32 2442.07 2734.14C2428.71 2729.05 2418.07 2722.09 2410.16 2713.27C2402.26 2704.45 2397.12 2694.55 2394.76 2683.55L2448.48 2676.32C2450.12 2680.5 2452.71 2684.41 2456.26 2688.05C2459.8 2691.68 2464.48 2694.59 2470.3 2696.77C2476.21 2699.05 2483.39 2700.18 2491.85 2700.18C2504.48 2700.18 2514.89 2697.09 2523.07 2690.91C2531.35 2684.82 2535.48 2674.59 2535.48 2660.23V2621.91H2533.03C2530.48 2627.73 2526.66 2633.23 2521.57 2638.41C2516.48 2643.59 2509.94 2647.82 2501.94 2651.09C2493.94 2654.36 2484.39 2656 2473.3 2656C2457.57 2656 2443.26 2652.36 2430.35 2645.09C2417.53 2637.73 2407.3 2626.5 2399.66 2611.41C2392.12 2596.23 2388.35 2577.05 2388.35 2553.86C2388.35 2530.14 2392.21 2510.32 2399.94 2494.41C2407.66 2478.5 2417.94 2466.59 2430.76 2458.68C2443.66 2450.77 2457.8 2446.82 2473.16 2446.82C2484.89 2446.82 2494.71 2448.82 2502.62 2452.82C2510.53 2456.73 2516.89 2461.64 2521.71 2467.55C2526.62 2473.36 2530.39 2479.09 2533.03 2484.73H2535.21V2449.55H2592.89V2661.05C2592.89 2678.86 2588.53 2693.77 2579.8 2705.77C2571.07 2717.77 2558.98 2726.77 2543.53 2732.77C2528.16 2738.86 2510.48 2741.91 2490.48 2741.91ZM2491.71 2612.36C2501.07 2612.36 2508.98 2610.05 2515.44 2605.41C2521.98 2600.68 2526.98 2593.95 2530.44 2585.23C2533.98 2576.41 2535.76 2565.86 2535.76 2553.59C2535.76 2541.32 2534.03 2530.68 2530.57 2521.68C2527.12 2512.59 2522.12 2505.55 2515.57 2500.55C2509.03 2495.55 2501.07 2493.05 2491.71 2493.05C2482.16 2493.05 2474.12 2495.64 2467.57 2500.82C2461.03 2505.91 2456.07 2513 2452.71 2522.09C2449.35 2531.18 2447.66 2541.68 2447.66 2553.59C2447.66 2565.68 2449.35 2576.14 2452.71 2584.95C2456.16 2593.68 2461.12 2600.45 2467.57 2605.27C2474.12 2610 2482.16 2612.36 2491.71 2612.36Z" fill="white"/>
<path d="M2623.56 1581.69C2590.8 1581.69 2562.4 1603.56 2553.67 1634.19H2459.75C2437.91 1634.19 2418.25 1616.69 2418.25 1592.63C2418.25 1544.5 2378.94 1507.31 2333.07 1507.31H2252.26V1481.06H2304.68C2317.78 1481.06 2326.52 1470.12 2326.52 1459.19C2326.52 1446.06 2317.78 1437.31 2304.68 1437.31H2252.26V1404.5H2492.51C2501.25 1435.12 2529.64 1457 2562.4 1457C2603.9 1457 2636.66 1424.19 2636.66 1382.62C2636.66 1341.06 2603.9 1308.25 2562.4 1308.25C2529.64 1308.25 2501.25 1330.12 2492.51 1360.75H2252.26V1332.31H2304.68C2317.78 1332.31 2326.52 1321.38 2326.52 1310.44C2326.52 1297.31 2317.78 1288.56 2304.68 1288.56H2252.26V1257.94H2333.07C2378.94 1257.94 2418.25 1218.56 2418.25 1172.63C2418.25 1148.56 2437.91 1131.06 2459.75 1131.06H2553.67C2562.4 1161.69 2590.8 1183.56 2623.56 1183.56C2665.05 1183.56 2697.82 1150.75 2697.82 1109.19C2697.82 1067.62 2665.05 1034.81 2623.56 1034.81C2590.8 1034.81 2562.4 1056.69 2553.67 1087.31H2459.75C2411.7 1087.31 2374.57 1126.69 2374.57 1172.63C2374.57 1194.5 2354.91 1214.19 2333.07 1214.19H2252.26V1207.62C2252.26 1163.87 2215.13 1126.69 2171.45 1126.69H2164.9V1052.31C2164.9 1030.44 2184.56 1010.75 2206.4 1010.75C2254.45 1010.75 2291.58 971.375 2291.58 925.437V831.375C2322.15 822.625 2343.99 794.188 2343.99 761.375C2343.99 719.813 2311.23 687 2269.73 687C2228.24 687 2195.48 719.813 2195.48 761.375C2195.48 794.188 2217.32 822.625 2247.89 831.375V925.437C2247.89 947.312 2228.24 967 2206.4 967C2158.35 967 2121.22 1006.38 2121.22 1052.31V1126.69H2092.82V1076.37C2092.82 1065.44 2081.9 1054.5 2070.98 1054.5C2057.88 1054.5 2049.14 1065.44 2049.14 1076.37V1126.69H2020.75V894.812C2051.33 886.062 2073.17 857.625 2073.17 824.812C2073.17 783.25 2040.41 750.438 1998.91 750.438C1957.41 750.438 1924.65 783.25 1924.65 824.812C1924.65 857.625 1946.49 886.062 1977.07 894.812V1128.88H1946.49V1078.56C1946.49 1067.62 1937.75 1056.69 1924.65 1056.69C1911.54 1056.69 1902.81 1067.62 1902.81 1078.56V1128.88H1874.41V1054.5C1874.41 1006.37 1835.1 969.188 1789.24 969.188C1767.39 969.188 1747.74 949.5 1747.74 927.625V831.375C1778.32 822.625 1800.16 794.188 1800.16 761.375C1800.16 719.813 1767.39 687 1725.9 687C1684.4 687 1651.64 719.813 1651.64 761.375C1651.64 794.188 1673.48 822.625 1704.06 831.375V925.437C1704.06 973.562 1743.37 1010.75 1789.24 1010.75C1813.26 1010.75 1830.73 1030.44 1830.73 1052.31V1126.69H1826.37C1782.68 1126.69 1745.55 1163.87 1745.55 1207.62V1214.19H1664.74C1642.9 1214.19 1623.24 1194.5 1623.24 1172.63C1623.24 1124.5 1583.93 1087.31 1538.07 1087.31H1444.15C1435.41 1056.69 1407.02 1034.81 1374.26 1034.81C1332.76 1034.81 1300 1067.62 1300 1109.19C1300 1150.75 1332.76 1183.56 1374.26 1183.56C1407.02 1183.56 1435.41 1161.69 1444.15 1131.06H1538.07C1562.09 1131.06 1579.56 1150.75 1579.56 1172.63C1579.56 1218.56 1618.88 1257.94 1664.74 1257.94H1745.55V1288.56H1690.95C1680.03 1288.56 1669.11 1297.31 1669.11 1310.44C1669.11 1321.38 1680.03 1332.31 1690.95 1332.31H1745.55V1360.75H1505.3C1496.57 1330.12 1468.17 1308.25 1435.41 1308.25C1393.92 1308.25 1361.15 1341.06 1361.15 1382.62C1361.15 1424.19 1393.92 1457 1435.41 1457C1468.17 1457 1496.57 1435.12 1505.3 1404.5H1745.55V1437.31H1690.95C1680.03 1437.31 1669.11 1446.06 1669.11 1459.19C1669.11 1470.12 1680.03 1481.06 1690.95 1481.06H1745.55V1507.31H1664.74C1618.88 1507.31 1579.56 1546.69 1579.56 1592.63C1579.56 1616.69 1559.91 1634.19 1538.07 1634.19H1444.15C1435.41 1603.56 1407.02 1581.69 1374.26 1581.69C1332.76 1581.69 1300 1614.5 1300 1656.06C1300 1697.62 1332.76 1730.44 1374.26 1730.44C1407.02 1730.44 1435.41 1708.56 1444.15 1677.94H1538.07C1586.12 1677.94 1623.24 1638.56 1623.24 1592.63C1623.24 1568.56 1642.9 1551.06 1664.74 1551.06H1745.55V1557.62C1745.55 1601.38 1782.68 1638.56 1826.37 1638.56H1830.73V1721.69C1830.73 1743.56 1811.08 1763.25 1789.24 1763.25C1741.19 1763.25 1704.06 1802.62 1704.06 1848.56V1942.62C1673.48 1951.38 1651.64 1979.81 1651.64 2012.62C1651.64 2054.19 1684.4 2087 1725.9 2087C1767.39 2087 1800.16 2054.19 1800.16 2012.62C1800.16 1979.81 1778.32 1951.38 1747.74 1942.62V1848.56C1747.74 1824.5 1767.39 1807 1789.24 1807C1837.29 1807 1874.41 1767.62 1874.41 1721.69V1638.56H1902.81V1693.25C1902.81 1706.38 1911.54 1715.12 1924.65 1715.12C1937.75 1715.12 1946.49 1706.38 1946.49 1693.25V1638.56H1977.07V1881.38C1946.49 1890.12 1924.65 1918.56 1924.65 1951.38C1924.65 1992.94 1957.41 2025.75 1998.91 2025.75C2040.41 2025.75 2073.17 1992.94 2073.17 1951.38C2073.17 1918.56 2051.33 1890.12 2020.75 1881.38V1636.38H2051.33V1693.25C2051.33 1706.38 2060.06 1715.12 2073.17 1715.12C2084.09 1715.12 2095.01 1706.38 2095.01 1693.25V1638.56H2123.4V1721.69C2123.4 1769.81 2162.71 1807 2208.58 1807C2232.61 1807 2250.08 1826.69 2250.08 1848.56V1942.62C2219.5 1951.38 2197.66 1979.81 2197.66 2012.62C2197.66 2054.19 2230.42 2087 2271.92 2087C2313.42 2087 2346.18 2054.19 2346.18 2012.62C2346.18 1979.81 2324.34 1951.38 2293.76 1942.62V1848.56C2293.76 1800.44 2254.45 1763.25 2208.58 1763.25C2184.56 1763.25 2167.08 1743.56 2167.08 1721.69V1638.56H2173.63C2217.32 1638.56 2254.45 1601.38 2254.45 1557.62V1551.06H2335.26C2357.1 1551.06 2376.76 1570.75 2376.76 1592.63C2376.76 1640.75 2416.07 1677.94 2461.93 1677.94H2555.85C2564.59 1708.56 2592.98 1730.44 2625.74 1730.44C2667.24 1730.44 2700 1697.62 2700 1656.06C2700 1614.5 2665.05 1581.69 2623.56 1581.69ZM2208.58 1555.44C2208.58 1575.12 2191.11 1592.63 2171.45 1592.63H1826.37C1806.71 1592.63 1789.24 1575.12 1789.24 1555.44V1207.62C1789.24 1187.94 1806.71 1170.44 1826.37 1170.44H2173.63C2193.29 1170.44 2210.76 1187.94 2210.76 1207.62V1555.44H2208.58Z" fill="white"/>
<path d="M2143.06 1257.94V1505.12C2143.06 1518.25 2134.32 1527 2121.22 1527H1876.6C1863.49 1527 1854.76 1518.25 1854.76 1505.12V1257.94C1854.76 1244.81 1863.49 1236.06 1876.6 1236.06H2123.4C2134.32 1236.06 2143.06 1247 2143.06 1257.94Z" fill="white"/>
<rect x="1382" y="2952" width="1235" height="500" rx="250" fill="#4C4C4C"/>
<path d="M1921.22 3110.82V3297H1879.03L1811.76 3199.18H1810.67V3297H1760.12V3110.82H1803.03L1869.22 3208.27H1870.67V3110.82H1921.22ZM2036.4 3235.91V3157.36H2086.58V3297H2038.94V3270.45H2037.49C2034.46 3279.36 2029.16 3286.33 2021.58 3291.36C2014 3296.33 2005 3298.82 1994.58 3298.82C1984.82 3298.82 1976.28 3296.58 1968.94 3292.09C1961.67 3287.61 1956 3281.42 1951.94 3273.55C1947.94 3265.67 1945.91 3256.64 1945.85 3246.45V3157.36H1996.03V3235.91C1996.09 3242.82 1997.85 3248.24 2001.31 3252.18C2004.82 3256.12 2009.73 3258.09 2016.03 3258.09C2020.22 3258.09 2023.82 3257.21 2026.85 3255.45C2029.94 3253.64 2032.31 3251.09 2033.94 3247.82C2035.64 3244.48 2036.46 3240.52 2036.4 3235.91ZM2162.28 3110.82V3297H2112.1V3110.82H2162.28ZM2238.03 3110.82V3297H2187.85V3110.82H2238.03Z" fill="white"/>
</svg>
