<svg width="50" height="54" viewBox="0 0 50 54" fill="none" xmlns="http://www.w3.org/2000/svg">
<path d="M25 28.5714C32.8898 28.5714 39.2857 22.1755 39.2857 14.2857C39.2857 6.39593 32.8898 0 25 0C17.1102 0 10.7143 6.39593 10.7143 14.2857C10.7143 22.1755 17.1102 28.5714 25 28.5714Z" fill="white"/>
<path d="M5.35714 53.5715H27.4286C24.293 51.0583 22.2166 47.4583 21.6113 43.4857C21.006 39.5131 21.9159 35.4581 24.1607 32.1251C19.5442 31.8957 15.1944 29.8935 12.0179 26.5358C8.45696 28.0389 5.41797 30.5581 3.28057 33.7785C1.14316 36.9989 0.00211924 40.7777 0 44.6429V48.2143C0.00423945 49.6338 0.570012 50.994 1.57375 51.9977C2.5775 53.0015 3.93764 53.5672 5.35714 53.5715Z" fill="white"/>
<path d="M25 41.0714C25 43.5437 25.7331 45.9604 27.1066 48.0161C28.4801 50.0717 30.4324 51.6738 32.7165 52.6199C35.0005 53.566 37.5139 53.8136 39.9386 53.3312C42.3634 52.8489 44.5907 51.6584 46.3388 49.9103C48.087 48.1621 49.2775 45.9348 49.7598 43.5101C50.2421 41.0853 49.9946 38.572 49.0485 36.2879C48.1024 34.0038 46.5002 32.0516 44.4446 30.6781C42.389 29.3045 39.9723 28.5714 37.5 28.5714C34.186 28.5752 31.0087 29.8934 28.6653 32.2368C26.322 34.5802 25.0038 37.7574 25 41.0714ZM39.2857 37.5V39.2857H41.0714C41.545 39.2857 41.9992 39.4738 42.3341 39.8087C42.669 40.1436 42.8571 40.5978 42.8571 41.0714C42.8571 41.545 42.669 41.9992 42.3341 42.3341C41.9992 42.669 41.545 42.8571 41.0714 42.8571H39.2857V44.6429C39.2857 45.1165 39.0976 45.5707 38.7627 45.9055C38.4278 46.2404 37.9736 46.4286 37.5 46.4286C37.0264 46.4286 36.5722 46.2404 36.2373 45.9055C35.9024 45.5707 35.7143 45.1165 35.7143 44.6429V42.8571H33.9286C33.455 42.8571 33.0008 42.669 32.6659 42.3341C32.331 41.9992 32.1429 41.545 32.1429 41.0714C32.1429 40.5978 32.331 40.1436 32.6659 39.8087C33.0008 39.4738 33.455 39.2857 33.9286 39.2857H35.7143V37.5C35.7143 37.0264 35.9024 36.5722 36.2373 36.2373C36.5722 35.9024 37.0264 35.7143 37.5 35.7143C37.9736 35.7143 38.4278 35.9024 38.7627 36.2373C39.0976 36.5722 39.2857 37.0264 39.2857 37.5Z" fill="white"/>
</svg>
