<svg width="11" height="12" viewBox="0 0 11 12" fill="none" xmlns="http://www.w3.org/2000/svg">
<path d="M5.25 6C6.90685 6 8.25 4.65685 8.25 3C8.25 1.34315 6.90685 0 5.25 0C3.59315 0 2.25 1.34315 2.25 3C2.25 4.65685 3.59315 6 5.25 6Z" fill="white"/>
<path d="M1.125 11.25H5.76C5.10153 10.7222 4.66549 9.96624 4.53837 9.132C4.41125 8.29775 4.60235 7.44619 5.07375 6.74626C4.10429 6.6981 3.19082 6.27763 2.52375 5.57251C1.77596 5.88818 1.13777 6.4172 0.688919 7.09348C0.240064 7.76977 0.000445041 8.56333 0 9.37501V10.125C0.000890284 10.4231 0.119703 10.7087 0.330488 10.9195C0.541274 11.1303 0.826905 11.2491 1.125 11.25Z" fill="white"/>
<path d="M5.25 8.625C5.25 9.14418 5.40395 9.65169 5.69239 10.0834C5.98083 10.5151 6.3908 10.8515 6.87046 11.0502C7.35011 11.2489 7.87791 11.3008 8.38711 11.1996C8.89631 11.0983 9.36404 10.8483 9.73116 10.4812C10.0983 10.114 10.3483 9.64631 10.4496 9.13711C10.5508 8.62791 10.4989 8.10011 10.3002 7.62046C10.1015 7.1408 9.76505 6.73083 9.33337 6.44239C8.90169 6.15395 8.39418 6 7.875 6C7.17905 6.00079 6.51183 6.27761 6.01972 6.76972C5.52761 7.26183 5.25079 7.92905 5.25 8.625ZM8.25 7.875V8.25H8.625C8.72446 8.25 8.81984 8.28951 8.89017 8.35983C8.96049 8.43016 9 8.52554 9 8.625C9 8.72446 8.96049 8.81984 8.89017 8.89017C8.81984 8.96049 8.72446 9 8.625 9H8.25V9.375C8.25 9.47446 8.21049 9.56984 8.14017 9.64017C8.06984 9.71049 7.97446 9.75 7.875 9.75C7.77554 9.75 7.68016 9.71049 7.60983 9.64017C7.53951 9.56984 7.5 9.47446 7.5 9.375V9H7.125C7.02554 9 6.93016 8.96049 6.85983 8.89017C6.78951 8.81984 6.75 8.72446 6.75 8.625C6.75 8.52554 6.78951 8.43016 6.85983 8.35983C6.93016 8.28951 7.02554 8.25 7.125 8.25H7.5V7.875C7.5 7.77554 7.53951 7.68016 7.60983 7.60983C7.68016 7.53951 7.77554 7.5 7.875 7.5C7.97446 7.5 8.06984 7.53951 8.14017 7.60983C8.21049 7.68016 8.25 7.77554 8.25 7.875Z" fill="white"/>
</svg>
