<svg width="25" height="25" viewBox="0 0 25 25" fill="none" xmlns="http://www.w3.org/2000/svg">
<circle cx="12.5" cy="12.5" r="12.5" fill="#D71921"/>
<g clip-path="url(#clip0_153_448)">
<path d="M9.37476 10.1562H6.70435C7.63159 7.86572 9.8772 6.25 12.5 6.25C15.9517 6.25 18.75 9.04834 18.75 12.5C18.75 15.9517 15.9517 18.75 12.5 18.75C9.8772 18.75 7.63159 17.1343 6.70435 14.8438C6.41138 14.1201 6.25 13.3289 6.25 12.5H12.5V14.8438H9.37476C10.0874 15.7925 11.2219 16.4062 12.5 16.4062C14.6575 16.4062 16.4062 14.6575 16.4062 12.5C16.4062 10.3425 14.6575 8.59375 12.5 8.59375C11.2219 8.59375 10.0874 9.20752 9.37476 10.1562Z" fill="white"/>
</g>
<defs>
<clipPath id="clip0_153_448">
<rect width="12.5" height="12.5" fill="white" transform="translate(6.25 6.25)"/>
</clipPath>
</defs>
</svg>
