<svg width="50" height="50" viewBox="0 0 50 50" fill="none" xmlns="http://www.w3.org/2000/svg">
<g clip-path="url(#clip0_316_180)">
<path fill-rule="evenodd" clip-rule="evenodd" d="M25 0C25 13.8062 13.8062 25 0 25C0 11.1938 11.1938 0 25 0ZM25 50C11.1938 50 0 38.8064 0 25C13.8062 25 25 36.1939 25 50ZM50 25C50 38.8064 38.8064 50 25 50C25 36.1939 36.1939 25 50 25ZM27.0834 22.9166C38.5895 22.9166 47.9166 13.5896 47.9166 2.08333C36.4105 2.08333 27.0834 11.4104 27.0834 22.9166Z" fill="white"/>
</g>
<defs>
<clipPath id="clip0_316_180">
<rect width="50" height="50" fill="white"/>
</clipPath>
</defs>
</svg>
