<svg width="120" height="120" viewBox="0 0 120 120" fill="none" xmlns="http://www.w3.org/2000/svg">
<g clip-path="url(#clip0_364_1657)">
<path d="M29.9977 37.5H4.36172C13.2633 15.5109 34.8211 0 60 0C93.1359 0 120 26.8641 120 60C120 93.1359 93.1359 120 60 120C34.8211 120 13.2633 104.489 4.36172 82.5C1.54922 75.5531 0 67.957 0 60H60V82.5H29.9977C36.8391 91.6078 47.7305 97.5 60 97.5C80.7117 97.5 97.5 80.7117 97.5 60C97.5 39.2883 80.7117 22.5 60 22.5C47.7305 22.5 36.8391 28.3922 29.9977 37.5Z" fill="white"/>
</g>
<defs>
<clipPath id="clip0_364_1657">
<rect width="120" height="120" fill="white"/>
</clipPath>
</defs>
</svg>
