<svg width="52" height="52" viewBox="0 0 52 52" fill="none" xmlns="http://www.w3.org/2000/svg">
<g clip-path="url(#clip0_298_160)">
<path d="M12.999 16.25H1.89008C5.74742 6.72141 15.0891 0 26 0C40.3589 0 52 11.6411 52 26C52 40.3589 40.3589 52 26 52C15.0891 52 5.74742 45.2786 1.89008 35.75C0.671328 32.7397 0 29.448 0 26H26V35.75H12.999C15.9636 39.6967 20.6832 42.25 26 42.25C34.9751 42.25 42.25 34.9751 42.25 26C42.25 17.0249 34.9751 9.75 26 9.75C20.6832 9.75 15.9636 12.3033 12.999 16.25Z" fill="#3F3F3F"/>
</g>
<defs>
<clipPath id="clip0_298_160">
<rect width="52" height="52" fill="white"/>
</clipPath>
</defs>
</svg>
