<svg width="145" height="145" viewBox="0 0 145 145" fill="none" xmlns="http://www.w3.org/2000/svg">
<g clip-path="url(#clip0_153_450)">
<path d="M36.2472 45.3125H5.27041C16.0265 18.7424 42.0755 0 72.5 0C112.539 0 145 32.4607 145 72.5C145 112.539 112.539 145 72.5 145C42.0755 145 16.0265 126.258 5.27041 99.6875C1.87197 91.2934 0 82.1147 0 72.5H72.5V99.6875H36.2472C44.5139 110.693 57.6743 117.812 72.5 117.812C97.5267 117.812 117.812 97.5267 117.812 72.5C117.812 47.4733 97.5267 27.1875 72.5 27.1875C57.6743 27.1875 44.5139 34.3072 36.2472 45.3125Z" fill="#2E2E2E"/>
</g>
<defs>
<clipPath id="clip0_153_450">
<rect width="145" height="145" fill="white"/>
</clipPath>
</defs>
</svg>
