<svg width="24" height="24" viewBox="0 0 24 24" fill="none" xmlns="http://www.w3.org/2000/svg">
<path fill-rule="evenodd" clip-rule="evenodd" d="M12 24C11.3373 24 10.8 23.4627 10.8 22.8L10.8 13.2L1.2 13.2C0.537258 13.2 -9.53674e-07 12.6627 -9.53674e-07 12C-9.53674e-07 11.3373 0.537258 10.8 1.2 10.8L10.8 10.8L10.8 1.2C10.8 0.537258 11.3373 -9.53674e-07 12 -9.53674e-07C12.6627 -9.53674e-07 13.2 0.537258 13.2 1.2L13.2 10.8L22.8 10.8C23.4627 10.8 24 11.3373 24 12C24 12.6627 23.4627 13.2 22.8 13.2L13.2 13.2L13.2 22.8C13.2 23.4627 12.6627 24 12 24Z" fill="#3F3F3F"/>
</svg>
