<svg width="12" height="12" viewBox="0 0 12 12" fill="none" xmlns="http://www.w3.org/2000/svg">
<path d="M6.68047 0.516643C6.46629 -0.172214 5.53371 -0.172214 5.31953 0.516643L4.39362 3.49447C4.29784 3.80253 4.02312 4.01111 3.71315 4.01111H0.716861C0.0237511 4.01111 -0.264433 4.93795 0.296307 5.36368L1.36322 6.17372C1.88708 6.57145 2.54657 6.74672 3.19877 6.66152L6.10978 6.28128C6.29888 6.25657 6.3889 6.51682 6.22839 6.62418L3.41825 8.50359C2.94272 8.82162 2.59065 9.29312 2.42079 9.8394L2.05437 11.0179C1.84019 11.7067 2.59466 12.2795 3.1554 11.8538L5.57945 10.0134C5.83022 9.823 6.16978 9.823 6.42055 10.0134L8.8446 11.8538C9.40534 12.2795 10.1598 11.7067 9.94563 11.0179L9.01972 8.04002C8.92394 7.73197 9.02887 7.3945 9.27964 7.20411L11.7037 5.36368C12.2644 4.93795 11.9762 4.01111 11.2831 4.01111H8.28685C7.97688 4.01111 7.70216 3.80253 7.60638 3.49447L6.68047 0.516643Z" fill="white"/>
</svg>
