<svg width="32" height="32" viewBox="0 0 32 32" fill="none" xmlns="http://www.w3.org/2000/svg">
<circle cx="16" cy="16" r="16" fill="#222224"/>
<path fill-rule="evenodd" clip-rule="evenodd" d="M9 12.1269C9 11.0775 9 10.5528 9.19202 10.1468C9.38986 9.72856 9.7266 9.39181 10.1449 9.19397C10.5509 9.00195 11.0756 9.00195 12.125 9.00195C13.1744 9.00195 13.6991 9.00195 14.1051 9.19397C14.5234 9.39181 14.8601 9.72856 15.058 10.1468C15.25 10.5528 15.25 11.0775 15.25 12.1269C15.25 13.1764 15.25 13.7011 15.058 14.1071C14.8601 14.5253 14.5234 14.8621 14.1051 15.0599C13.6991 15.2519 13.1744 15.2519 12.125 15.2519C11.0756 15.2519 10.5509 15.2519 10.1449 15.0599C9.7266 14.8621 9.38986 14.5253 9.19202 14.1071C9 13.7011 9 13.1764 9 12.1269ZM10.5 11.3019C10.5 11.0219 10.5 10.8819 10.5545 10.775C10.6024 10.6809 10.6789 10.6044 10.773 10.5564C10.88 10.5019 11.02 10.5019 11.3 10.5019H12.95C13.23 10.5019 13.37 10.5019 13.477 10.5564C13.5711 10.6044 13.6476 10.6809 13.6955 10.775C13.75 10.8819 13.75 11.0219 13.75 11.3019V12.9519C13.75 13.232 13.75 13.372 13.6955 13.4789C13.6476 13.573 13.5711 13.6495 13.477 13.6975C13.37 13.7519 13.23 13.7519 12.95 13.7519H11.3C11.02 13.7519 10.88 13.7519 10.773 13.6975C10.6789 13.6495 10.6024 13.573 10.5545 13.4789C10.5 13.372 10.5 13.232 10.5 12.9519V11.3019ZM9 19.877C9 18.8275 9 18.3028 9.19202 17.8968C9.38986 17.4786 9.7266 17.1418 10.1449 16.944C10.5509 16.7519 11.0756 16.7519 12.125 16.7519C13.1744 16.7519 13.6991 16.7519 14.1051 16.944C14.5234 17.1418 14.8601 17.4786 15.058 17.8968C15.25 18.3028 15.25 18.8275 15.25 19.877C15.25 20.9264 15.25 21.4511 15.058 21.8571C14.8601 22.2753 14.5234 22.6121 14.1051 22.8099C13.6991 23.002 13.1744 23.002 12.125 23.002C11.0756 23.002 10.5509 23.002 10.1449 22.8099C9.7266 22.6121 9.38986 22.2753 9.19202 21.8571C9 21.4511 9 20.9264 9 19.877ZM10.5 19.052C10.5 18.7719 10.5 18.6319 10.5545 18.525C10.6024 18.4309 10.6789 18.3544 10.773 18.3064C10.88 18.252 11.02 18.252 11.3 18.252H12.95C13.23 18.252 13.37 18.252 13.477 18.3064C13.5711 18.3544 13.6476 18.4309 13.6955 18.525C13.75 18.6319 13.75 18.7719 13.75 19.052V20.702C13.75 20.982 13.75 21.122 13.6955 21.2289C13.6476 21.323 13.5711 21.3995 13.477 21.4475C13.37 21.502 13.23 21.502 12.95 21.502H11.3C11.02 21.502 10.88 21.502 10.773 21.4475C10.6789 21.3995 10.6024 21.323 10.5545 21.2289C10.5 21.122 10.5 20.982 10.5 20.702V19.052ZM16.942 10.1468C16.75 10.5528 16.75 11.0775 16.75 12.1269C16.75 13.1764 16.75 13.7011 16.942 14.1071C17.1399 14.5253 17.4766 14.8621 17.8949 15.0599C18.3009 15.2519 18.8256 15.2519 19.875 15.2519C20.9244 15.2519 21.4491 15.2519 21.8551 15.0599C22.2734 14.8621 22.6101 14.5253 22.808 14.1071C23 13.7011 23 13.1764 23 12.1269C23 11.0775 23 10.5528 22.808 10.1468C22.6101 9.72856 22.2734 9.39181 21.8551 9.19397C21.4491 9.00195 20.9244 9.00195 19.875 9.00195C18.8256 9.00195 18.3009 9.00195 17.8949 9.19397C17.4766 9.39181 17.1399 9.72856 16.942 10.1468ZM18.3045 10.775C18.25 10.8819 18.25 11.0219 18.25 11.3019V12.9519C18.25 13.232 18.25 13.372 18.3045 13.4789C18.3524 13.573 18.4289 13.6495 18.523 13.6975C18.63 13.7519 18.77 13.7519 19.05 13.7519H20.7C20.98 13.7519 21.12 13.7519 21.227 13.6975C21.3211 13.6495 21.3976 13.573 21.4455 13.4789C21.5 13.372 21.5 13.232 21.5 12.9519V11.3019C21.5 11.0219 21.5 10.8819 21.4455 10.775C21.3976 10.6809 21.3211 10.6044 21.227 10.5564C21.12 10.5019 20.98 10.5019 20.7 10.5019H19.05C18.77 10.5019 18.63 10.5019 18.523 10.5564C18.4289 10.6044 18.3524 10.6809 18.3045 10.775ZM16.8073 17.1352C16.75 17.2624 16.75 17.4256 16.75 17.7519C16.75 18.0783 16.75 18.2415 16.8073 18.3687C16.8725 18.5136 16.9884 18.6295 17.1332 18.6947C17.2605 18.752 17.4236 18.752 17.75 18.752C18.0764 18.752 18.2395 18.752 18.3668 18.6947C18.5116 18.6295 18.6276 18.5136 18.6927 18.3687C18.75 18.2415 18.75 18.0783 18.75 17.7519C18.75 17.4256 18.75 17.2624 18.6927 17.1352C18.6276 16.9903 18.5116 16.8744 18.3668 16.8092C18.2395 16.7519 18.0764 16.7519 17.75 16.7519C17.4236 16.7519 17.2605 16.7519 17.1332 16.8092C16.9884 16.8744 16.8725 16.9903 16.8073 17.1352ZM18.87 19.8771C18.87 19.546 18.87 19.3805 18.9289 19.2517C18.9938 19.1098 19.1077 18.9959 19.2497 18.931C19.3784 18.8721 19.5439 18.8721 19.875 18.8721C20.2061 18.8721 20.3716 18.8721 20.5003 18.931C20.6423 18.9959 20.7562 19.1098 20.8211 19.2517C20.88 19.3805 20.88 19.546 20.88 19.8771C20.88 20.2081 20.88 20.3737 20.8211 20.5024C20.7562 20.6444 20.6423 20.7583 20.5003 20.8232C20.3716 20.8821 20.2061 20.8821 19.875 20.8821C19.5439 20.8821 19.3784 20.8821 19.2497 20.8232C19.1077 20.7583 18.9938 20.6444 18.9289 20.5024C18.87 20.3737 18.87 20.2081 18.87 19.8771ZM16.8073 21.3852C16.75 21.5124 16.75 21.6756 16.75 22.002C16.75 22.3283 16.75 22.4915 16.8073 22.6187C16.8725 22.7636 16.9884 22.8795 17.1332 22.9447C17.2605 23.002 17.4236 23.002 17.75 23.002C18.0764 23.002 18.2395 23.002 18.3668 22.9447C18.5116 22.8795 18.6276 22.7636 18.6927 22.6187C18.75 22.4915 18.75 22.3283 18.75 22.002C18.75 21.6756 18.75 21.5124 18.6927 21.3852C18.6276 21.2404 18.5116 21.1244 18.3668 21.0592C18.2395 21.002 18.0764 21.002 17.75 21.002C17.4236 21.002 17.2605 21.002 17.1332 21.0592C16.9884 21.1244 16.8725 21.2404 16.8073 21.3852ZM21 17.7519C21 17.4256 21 17.2624 21.0573 17.1352C21.1224 16.9903 21.2384 16.8744 21.3832 16.8092C21.5105 16.7519 21.6736 16.7519 22 16.7519C22.3264 16.7519 22.4895 16.7519 22.6168 16.8092C22.7616 16.8744 22.8776 16.9903 22.9427 17.1352C23 17.2624 23 17.4256 23 17.7519C23 18.0783 23 18.2415 22.9427 18.3687C22.8776 18.5136 22.7616 18.6295 22.6168 18.6947C22.4895 18.752 22.3264 18.752 22 18.752C21.6736 18.752 21.5105 18.752 21.3832 18.6947C21.2384 18.6295 21.1224 18.5136 21.0573 18.3687C21 18.2415 21 18.0783 21 17.7519ZM21.0573 21.3852C21 21.5124 21 21.6756 21 22.002C21 22.3283 21 22.4915 21.0573 22.6187C21.1224 22.7636 21.2384 22.8795 21.3832 22.9447C21.5105 23.002 21.6736 23.002 22 23.002C22.3264 23.002 22.4895 23.002 22.6168 22.9447C22.7616 22.8795 22.8776 22.7636 22.9427 22.6187C23 22.4915 23 22.3283 23 22.002C23 21.6756 23 21.5124 22.9427 21.3852C22.8776 21.2404 22.7616 21.1244 22.6168 21.0592C22.4895 21.002 22.3264 21.002 22 21.002C21.6736 21.002 21.5105 21.002 21.3832 21.0592C21.2384 21.1244 21.1224 21.2404 21.0573 21.3852Z" fill="#909099"/>
</svg>
