<svg width="32" height="32" viewBox="0 0 32 32" fill="none" xmlns="http://www.w3.org/2000/svg">
<circle cx="16" cy="16" r="16" fill="#909099" fill-opacity="0.12"/>
<path fill-rule="evenodd" clip-rule="evenodd" d="M13.5661 12.4258C13.8253 11.3216 14.8176 10.5 16 10.5C17.3807 10.5 18.5 11.6193 18.5 13C18.5 13.6303 18.3391 14.0386 18.1264 14.3446C17.9002 14.6699 17.5856 14.9248 17.1886 15.2088C17.1258 15.2537 17.0587 15.3003 16.9887 15.3488C16.2739 15.8447 15.25 16.5551 15.25 18V18.25C15.25 18.6642 15.5858 19 16 19C16.4142 19 16.75 18.6642 16.75 18.25V18C16.75 17.365 17.1078 17.1096 17.9455 16.5115L18.0614 16.4287C18.4769 16.1315 18.9748 15.7519 19.358 15.2008C19.7547 14.6301 20 13.9197 20 13C20 10.7909 18.2091 9 16 9C14.1056 9 12.5205 10.3161 12.1058 12.0831C12.0111 12.4863 12.2613 12.89 12.6645 12.9846C13.0678 13.0793 13.4714 12.8291 13.5661 12.4258ZM16 23C16.6075 23 17.1 22.5075 17.1 21.9C17.1 21.2925 16.6075 20.8 16 20.8C15.3925 20.8 14.9 21.2925 14.9 21.9C14.9 22.5075 15.3925 23 16 23Z" fill="#909099"/>
</svg>
