<svg width="9" height="9" viewBox="0 0 9 9" fill="none" xmlns="http://www.w3.org/2000/svg">
<path d="M8.36286 3.36566C8.32778 3.26155 8.26463 3.16913 8.18037 3.09856C8.0961 3.028 7.99398 2.98201 7.88525 2.96568L5.83754 2.65998L4.93094 0.720086C4.88342 0.616786 4.80724 0.529271 4.71143 0.467921C4.61563 0.406571 4.50422 0.373962 4.39041 0.373962C4.27661 0.373962 4.1652 0.406571 4.06939 0.467921C3.97359 0.529271 3.89741 0.616786 3.84989 0.720086L2.94329 2.65998L0.89558 2.97425C0.7887 2.99223 0.688682 3.03876 0.60613 3.10892C0.523579 3.17908 0.461571 3.27025 0.426682 3.37276C0.391793 3.47527 0.385322 3.5853 0.407957 3.69119C0.430592 3.79707 0.481488 3.89487 0.555248 3.9742L2.05957 5.51697L1.7078 7.67971C1.68961 7.79026 1.70292 7.90369 1.74621 8.00704C1.7895 8.11039 1.86102 8.19949 1.9526 8.26416C2.04418 8.32882 2.15212 8.36644 2.26409 8.37273C2.37607 8.37901 2.48755 8.3537 2.5858 8.29968L4.39041 7.29973L6.19503 8.29968C6.28298 8.34708 6.3811 8.37257 6.48102 8.37396C6.60381 8.3735 6.72354 8.33562 6.82422 8.2654C6.91647 8.20101 6.98855 8.11181 7.03209 8.00813C7.07562 7.90446 7.08883 7.79058 7.07017 7.67971L6.72126 5.51697L8.22558 3.9742C8.30239 3.89526 8.35587 3.79665 8.38009 3.68926C8.40432 3.58187 8.39835 3.46988 8.36286 3.36566Z" fill="#FFC107"/>
</svg>
