<svg width="22" height="22" viewBox="0 0 22 22" fill="none" xmlns="http://www.w3.org/2000/svg">
<g clip-path="url(#clip0_160_9)">
<path d="M21.4274 16.0963C21.0684 17.4363 20.212 18.5548 19.0158 19.2459L16.5785 20.6524C15.7547 21.1282 14.8701 21.3661 13.9858 21.3661C13.1012 21.3661 12.217 21.1282 11.393 20.6523L5.8513 17.4526C5.32793 17.1508 5.1477 16.4791 5.44973 15.9553C5.77834 15.3864 6.29429 14.9757 6.90267 14.7988C7.52293 14.6184 8.17826 14.7004 8.74802 15.0297L10.2191 15.8788L5.87119 8.3479C5.41899 7.56336 5.68848 6.55787 6.47186 6.10635C6.85033 5.88822 7.29233 5.83051 7.71654 5.94404C8.14113 6.05765 8.49512 6.32863 8.71325 6.7071L10.4828 9.77277C10.6158 9.41587 10.8655 9.1195 11.1979 8.92786C11.5757 8.70974 12.0174 8.65203 12.4415 8.76556C12.6427 8.8194 12.8281 8.90862 12.9906 9.02784C12.9928 9.01892 12.9951 9.01001 12.9975 9.00109C13.1115 8.57667 13.3827 8.22281 13.7611 8.00464C14.1389 7.78651 14.5806 7.7288 15.0048 7.84237C15.2803 7.91615 15.5262 8.05621 15.7243 8.24896C15.846 7.90187 16.0843 7.61344 16.4047 7.42875C16.7587 7.22387 17.1728 7.16959 17.5703 7.276C17.9678 7.38245 18.2994 7.63642 18.5039 7.99117L20.9126 12.1634C21.6036 13.3594 21.7864 14.7561 21.4274 16.0963L21.4274 16.0963ZM5.20446 9.92985C4.93948 9.69954 4.71552 9.42749 4.53855 9.12087C4.11352 8.38512 4.00069 7.52782 4.22079 6.70684C4.44089 5.88595 4.96747 5.19997 5.7037 4.77511C6.43954 4.35 7.29666 4.23695 8.11725 4.45675C8.93772 4.67655 9.62344 5.20288 10.048 5.93872C10.2264 6.24786 10.3502 6.57776 10.416 6.91927C10.4832 7.26798 10.8202 7.49623 11.169 7.42901C11.5177 7.36183 11.7459 7.02469 11.6787 6.67602C11.5858 6.19368 11.4119 5.72938 11.1618 5.29604C10.5655 4.26255 9.60239 3.52336 8.45002 3.21465C7.29751 2.90589 6.09378 3.06469 5.06072 3.66149C4.02722 4.25783 3.28778 5.2211 2.97872 6.37378C2.66958 7.52671 2.82808 8.73074 3.42488 9.76385C3.67311 10.194 3.98804 10.5764 4.36089 10.9004C4.4826 11.0062 4.63282 11.0581 4.78235 11.0581C4.96207 11.0581 5.1408 10.9831 5.26791 10.8369C5.50083 10.5688 5.47241 10.1628 5.20438 9.92981L5.20446 9.92985ZM3.60614 11.8282C3.11986 11.4104 2.71104 10.9168 2.39066 10.3606C1.63433 9.05082 1.43339 7.52508 1.82481 6.06438C2.21618 4.60367 3.153 3.38305 4.46284 2.62719C7.16637 1.06604 10.6361 1.99557 12.197 4.69863C12.519 5.25784 12.7422 5.85898 12.8602 6.48537C12.9259 6.83434 13.2621 7.06396 13.6111 6.99819C13.96 6.93247 14.1896 6.59628 14.1239 6.24731C13.9791 5.47859 13.7057 4.74163 13.311 4.05625C11.3951 0.7385 7.13731 -0.402171 3.8199 1.51352C2.21266 2.441 1.06299 3.939 0.582658 5.73157C0.102373 7.52409 0.348968 9.39645 1.2767 11.003C1.66948 11.685 2.17125 12.2908 2.76818 12.8037C2.88951 12.9079 3.03857 12.9589 3.18686 12.9589C3.36782 12.9589 3.54771 12.883 3.67482 12.735C3.90624 12.4656 3.87546 12.0597 3.60614 11.8283V11.8282Z" fill="white"/>
</g>
<defs>
<clipPath id="clip0_160_9">
<rect width="21.95" height="21.95" fill="white"/>
</clipPath>
</defs>
</svg>
