<svg width="4000" height="4000" viewBox="0 0 4000 4000" fill="none" xmlns="http://www.w3.org/2000/svg">
<rect width="4000" height="4000" fill="#111111"/>
<path d="M912.074 2428.41V2379.73H1141.44V2428.41H1055.94V2659H997.574V2428.41H912.074ZM1209.35 2662.95C1195.98 2662.95 1184.07 2660.64 1173.62 2656C1163.16 2651.27 1154.89 2644.32 1148.8 2635.14C1142.8 2625.86 1139.8 2614.32 1139.8 2600.5C1139.8 2588.86 1141.94 2579.09 1146.21 2571.18C1150.48 2563.27 1156.3 2556.91 1163.66 2552.09C1171.03 2547.27 1179.39 2543.64 1188.76 2541.18C1198.21 2538.73 1208.12 2537 1218.48 2536C1230.66 2534.73 1240.48 2533.55 1247.94 2532.45C1255.39 2531.27 1260.8 2529.55 1264.16 2527.27C1267.53 2525 1269.21 2521.64 1269.21 2517.18V2516.36C1269.21 2507.73 1266.48 2501.05 1261.03 2496.32C1255.66 2491.59 1248.03 2489.23 1238.12 2489.23C1227.66 2489.23 1219.35 2491.55 1213.16 2496.18C1206.98 2500.73 1202.89 2506.45 1200.89 2513.36L1147.16 2509C1149.89 2496.27 1155.26 2485.27 1163.26 2476C1171.26 2466.64 1181.57 2459.45 1194.21 2454.45C1206.94 2449.36 1221.66 2446.82 1238.39 2446.82C1250.03 2446.82 1261.16 2448.18 1271.8 2450.91C1282.53 2453.64 1292.03 2457.86 1300.3 2463.59C1308.66 2469.32 1315.26 2476.68 1320.07 2485.68C1324.89 2494.59 1327.3 2505.27 1327.3 2517.73V2659H1272.21V2629.95H1270.57C1267.21 2636.5 1262.71 2642.27 1257.07 2647.27C1251.44 2652.18 1244.66 2656.05 1236.76 2658.86C1228.85 2661.59 1219.71 2662.95 1209.35 2662.95ZM1225.98 2622.86C1234.53 2622.86 1242.07 2621.18 1248.62 2617.82C1255.16 2614.36 1260.3 2609.73 1264.03 2603.91C1267.76 2598.09 1269.62 2591.5 1269.62 2584.14V2561.91C1267.8 2563.09 1265.3 2564.18 1262.12 2565.18C1259.03 2566.09 1255.53 2566.95 1251.62 2567.77C1247.71 2568.5 1243.8 2569.18 1239.89 2569.82C1235.98 2570.36 1232.44 2570.86 1229.26 2571.32C1222.44 2572.32 1216.48 2573.91 1211.39 2576.09C1206.3 2578.27 1202.35 2581.23 1199.53 2584.95C1196.71 2588.59 1195.3 2593.14 1195.3 2598.59C1195.3 2606.5 1198.16 2612.55 1203.89 2616.73C1209.71 2620.82 1217.07 2622.86 1225.98 2622.86ZM1372.37 2737.55V2449.55H1429.64V2484.73H1432.23C1434.78 2479.09 1438.46 2473.36 1443.28 2467.55C1448.19 2461.64 1454.55 2456.73 1462.37 2452.82C1470.28 2448.82 1480.1 2446.82 1491.82 2446.82C1507.1 2446.82 1521.19 2450.82 1534.1 2458.82C1547.01 2466.73 1557.32 2478.68 1565.05 2494.68C1572.78 2510.59 1576.64 2530.55 1576.64 2554.55C1576.64 2577.91 1572.87 2597.64 1565.32 2613.73C1557.87 2629.73 1547.69 2641.86 1534.78 2650.14C1521.96 2658.32 1507.6 2662.41 1491.69 2662.41C1480.41 2662.41 1470.82 2660.55 1462.91 2656.82C1455.1 2653.09 1448.69 2648.41 1443.69 2642.77C1438.69 2637.05 1434.87 2631.27 1432.23 2625.45H1430.46V2737.55H1372.37ZM1429.23 2554.27C1429.23 2566.73 1430.96 2577.59 1434.41 2586.86C1437.87 2596.14 1442.87 2603.36 1449.41 2608.55C1455.96 2613.64 1463.91 2616.18 1473.28 2616.18C1482.73 2616.18 1490.73 2613.59 1497.28 2608.41C1503.82 2603.14 1508.78 2595.86 1512.14 2586.59C1515.6 2577.23 1517.32 2566.45 1517.32 2554.27C1517.32 2542.18 1515.64 2531.55 1512.28 2522.36C1508.91 2513.18 1503.96 2506 1497.41 2500.82C1490.87 2495.64 1482.82 2493.05 1473.28 2493.05C1463.82 2493.05 1455.82 2495.55 1449.28 2500.55C1442.82 2505.55 1437.87 2512.64 1434.41 2521.82C1430.96 2531 1429.23 2541.82 1429.23 2554.27ZM1705.34 2659V2379.73H1815.52C1836.61 2379.73 1854.61 2383.5 1869.52 2391.05C1884.52 2398.5 1895.93 2409.09 1903.74 2422.82C1911.65 2436.45 1915.61 2452.5 1915.61 2470.95C1915.61 2489.5 1911.61 2505.45 1903.61 2518.82C1895.61 2532.09 1884.02 2542.27 1868.84 2549.36C1853.74 2556.45 1835.47 2560 1814.02 2560H1740.24V2512.55H1804.47C1815.74 2512.55 1825.11 2511 1832.56 2507.91C1840.02 2504.82 1845.56 2500.18 1849.2 2494C1852.93 2487.82 1854.79 2480.14 1854.79 2470.95C1854.79 2461.68 1852.93 2453.86 1849.2 2447.5C1845.56 2441.14 1839.97 2436.32 1832.43 2433.05C1824.97 2429.68 1815.56 2428 1804.2 2428H1764.38V2659H1705.34ZM1856.15 2531.91L1925.56 2659H1860.38L1792.47 2531.91H1856.15ZM2048.32 2663.09C2026.78 2663.09 2008.23 2658.73 1992.69 2650C1977.23 2641.18 1965.32 2628.73 1956.96 2612.64C1948.6 2596.45 1944.41 2577.32 1944.41 2555.23C1944.41 2533.68 1948.6 2514.77 1956.96 2498.5C1965.32 2482.23 1977.1 2469.55 1992.28 2460.45C2007.55 2451.36 2025.46 2446.82 2046.01 2446.82C2059.82 2446.82 2072.69 2449.05 2084.6 2453.5C2096.6 2457.86 2107.05 2464.45 2115.96 2473.27C2124.96 2482.09 2131.96 2493.18 2136.96 2506.55C2141.96 2519.82 2144.46 2535.36 2144.46 2553.18V2569.14H1967.6V2533.14H2089.78C2089.78 2524.77 2087.96 2517.36 2084.32 2510.91C2080.69 2504.45 2075.64 2499.41 2069.19 2495.77C2062.82 2492.05 2055.41 2490.18 2046.96 2490.18C2038.14 2490.18 2030.32 2492.23 2023.51 2496.32C2016.78 2500.32 2011.51 2505.73 2007.69 2512.55C2003.87 2519.27 2001.91 2526.77 2001.82 2535.05V2569.27C2001.82 2579.64 2003.73 2588.59 2007.55 2596.14C2011.46 2603.68 2016.96 2609.5 2024.05 2613.59C2031.14 2617.68 2039.55 2619.73 2049.28 2619.73C2055.73 2619.73 2061.64 2618.82 2067.01 2617C2072.37 2615.18 2076.96 2612.45 2080.78 2608.82C2084.6 2605.18 2087.51 2600.73 2089.51 2595.45L2143.23 2599C2140.51 2611.91 2134.91 2623.18 2126.46 2632.82C2118.1 2642.36 2107.28 2649.82 2094.01 2655.18C2080.82 2660.45 2065.6 2663.09 2048.32 2663.09ZM2222.19 2659L2165.19 2449.55H2223.96L2256.41 2590.27H2258.32L2292.14 2449.55H2349.82L2384.19 2589.45H2385.96L2417.87 2449.55H2476.51L2419.64 2659H2358.14L2322.14 2527.27H2319.55L2283.55 2659H2222.19ZM2567.22 2662.95C2553.86 2662.95 2541.95 2660.64 2531.49 2656C2521.04 2651.27 2512.77 2644.32 2506.68 2635.14C2500.68 2625.86 2497.68 2614.32 2497.68 2600.5C2497.68 2588.86 2499.81 2579.09 2504.09 2571.18C2508.36 2563.27 2514.18 2556.91 2521.54 2552.09C2528.9 2547.27 2537.27 2543.64 2546.63 2541.18C2556.09 2538.73 2565.99 2537 2576.36 2536C2588.54 2534.73 2598.36 2533.55 2605.81 2532.45C2613.27 2531.27 2618.68 2529.55 2622.04 2527.27C2625.4 2525 2627.09 2521.64 2627.09 2517.18V2516.36C2627.09 2507.73 2624.36 2501.05 2618.9 2496.32C2613.54 2491.59 2605.9 2489.23 2595.99 2489.23C2585.54 2489.23 2577.22 2491.55 2571.04 2496.18C2564.86 2500.73 2560.77 2506.45 2558.77 2513.36L2505.04 2509C2507.77 2496.27 2513.13 2485.27 2521.13 2476C2529.13 2466.64 2539.45 2459.45 2552.09 2454.45C2564.81 2449.36 2579.54 2446.82 2596.27 2446.82C2607.9 2446.82 2619.04 2448.18 2629.68 2450.91C2640.4 2453.64 2649.9 2457.86 2658.18 2463.59C2666.54 2469.32 2673.13 2476.68 2677.95 2485.68C2682.77 2494.59 2685.18 2505.27 2685.18 2517.73V2659H2630.09V2629.95H2628.45C2625.09 2636.5 2620.59 2642.27 2614.95 2647.27C2609.31 2652.18 2602.54 2656.05 2594.63 2658.86C2586.72 2661.59 2577.59 2662.95 2567.22 2662.95ZM2583.86 2622.86C2592.4 2622.86 2599.95 2621.18 2606.49 2617.82C2613.04 2614.36 2618.18 2609.73 2621.9 2603.91C2625.63 2598.09 2627.49 2591.5 2627.49 2584.14V2561.91C2625.68 2563.09 2623.18 2564.18 2619.99 2565.18C2616.9 2566.09 2613.4 2566.95 2609.49 2567.77C2605.59 2568.5 2601.68 2569.18 2597.77 2569.82C2593.86 2570.36 2590.31 2570.86 2587.13 2571.32C2580.31 2572.32 2574.36 2573.91 2569.27 2576.09C2564.18 2578.27 2560.22 2581.23 2557.4 2584.95C2554.59 2588.59 2553.18 2593.14 2553.18 2598.59C2553.18 2606.5 2556.04 2612.55 2561.77 2616.73C2567.59 2620.82 2574.95 2622.86 2583.86 2622.86ZM2730.24 2659V2449.55H2786.56V2486.09H2788.74C2792.56 2473.09 2798.97 2463.27 2807.97 2456.64C2816.97 2449.91 2827.34 2446.55 2839.06 2446.55C2841.97 2446.55 2845.11 2446.73 2848.47 2447.09C2851.84 2447.45 2854.79 2447.95 2857.34 2448.59V2500.14C2854.61 2499.32 2850.84 2498.59 2846.02 2497.95C2841.2 2497.32 2836.79 2497 2832.79 2497C2824.24 2497 2816.61 2498.86 2809.88 2502.59C2803.24 2506.23 2797.97 2511.32 2794.06 2517.86C2790.24 2524.41 2788.34 2531.95 2788.34 2540.5V2659H2730.24ZM2954.8 2662.41C2938.89 2662.41 2924.48 2658.32 2911.57 2650.14C2898.76 2641.86 2888.57 2629.73 2881.03 2613.73C2873.57 2597.64 2869.85 2577.91 2869.85 2554.55C2869.85 2530.55 2873.71 2510.59 2881.44 2494.68C2889.16 2478.68 2899.44 2466.73 2912.26 2458.82C2925.16 2450.82 2939.3 2446.82 2954.66 2446.82C2966.39 2446.82 2976.16 2448.82 2983.98 2452.82C2991.89 2456.73 2998.26 2461.64 3003.07 2467.55C3007.98 2473.36 3011.71 2479.09 3014.26 2484.73H3016.03V2379.73H3073.98V2659H3016.71V2625.45H3014.26C3011.53 2631.27 3007.66 2637.05 3002.66 2642.77C2997.76 2648.41 2991.35 2653.09 2983.44 2656.82C2975.62 2660.55 2966.07 2662.41 2954.8 2662.41ZM2973.21 2616.18C2982.57 2616.18 2990.48 2613.64 2996.94 2608.55C3003.48 2603.36 3008.48 2596.14 3011.94 2586.86C3015.48 2577.59 3017.26 2566.73 3017.26 2554.27C3017.26 2541.82 3015.53 2531 3012.07 2521.82C3008.62 2512.64 3003.62 2505.55 2997.07 2500.55C2990.53 2495.55 2982.57 2493.05 2973.21 2493.05C2963.66 2493.05 2955.62 2495.64 2949.07 2500.82C2942.53 2506 2937.57 2513.18 2934.21 2522.36C2930.85 2531.55 2929.16 2542.18 2929.16 2554.27C2929.16 2566.45 2930.85 2577.23 2934.21 2586.59C2937.66 2595.86 2942.62 2603.14 2949.07 2608.41C2955.62 2613.59 2963.66 2616.18 2973.21 2616.18Z" fill="white"/>
<rect x="1382" y="2952" width="1235" height="500" rx="250" fill="#845050"/>
<path d="M1809.49 3271.55V3137H1850.22V3271.55H1809.49ZM1762.58 3224.64V3183.91H1897.12V3224.64H1762.58ZM2003.72 3299.55C1989.05 3299.55 1976.02 3297.03 1964.62 3292C1953.29 3286.91 1944.38 3279.91 1937.9 3271C1931.41 3262.09 1928.14 3251.85 1928.08 3240.27H1978.99C1979.05 3243.85 1980.14 3247.06 1982.26 3249.91C1984.44 3252.7 1987.41 3254.88 1991.17 3256.45C1994.93 3258.03 1999.23 3258.82 2004.08 3258.82C2008.75 3258.82 2012.87 3258 2016.44 3256.36C2020.02 3254.67 2022.81 3252.33 2024.81 3249.36C2026.81 3246.39 2027.78 3243 2027.72 3239.18C2027.78 3235.42 2026.63 3232.09 2024.26 3229.18C2021.96 3226.27 2018.72 3224 2014.53 3222.36C2010.35 3220.73 2005.53 3219.91 2000.08 3219.91H1981.17V3185H2000.08C2005.11 3185 2009.53 3184.18 2013.35 3182.55C2017.23 3180.91 2020.23 3178.64 2022.35 3175.73C2024.53 3172.82 2025.59 3169.48 2025.53 3165.73C2025.59 3162.09 2024.72 3158.88 2022.9 3156.09C2021.08 3153.3 2018.53 3151.12 2015.26 3149.55C2012.05 3147.97 2008.32 3147.18 2004.08 3147.18C1999.47 3147.18 1995.35 3148 1991.72 3149.64C1988.14 3151.27 1985.32 3153.55 1983.26 3156.45C1981.2 3159.36 1980.14 3162.7 1980.08 3166.45H1931.72C1931.78 3155.06 1934.9 3145 1941.08 3136.27C1947.32 3127.55 1955.87 3120.7 1966.72 3115.73C1977.56 3110.76 1990.02 3108.27 2004.08 3108.27C2017.84 3108.27 2029.99 3110.61 2040.53 3115.27C2051.14 3119.94 2059.41 3126.36 2065.35 3134.55C2071.35 3142.67 2074.32 3151.97 2074.26 3162.45C2074.38 3172.88 2070.81 3181.42 2063.53 3188.09C2056.32 3194.76 2047.17 3198.7 2036.08 3199.91V3201.36C2051.11 3203 2062.41 3207.61 2069.99 3215.18C2077.56 3222.7 2081.29 3232.15 2081.17 3243.55C2081.23 3254.45 2077.96 3264.12 2071.35 3272.55C2064.81 3280.97 2055.69 3287.58 2043.99 3292.36C2032.35 3297.15 2018.93 3299.55 2003.72 3299.55ZM2103.74 3297V3260.64L2173.19 3203.18C2177.8 3199.36 2181.74 3195.79 2185.01 3192.45C2188.34 3189.06 2190.89 3185.58 2192.65 3182C2194.47 3178.42 2195.38 3174.45 2195.38 3170.09C2195.38 3165.3 2194.34 3161.21 2192.28 3157.82C2190.28 3154.42 2187.5 3151.82 2183.92 3150C2180.34 3148.12 2176.22 3147.18 2171.56 3147.18C2166.89 3147.18 2162.77 3148.12 2159.19 3150C2155.68 3151.88 2152.95 3154.64 2151.01 3158.27C2149.07 3161.91 2148.1 3166.33 2148.1 3171.55H2100.1C2100.1 3158.45 2103.04 3147.18 2108.92 3137.73C2114.8 3128.27 2123.1 3121 2133.83 3115.91C2144.56 3110.82 2157.13 3108.27 2171.56 3108.27C2186.47 3108.27 2199.38 3110.67 2210.28 3115.45C2221.25 3120.18 2229.71 3126.85 2235.65 3135.45C2241.65 3144.06 2244.65 3154.15 2244.65 3165.73C2244.65 3172.88 2243.16 3180 2240.19 3187.09C2237.22 3194.12 2231.89 3201.91 2224.19 3210.45C2216.5 3219 2205.56 3229.18 2191.38 3241L2173.92 3255.55V3256.64H2246.65V3297H2103.74Z" fill="white"/>
<path d="M2666.67 1713.65C2643.77 1799.11 2589.15 1870.45 2512.85 1914.53L2357.4 2004.24C2304.86 2034.58 2248.44 2049.76 2192.03 2049.76C2135.61 2049.76 2079.21 2034.58 2026.66 2004.23L1673.2 1800.15C1639.82 1780.9 1628.33 1738.06 1647.59 1704.65C1668.55 1668.36 1701.46 1642.17 1740.26 1630.89C1779.82 1619.38 1821.62 1624.61 1857.96 1645.61L1951.79 1699.77L1674.47 1219.44C1645.63 1169.4 1662.82 1105.27 1712.78 1076.47C1736.92 1062.56 1765.11 1058.88 1792.17 1066.12C1819.25 1073.36 1841.83 1090.65 1855.74 1114.79L1968.6 1310.32C1977.09 1287.56 1993.01 1268.65 2014.22 1256.43C2038.31 1242.52 2066.49 1238.84 2093.54 1246.08C2106.37 1249.51 2118.19 1255.2 2128.56 1262.81C2128.7 1262.24 2128.85 1261.67 2129 1261.1C2136.27 1234.03 2153.56 1211.46 2177.7 1197.55C2201.8 1183.63 2229.97 1179.95 2257.02 1187.2C2274.6 1191.9 2290.28 1200.84 2302.92 1213.13C2310.68 1190.99 2325.88 1172.59 2346.31 1160.82C2368.89 1147.75 2395.31 1144.29 2420.66 1151.07C2446.01 1157.86 2467.16 1174.06 2480.21 1196.69L2633.83 1462.8C2677.9 1539.08 2689.56 1628.16 2666.66 1713.64L2666.67 1713.65ZM1631.95 1320.34C1615.05 1305.65 1600.76 1288.3 1589.47 1268.74C1562.37 1221.81 1555.17 1167.13 1569.21 1114.77C1583.25 1062.41 1616.83 1018.66 1663.79 991.563C1710.72 964.449 1765.39 957.238 1817.73 971.257C1870.06 985.276 1913.8 1018.85 1940.88 1065.78C1952.25 1085.5 1960.15 1106.54 1964.35 1128.32C1968.63 1150.56 1990.13 1165.12 2012.38 1160.83C2034.61 1156.55 2049.17 1135.04 2044.88 1112.81C2038.96 1082.04 2027.87 1052.43 2011.92 1024.79C1973.88 958.871 1912.45 911.725 1838.95 892.034C1765.44 872.341 1688.67 882.469 1622.78 920.535C1556.86 958.57 1509.7 1020.01 1489.99 1093.53C1470.27 1167.06 1480.38 1243.86 1518.44 1309.75C1534.28 1337.19 1554.36 1361.58 1578.14 1382.24C1585.91 1388.99 1595.49 1392.3 1605.02 1392.3C1616.49 1392.3 1627.89 1387.52 1635.99 1378.19C1650.85 1361.09 1649.04 1335.19 1631.94 1320.34L1631.95 1320.34ZM1530 1441.42C1498.99 1414.77 1472.91 1383.29 1452.48 1347.81C1404.24 1264.27 1391.42 1166.96 1416.39 1073.79C1441.35 980.628 1501.1 902.775 1584.65 854.565C1757.08 754.993 1978.38 814.28 2077.94 986.685C2098.48 1022.35 2112.71 1060.69 2120.24 1100.65C2124.43 1122.9 2145.87 1137.55 2168.13 1133.35C2190.39 1129.16 2205.03 1107.72 2200.84 1085.46C2191.6 1036.43 2174.17 989.427 2148.99 945.713C2026.79 734.102 1755.23 661.349 1543.64 783.534C1441.13 842.69 1367.8 938.234 1337.16 1052.57C1306.53 1166.9 1322.26 1286.32 1381.43 1388.79C1406.48 1432.28 1438.48 1470.93 1476.56 1503.63C1484.3 1510.28 1493.8 1513.54 1503.26 1513.54C1514.8 1513.54 1526.28 1508.69 1534.38 1499.25C1549.14 1482.07 1547.18 1456.19 1530 1441.42V1441.42Z" fill="white"/>
</svg>
