<svg width="53" height="50" viewBox="0 0 53 50" fill="none" xmlns="http://www.w3.org/2000/svg">
<path d="M4.35358 24.1872C17.7779 18.3076 26.7272 14.431 31.202 12.5582C43.9932 7.21023 46.6477 6.28141 48.3815 6.25031C48.7628 6.2438 49.6117 6.33856 50.1656 6.78922C50.6261 7.16899 50.7557 7.68259 50.8204 8.04283C50.878 8.40308 50.9572 9.22411 50.8924 9.86502C50.2018 17.1856 47.2018 34.9503 45.6767 43.1498C45.0364 46.6193 43.763 47.7824 42.5328 47.896C39.8565 48.1434 37.8277 46.1194 35.2378 44.4128C31.1875 41.7414 28.8999 40.0791 24.9647 37.4727C20.418 34.4606 23.3675 32.8048 25.9574 30.0993C26.6337 29.3912 38.4176 18.6164 38.6406 17.6392C38.6694 17.5169 38.6983 17.0612 38.4249 16.821C38.1588 16.5801 37.7629 16.6626 37.4751 16.7277C37.065 16.8203 30.5975 21.1229 18.0509 29.6349C16.2164 30.9037 14.5546 31.5222 13.0582 31.4897C11.418 31.4542 8.25274 30.5551 5.90025 29.7868C3.0226 28.8443 0.727555 28.3459 0.928991 26.745C1.02971 25.9117 2.17376 25.0588 4.35358 24.1872Z" fill="white"/>
</svg>
