<svg width="25" height="24" viewBox="0 0 25 24" fill="none" xmlns="http://www.w3.org/2000/svg">
<path d="M1.64972 11.6098C8.09337 8.78763 12.3891 6.92687 14.537 6.02792C20.6767 3.46091 21.9509 3.01508 22.7831 3.00015C22.9661 2.99702 23.3736 3.04251 23.6395 3.25883C23.8605 3.44112 23.9227 3.68764 23.9538 3.86056C23.9814 4.03348 24.0194 4.42757 23.9884 4.73521C23.6569 8.24909 22.2169 16.7762 21.4848 20.7119C21.1775 22.3772 20.5662 22.9356 19.9757 22.9901C18.6911 23.1088 17.7173 22.1373 16.4741 21.3182C14.53 20.0359 13.432 19.2379 11.5431 17.9869C9.36065 16.5411 10.7764 15.7463 12.0196 14.4477C12.3442 14.1078 18.0004 8.93589 18.1075 8.4668C18.1213 8.40812 18.1352 8.18937 18.004 8.07409C17.8762 7.95847 17.6862 7.99805 17.548 8.0293C17.3512 8.07374 14.2468 10.139 8.22443 14.2248C7.34387 14.8338 6.5462 15.1307 5.82794 15.115C5.04061 15.098 3.52131 14.6664 2.39212 14.2977C1.01084 13.8453 -0.0907762 13.606 0.00591302 12.8376C0.0542576 12.4376 0.603402 12.0282 1.64972 11.6098Z" fill="white"/>
</svg>
