<svg width="23" height="22" viewBox="0 0 23 22" fill="none" xmlns="http://www.w3.org/2000/svg">
<path d="M1.59557 10.6424C7.50225 8.05533 11.44 6.34963 13.4089 5.52559C19.037 3.1725 20.205 2.76382 20.9679 2.75013C21.1356 2.74727 21.5091 2.78897 21.7529 2.98726C21.9555 3.15436 22.0125 3.38034 22.041 3.53885C22.0663 3.69735 22.1012 4.05861 22.0727 4.34061C21.7688 7.56167 20.4488 15.3781 19.7777 18.9859C19.496 20.5125 18.9357 21.0243 18.3944 21.0742C17.2169 21.1831 16.3242 20.2925 15.1846 19.5416C13.4025 18.3662 12.396 17.6348 10.6645 16.488C8.66393 15.1627 9.96171 14.4341 11.1013 13.2437C11.3988 12.9321 16.5837 8.19124 16.6819 7.76123C16.6945 7.70744 16.7073 7.50692 16.587 7.40125C16.4698 7.29526 16.2956 7.33154 16.169 7.36019C15.9886 7.40093 13.1429 9.2941 7.62239 13.0394C6.81521 13.5976 6.08401 13.8698 5.42561 13.8555C4.70389 13.8399 3.3112 13.4442 2.2761 13.1062C1.00994 12.6915 0.000116693 12.4722 0.0887485 11.7678C0.133064 11.4012 0.636447 11.0259 1.59557 10.6424Z" fill="white"/>
</svg>
