<svg width="50" height="41" viewBox="0 0 50 41" fill="none" xmlns="http://www.w3.org/2000/svg">
<path d="M50 15.25V25.1731C50 26.1731 49.1923 27 48.1731 27H40.1154C36.6923 27 33.9423 24.2308 33.9423 20.827V19.5962C33.9423 16.1924 36.6923 13.4231 40.1154 13.4231H48.1731C49.1923 13.4231 50 14.25 50 15.25Z" fill="white"/>
<path d="M40.1154 29.8846C35.1212 29.8846 31.0577 25.8212 31.0577 20.8269V19.5962C31.0577 14.6019 35.1212 10.5385 40.1154 10.5385H47.6538V6.90385C47.6538 3.09615 44.5577 0 40.7308 0H6.92308C3.09615 0 0 3.09615 0 6.90385V33.5192C0 37.3269 3.09615 40.4231 6.92308 40.4231H40.7308C44.5577 40.4231 47.6538 37.3269 47.6538 33.5192V29.8846H40.1154Z" fill="white"/>
</svg>
