<svg width="21" height="17" viewBox="0 0 21 17" fill="none" xmlns="http://www.w3.org/2000/svg">
<path d="M21 6.405V10.5727C21 10.9927 20.6608 11.34 20.2327 11.34H16.8485C15.4108 11.34 14.2558 10.1769 14.2558 8.74731V8.23039C14.2558 6.80077 15.4108 5.6377 16.8485 5.6377H20.2327C20.6608 5.6377 21 5.985 21 6.405Z" fill="white"/>
<path d="M16.8485 12.5515C14.7509 12.5515 13.0442 10.8449 13.0442 8.74731V8.23038C13.0442 6.13281 14.7509 4.42615 16.8485 4.42615H20.0146V2.89962C20.0146 1.30038 18.7142 0 17.1069 0H2.90769C1.30038 0 0 1.30038 0 2.89962V14.0781C0 15.6773 1.30038 16.9777 2.90769 16.9777H17.1069C18.7142 16.9777 20.0146 15.6773 20.0146 14.0781V12.5515H16.8485Z" fill="white"/>
</svg>
